SplineFontDB: 3.2
FontName: iASans-Text
FullName: iA Sans Text
FamilyName: iA Sans Text
Weight: Book
Copyright: iA Inc.
Version: 1.000
ItalicAngle: 0
UnderlinePosition: -140
UnderlineWidth: 81.25
Ascent: 800
Descent: 200
InvalidEm: 0
sfntRevision: 0x00010000
LayerCount: 2
Layer: 0 1 "Back" 1
Layer: 1 1 "Fore" 0
XUID: [1021 950 161365953 11456715]
StyleMap: 0x0040
FSType: 4
OS2Version: 4
OS2_WeightWidthSlopeOnly: 0
OS2_UseTypoMetrics: 1
CreationTime: 1621876782
PfmFamily: 17
TTFWeight: 500
TTFWidth: 5
LineGap: 250
VLineGap: 0
Panose: 2 1 5 4 4 1 1 2 1 2
OS2TypoAscent: 775
OS2TypoAOffset: 0
OS2TypoDescent: -212
OS2TypoDOffset: 0
OS2TypoLinegap: 250
OS2WinAscent: 1259
OS2WinAOffset: 0
OS2WinDescent: 372
OS2WinDOffset: 0
HheadAscent: 775
HheadAOffset: 0
HheadDescent: -212
HheadDOffset: 0
OS2SubXSize: 650
OS2SubYSize: 600
OS2SubXOff: 0
OS2SubYOff: 75
OS2SupXSize: 650
OS2SupYSize: 600
OS2SupXOff: 0
OS2SupYOff: 350
OS2StrikeYSize: 81
OS2StrikeYPos: 256
OS2CapHeight: 700
OS2XHeight: 540
OS2Vendor: 'IA  '
OS2CodePages: 2000019f.00000000
OS2UnicodeRanges: a00000ff.5000e47f.00000008.00000000
Lookup: 1 0 0 "'aalt' Access All Alternates in Latin lookup 0" { "'aalt' Access All Alternates in Latin lookup 0 subtable"  } ['aalt' ('DFLT' <'dflt' > 'latn' <'AZE ' 'CRT ' 'KAZ ' 'MOL ' 'ROM ' 'TAT ' 'TRK ' 'dflt' > ) ]
Lookup: 3 0 0 "'aalt' Access All Alternates in Latin lookup 1" { "'aalt' Access All Alternates in Latin lookup 1 subtable"  } ['aalt' ('DFLT' <'dflt' > 'latn' <'AZE ' 'CRT ' 'KAZ ' 'MOL ' 'ROM ' 'TAT ' 'TRK ' 'dflt' > ) ]
Lookup: 6 0 0 "'calt' Contextual Alternates in Latin lookup 2" { "'calt' Contextual Alternates in Latin lookup 2 subtable"  } ['calt' ('DFLT' <'dflt' > 'latn' <'AZE ' 'CRT ' 'KAZ ' 'MOL ' 'ROM ' 'TAT ' 'TRK ' 'dflt' > ) ]

StartChar: .notdef
Encoding: 1114112 -1 0
Width: 706
GlyphClass: 1
Flags: W
LayerCount: 2
UndoRedoHistory
Layer: 0
Undoes
UndoOperation
Index: 0
Type: 1
WasModified: 0
WasOrder2: 1
Layer: 2
Width: 565
VWidth: 800
LBearingChange: 0
UnicodeEnc: 0
InstructionsLength: 0
EndUndoOperation
EndUndoes
Redoes
EndRedoes
EndUndoRedoHistory
UndoRedoHistory
Layer: 1
Undoes
UndoOperation
Index: 0
Type: 1
WasModified: 1
WasOrder2: 1
Layer: 2
Width: 706
VWidth: 1000
LBearingChange: 0
UnicodeEnc: 0
InstructionsLength: 0
SplineSet
92 0 m 1,0,-1
 92 700 l 1,1,-1
 614 700 l 1,2,-1
 614 0 l 1,3,-1
 92 0 l 1,0,-1
182 585 m 1,4,-1
 182 115 l 1,5,-1
 166 66 l 1,6,-1
 214 84 l 1,7,-1
 492 84 l 1,8,-1
 540 66 l 1,9,-1
 524 115 l 1,10,-1
 524 585 l 1,11,-1
 541 634 l 1,12,13
 540 634 540 634 492 616 c 1,14,-1
 214 616 l 1,15,-1
 165 634 l 1,16,-1
 182 585 l 1,4,-1
EndSplineSet
EndUndoOperation
UndoOperation
Index: 1
Type: 1
WasModified: 1
WasOrder2: 1
Layer: 2
Width: 706
VWidth: 1000
LBearingChange: 0
UnicodeEnc: 0
InstructionsLength: 0
SplineSet
92 0 m 1,0,-1
 92 700 l 1,1,-1
 614 700 l 1,2,-1
 614 0 l 1,3,-1
 92 0 l 1,0,-1
182 585 m 1,4,-1
 182 115 l 1,5,-1
 166 66 l 1,6,-1
 214 84 l 1,7,-1
 492 84 l 1,8,-1
 540 66 l 1,9,-1
 524 115 l 1,10,-1
 524 585 l 1,11,-1
 541 634 l 1,12,13
 540 634 540 634 492 616 c 1,14,-1
 214 616 l 1,15,-1
 165 634 l 1,16,-1
 182 585 l 1,4,-1
EndSplineSet
EndUndoOperation
UndoOperation
Index: 2
Type: 3
WasModified: 0
WasOrder2: 1
Layer: 2
EndUndoOperation
EndUndoes
Redoes
EndRedoes
EndUndoRedoHistory
Fore
SplineSet
92 0 m 1,0,-1
 92 700 l 1,1,-1
 614 700 l 1,2,-1
 614 0 l 1,3,-1
 92 0 l 1,0,-1
182 585 m 1,4,-1
 182 115 l 1,5,-1
 166 66 l 1,6,-1
 214 84 l 1,7,-1
 492 84 l 1,8,-1
 540 66 l 1,9,-1
 524 115 l 1,10,-1
 524 585 l 1,11,-1
 541 634 l 1,12,13
 540 634 540 634 492 616 c 1,14,-1
 214 616 l 1,15,-1
 165 634 l 1,16,-1
 182 585 l 1,4,-1
EndSplineSet
EndChar

StartChar: A
Encoding: 65 65 3
Width: 638
GlyphClass: 2
Flags: W
AnchorPoint: "Anchor-13" 320 684 basechar 0
AnchorPoint: "Anchor-12" 541 0 basechar 0
LayerCount: 2
UndoRedoHistory
Layer: 0
Undoes
UndoOperation
Index: 0
Type: 1
WasModified: 0
WasOrder2: 1
Layer: 2
Width: 511
VWidth: 800
LBearingChange: 0
UnicodeEnc: 0
InstructionsLength: 0
EndUndoOperation
EndUndoes
Redoes
EndRedoes
EndUndoRedoHistory
UndoRedoHistory
Layer: 1
Undoes
UndoOperation
Index: 0
Type: 1
WasModified: 1
WasOrder2: 1
Layer: 2
Width: 638
VWidth: 1000
LBearingChange: 0
UnicodeEnc: 0
InstructionsLength: 0
AnchorPoint: "Anchor-13" 320 684 basechar 0
AnchorPoint: "Anchor-12" 541 0 basechar 0
SplineSet
262 700 m 1,0,-1
 374 700 l 1,1,-1
 615 0 l 1,2,-1
 506 0 l 1,3,-1
 458 154 l 1,4,-1
 458 182 l 1,5,-1
 420 174 l 1,6,-1
 212 174 l 1,7,-1
 176 181 l 1,8,-1
 176 154 l 1,9,-1
 128 0 l 1,10,-1
 24 0 l 1,11,-1
 262 700 l 1,0,-1
228 260 m 1,12,-1
 404 260 l 1,13,-1
 442 252 l 1,14,-1
 415 296 l 1,15,-1
 330 541 l 1,16,-1
 318 601 l 1,17,-1
 304 541 l 1,18,-1
 219 296 l 1,19,20
 218 296 218 296 192 254 c 1,21,-1
 228 260 l 1,12,-1
EndSplineSet
EndUndoOperation
UndoOperation
Index: 1
Type: 1
WasModified: 1
WasOrder2: 1
Layer: 2
Width: 638
VWidth: 1000
LBearingChange: 0
UnicodeEnc: 0
InstructionsLength: 0
AnchorPoint: "Anchor-13" 320 684 basechar 0
AnchorPoint: "Anchor-12" 541 0 basechar 0
SplineSet
262 700 m 1,0,-1
 374 700 l 1,1,-1
 615 0 l 1,2,-1
 506 0 l 1,3,-1
 458 154 l 1,4,-1
 458 182 l 1,5,-1
 420 174 l 1,6,-1
 212 174 l 1,7,-1
 176 181 l 1,8,-1
 176 154 l 1,9,-1
 128 0 l 1,10,-1
 24 0 l 1,11,-1
 262 700 l 1,0,-1
228 260 m 1,12,-1
 404 260 l 1,13,-1
 442 252 l 1,14,-1
 415 296 l 1,15,-1
 330 541 l 1,16,-1
 318 601 l 1,17,-1
 304 541 l 1,18,-1
 219 296 l 1,19,20
 218 296 218 296 192 254 c 1,21,-1
 228 260 l 1,12,-1
EndSplineSet
EndUndoOperation
UndoOperation
Index: 2
Type: 3
WasModified: 0
WasOrder2: 1
Layer: 2
EndUndoOperation
EndUndoes
Redoes
EndRedoes
EndUndoRedoHistory
Fore
SplineSet
262 700 m 1,0,-1
 374 700 l 1,1,-1
 615 0 l 1,2,-1
 506 0 l 1,3,-1
 458 154 l 1,4,-1
 458 182 l 1,5,-1
 420 174 l 1,6,-1
 212 174 l 1,7,-1
 176 181 l 1,8,-1
 176 154 l 1,9,-1
 128 0 l 1,10,-1
 24 0 l 1,11,-1
 262 700 l 1,0,-1
228 260 m 1,12,-1
 404 260 l 1,13,-1
 442 252 l 1,14,-1
 415 296 l 1,15,-1
 330 541 l 1,16,-1
 318 601 l 1,17,-1
 304 541 l 1,18,-1
 219 296 l 1,19,20
 218 296 218 296 192 254 c 1,21,-1
 228 260 l 1,12,-1
EndSplineSet
Substitution2: "Single Substitution lookup 25 subtable" ordfeminine
Substitution2: "'aalt' Access All Alternates in Latin lookup 0 subtable" ordfeminine
EndChar

StartChar: uni2C6D
Encoding: 11373 11373 23
Width: 626
GlyphClass: 2
Flags: W
AnchorPoint: "Anchor-14" 314 -14 basechar 0
AnchorPoint: "Anchor-13" 314 712 basechar 0
LayerCount: 2
UndoRedoHistory
Layer: 0
Undoes
UndoOperation
Index: 0
Type: 1
WasModified: 0
WasOrder2: 1
Layer: 2
Width: 501
VWidth: 800
LBearingChange: 0
UnicodeEnc: 0
InstructionsLength: 0
EndUndoOperation
EndUndoes
Redoes
EndRedoes
EndUndoRedoHistory
UndoRedoHistory
Layer: 1
Undoes
UndoOperation
Index: 0
Type: 1
WasModified: 1
WasOrder2: 1
Layer: 2
Width: 626
VWidth: 1000
LBearingChange: 0
UnicodeEnc: 0
InstructionsLength: 0
AnchorPoint: "Anchor-14" 314 -14 basechar 0
AnchorPoint: "Anchor-13" 314 712 basechar 0
SplineSet
96.5 608.5 m 128,-1,1
 125 662 125 662 172.5 688.5 c 128,-1,2
 220 715 220 715 276 715 c 0,3,4
 331 715 331 715 374.5 694.5 c 128,-1,5
 418 674 418 674 451 628 c 2,6,-1
 470 604 l 1,7,-1
 444 686 l 1,8,-1
 444 700 l 1,9,-1
 546 700 l 1,10,-1
 546 0 l 1,11,-1
 446 0 l 1,12,-1
 446 19 l 1,13,-1
 472 99 l 1,14,-1
 451 70 l 2,15,16
 416 25 416 25 374 5 c 128,-1,17
 332 -15 332 -15 274 -15 c 0,18,19
 183 -15 183 -15 125.5 43 c 128,-1,20
 68 101 68 101 68 221 c 2,21,-1
 68 479 l 2,22,0
 68 555 68 555 96.5 608.5 c 128,-1,1
205 107 m 128,-1,24
 241 69 241 69 306 69 c 0,25,26
 366 69 366 69 405 107 c 128,-1,27
 444 145 444 145 444 214 c 2,28,-1
 444 482 l 2,29,30
 444 551 444 551 404 589.5 c 128,-1,31
 364 628 364 628 306 628 c 0,32,33
 244 628 244 628 206.5 588.5 c 128,-1,34
 169 549 169 549 169 466 c 2,35,-1
 169 224 l 2,36,23
 169 145 169 145 205 107 c 128,-1,24
EndSplineSet
EndUndoOperation
UndoOperation
Index: 1
Type: 1
WasModified: 1
WasOrder2: 1
Layer: 2
Width: 626
VWidth: 1000
LBearingChange: 0
UnicodeEnc: 0
InstructionsLength: 0
AnchorPoint: "Anchor-14" 314 -14 basechar 0
AnchorPoint: "Anchor-13" 314 712 basechar 0
SplineSet
96.5 608.5 m 128,-1,1
 125 662 125 662 172.5 688.5 c 128,-1,2
 220 715 220 715 276 715 c 0,3,4
 331 715 331 715 374.5 694.5 c 128,-1,5
 418 674 418 674 451 628 c 2,6,-1
 470 604 l 1,7,-1
 444 686 l 1,8,-1
 444 700 l 1,9,-1
 546 700 l 1,10,-1
 546 0 l 1,11,-1
 446 0 l 1,12,-1
 446 19 l 1,13,-1
 472 99 l 1,14,-1
 451 70 l 2,15,16
 416 25 416 25 374 5 c 128,-1,17
 332 -15 332 -15 274 -15 c 0,18,19
 183 -15 183 -15 125.5 43 c 128,-1,20
 68 101 68 101 68 221 c 2,21,-1
 68 479 l 2,22,0
 68 555 68 555 96.5 608.5 c 128,-1,1
205 107 m 128,-1,24
 241 69 241 69 306 69 c 0,25,26
 366 69 366 69 405 107 c 128,-1,27
 444 145 444 145 444 214 c 2,28,-1
 444 482 l 2,29,30
 444 551 444 551 404 589.5 c 128,-1,31
 364 628 364 628 306 628 c 0,32,33
 244 628 244 628 206.5 588.5 c 128,-1,34
 169 549 169 549 169 466 c 2,35,-1
 169 224 l 2,36,23
 169 145 169 145 205 107 c 128,-1,24
EndSplineSet
EndUndoOperation
UndoOperation
Index: 2
Type: 3
WasModified: 0
WasOrder2: 1
Layer: 2
EndUndoOperation
EndUndoes
Redoes
EndRedoes
EndUndoRedoHistory
Fore
SplineSet
96.5 608.5 m 128,-1,1
 125 662 125 662 172.5 688.5 c 128,-1,2
 220 715 220 715 276 715 c 0,3,4
 331 715 331 715 374.5 694.5 c 128,-1,5
 418 674 418 674 451 628 c 2,6,-1
 470 604 l 1,7,-1
 444 686 l 1,8,-1
 444 700 l 1,9,-1
 546 700 l 1,10,-1
 546 0 l 1,11,-1
 446 0 l 1,12,-1
 446 19 l 1,13,-1
 472 99 l 1,14,-1
 451 70 l 2,15,16
 416 25 416 25 374 5 c 128,-1,17
 332 -15 332 -15 274 -15 c 0,18,19
 183 -15 183 -15 125.5 43 c 128,-1,20
 68 101 68 101 68 221 c 2,21,-1
 68 479 l 2,22,0
 68 555 68 555 96.5 608.5 c 128,-1,1
205 107 m 128,-1,24
 241 69 241 69 306 69 c 0,25,26
 366 69 366 69 405 107 c 128,-1,27
 444 145 444 145 444 214 c 2,28,-1
 444 482 l 2,29,30
 444 551 444 551 404 589.5 c 128,-1,31
 364 628 364 628 306 628 c 0,32,33
 244 628 244 628 206.5 588.5 c 128,-1,34
 169 549 169 549 169 466 c 2,35,-1
 169 224 l 2,36,23
 169 145 169 145 205 107 c 128,-1,24
EndSplineSet
EndChar

StartChar: Aogonek
Encoding: 260 260 25
Width: 626
GlyphClass: 2
Flags: W
AnchorPoint: "Anchor-13" 314 684 basechar 0
LayerCount: 2
UndoRedoHistory
Layer: 0
Undoes
UndoOperation
Index: 0
Type: 1
WasModified: 0
WasOrder2: 1
Layer: 2
Width: 501
VWidth: 800
LBearingChange: 0
UnicodeEnc: 0
InstructionsLength: 0
EndUndoOperation
EndUndoes
Redoes
EndRedoes
EndUndoRedoHistory
UndoRedoHistory
Layer: 1
Undoes
UndoOperation
Index: 0
Type: 1
WasModified: 1
WasOrder2: 1
Layer: 2
Width: 626
VWidth: 1000
LBearingChange: 0
UnicodeEnc: 0
InstructionsLength: 0
AnchorPoint: "Anchor-13" 314 684 basechar 0
SplineSet
452 -191.5 m 128,-1,1
 420 -161 420 -161 420 -114 c 0,2,3
 420 -83 420 -83 434.5 -52.5 c 128,-1,4
 449 -22 449 -22 474 2 c 1,5,-1
 506 10 l 1,6,-1
 474 36 l 1,7,-1
 438 154 l 1,8,-1
 439 185 l 1,9,-1
 399 175 l 1,10,-1
 220 175 l 1,11,-1
 182 185 l 1,12,-1
 185 154 l 1,13,-1
 140 0 l 1,14,-1
 35 0 l 1,15,-1
 256 700 l 1,16,-1
 368 700 l 1,17,-1
 589 1 l 1,18,19
 554 -25 554 -25 536 -46.5 c 128,-1,20
 518 -68 518 -68 518 -95 c 0,21,22
 518 -115 518 -115 529.5 -127 c 128,-1,23
 541 -139 541 -139 559 -139 c 2,24,25
 558 -140 558 -140 572 -138 c 1,26,-1
 572 -220 l 1,27,28
 552 -222 552 -222 540 -222 c 0,29,0
 484 -222 484 -222 452 -191.5 c 128,-1,1
234 264 m 1,30,-1
 384 264 l 1,31,-1
 422 256 l 1,32,-1
 395 296 l 1,33,-1
 324 541 l 1,34,-1
 310 604 l 1,35,-1
 298 541 l 1,36,-1
 225 296 l 1,37,38
 226 296 226 296 198 256 c 1,39,-1
 234 264 l 1,30,-1
EndSplineSet
EndUndoOperation
UndoOperation
Index: 1
Type: 1
WasModified: 1
WasOrder2: 1
Layer: 2
Width: 626
VWidth: 1000
LBearingChange: 0
UnicodeEnc: 0
InstructionsLength: 0
AnchorPoint: "Anchor-13" 314 684 basechar 0
SplineSet
452 -191.5 m 128,-1,1
 420 -161 420 -161 420 -114 c 0,2,3
 420 -83 420 -83 434.5 -52.5 c 128,-1,4
 449 -22 449 -22 474 2 c 1,5,-1
 506 10 l 1,6,-1
 474 36 l 1,7,-1
 438 154 l 1,8,-1
 439 185 l 1,9,-1
 399 175 l 1,10,-1
 220 175 l 1,11,-1
 182 185 l 1,12,-1
 185 154 l 1,13,-1
 140 0 l 1,14,-1
 35 0 l 1,15,-1
 256 700 l 1,16,-1
 368 700 l 1,17,-1
 589 1 l 1,18,19
 554 -25 554 -25 536 -46.5 c 128,-1,20
 518 -68 518 -68 518 -95 c 0,21,22
 518 -115 518 -115 529.5 -127 c 128,-1,23
 541 -139 541 -139 559 -139 c 2,24,25
 558 -140 558 -140 572 -138 c 1,26,-1
 572 -220 l 1,27,28
 552 -222 552 -222 540 -222 c 0,29,0
 484 -222 484 -222 452 -191.5 c 128,-1,1
234 264 m 1,30,-1
 384 264 l 1,31,-1
 422 256 l 1,32,-1
 395 296 l 1,33,-1
 324 541 l 1,34,-1
 310 604 l 1,35,-1
 298 541 l 1,36,-1
 225 296 l 1,37,38
 226 296 226 296 198 256 c 1,39,-1
 234 264 l 1,30,-1
EndSplineSet
EndUndoOperation
UndoOperation
Index: 2
Type: 3
WasModified: 0
WasOrder2: 1
Layer: 2
EndUndoOperation
EndUndoes
Redoes
EndRedoes
EndUndoRedoHistory
Fore
SplineSet
452 -191.5 m 128,-1,1
 420 -161 420 -161 420 -114 c 0,2,3
 420 -83 420 -83 434.5 -52.5 c 128,-1,4
 449 -22 449 -22 474 2 c 1,5,-1
 506 10 l 1,6,-1
 474 36 l 1,7,-1
 438 154 l 1,8,-1
 439 185 l 1,9,-1
 399 175 l 1,10,-1
 220 175 l 1,11,-1
 182 185 l 1,12,-1
 185 154 l 1,13,-1
 140 0 l 1,14,-1
 35 0 l 1,15,-1
 256 700 l 1,16,-1
 368 700 l 1,17,-1
 589 1 l 1,18,19
 554 -25 554 -25 536 -46.5 c 128,-1,20
 518 -68 518 -68 518 -95 c 0,21,22
 518 -115 518 -115 529.5 -127 c 128,-1,23
 541 -139 541 -139 559 -139 c 2,24,25
 558 -140 558 -140 572 -138 c 1,26,-1
 572 -220 l 1,27,28
 552 -222 552 -222 540 -222 c 0,29,0
 484 -222 484 -222 452 -191.5 c 128,-1,1
234 264 m 1,30,-1
 384 264 l 1,31,-1
 422 256 l 1,32,-1
 395 296 l 1,33,-1
 324 541 l 1,34,-1
 310 604 l 1,35,-1
 298 541 l 1,36,-1
 225 296 l 1,37,38
 226 296 226 296 198 256 c 1,39,-1
 234 264 l 1,30,-1
EndSplineSet
EndChar

StartChar: AE
Encoding: 198 198 28
Width: 938
GlyphClass: 1
Flags: W
LayerCount: 2
UndoRedoHistory
Layer: 0
Undoes
UndoOperation
Index: 0
Type: 1
WasModified: 0
WasOrder2: 1
Layer: 2
Width: 751
VWidth: 800
LBearingChange: 0
UnicodeEnc: 0
InstructionsLength: 0
EndUndoOperation
EndUndoes
Redoes
EndRedoes
EndUndoRedoHistory
UndoRedoHistory
Layer: 1
Undoes
UndoOperation
Index: 0
Type: 1
WasModified: 1
WasOrder2: 1
Layer: 2
Width: 938
VWidth: 1000
LBearingChange: 0
UnicodeEnc: 0
InstructionsLength: 0
SplineSet
415 700 m 1,0,-1
 880 700 l 1,1,-1
 880 608 l 1,2,-1
 611 608 l 1,3,-1
 576 612 l 1,4,-1
 582 578 l 1,5,-1
 582 431 l 1,6,7
 582 432 582 432 575 398 c 1,8,-1
 611 402 l 1,9,-1
 831 402 l 1,10,-1
 831 310 l 1,11,-1
 611 310 l 1,12,-1
 576 315 l 1,13,-1
 582 281 l 1,14,-1
 582 120 l 1,15,-1
 576 86 l 1,16,-1
 611 92 l 1,17,-1
 880 92 l 1,18,-1
 880 0 l 1,19,-1
 480 0 l 1,20,-1
 480 168 l 1,21,-1
 490 200 l 1,22,-1
 456 196 l 1,23,-1
 269 196 l 1,24,25
 270 196 270 196 248 200 c 1,26,-1
 242 171 l 1,27,-1
 151 0 l 1,28,-1
 40 0 l 1,29,-1
 415 700 l 1,0,-1
319 275 m 1,30,-1
 461 275 l 1,31,-1
 490 270 l 1,32,-1
 480 309 l 1,33,34
 480 310 480 310 482 518 c 1,35,-1
 484 628 l 1,36,-1
 470 618 l 1,37,-1
 425 522 l 1,38,-1
 311 310 l 1,39,-1
 276 270 l 1,40,-1
 319 275 l 1,30,-1
EndSplineSet
EndUndoOperation
UndoOperation
Index: 1
Type: 1
WasModified: 1
WasOrder2: 1
Layer: 2
Width: 938
VWidth: 1000
LBearingChange: 0
UnicodeEnc: 0
InstructionsLength: 0
SplineSet
415 700 m 1,0,-1
 880 700 l 1,1,-1
 880 608 l 1,2,-1
 611 608 l 1,3,-1
 576 612 l 1,4,-1
 582 578 l 1,5,-1
 582 431 l 1,6,7
 582 432 582 432 575 398 c 1,8,-1
 611 402 l 1,9,-1
 831 402 l 1,10,-1
 831 310 l 1,11,-1
 611 310 l 1,12,-1
 576 315 l 1,13,-1
 582 281 l 1,14,-1
 582 120 l 1,15,-1
 576 86 l 1,16,-1
 611 92 l 1,17,-1
 880 92 l 1,18,-1
 880 0 l 1,19,-1
 480 0 l 1,20,-1
 480 168 l 1,21,-1
 490 200 l 1,22,-1
 456 196 l 1,23,-1
 269 196 l 1,24,25
 270 196 270 196 248 200 c 1,26,-1
 242 171 l 1,27,-1
 151 0 l 1,28,-1
 40 0 l 1,29,-1
 415 700 l 1,0,-1
319 275 m 1,30,-1
 461 275 l 1,31,-1
 490 270 l 1,32,-1
 480 309 l 1,33,34
 480 310 480 310 482 518 c 1,35,-1
 484 628 l 1,36,-1
 470 618 l 1,37,-1
 425 522 l 1,38,-1
 311 310 l 1,39,-1
 276 270 l 1,40,-1
 319 275 l 1,30,-1
EndSplineSet
EndUndoOperation
UndoOperation
Index: 2
Type: 3
WasModified: 0
WasOrder2: 1
Layer: 2
EndUndoOperation
EndUndoes
Redoes
EndRedoes
EndUndoRedoHistory
Fore
SplineSet
415 700 m 1,0,-1
 880 700 l 1,1,-1
 880 608 l 1,2,-1
 611 608 l 1,3,-1
 576 612 l 1,4,-1
 582 578 l 1,5,-1
 582 431 l 1,6,7
 582 432 582 432 575 398 c 1,8,-1
 611 402 l 1,9,-1
 831 402 l 1,10,-1
 831 310 l 1,11,-1
 611 310 l 1,12,-1
 576 315 l 1,13,-1
 582 281 l 1,14,-1
 582 120 l 1,15,-1
 576 86 l 1,16,-1
 611 92 l 1,17,-1
 880 92 l 1,18,-1
 880 0 l 1,19,-1
 480 0 l 1,20,-1
 480 168 l 1,21,-1
 490 200 l 1,22,-1
 456 196 l 1,23,-1
 269 196 l 1,24,25
 270 196 270 196 248 200 c 1,26,-1
 242 171 l 1,27,-1
 151 0 l 1,28,-1
 40 0 l 1,29,-1
 415 700 l 1,0,-1
319 275 m 1,30,-1
 461 275 l 1,31,-1
 490 270 l 1,32,-1
 480 309 l 1,33,34
 480 310 480 310 482 518 c 1,35,-1
 484 628 l 1,36,-1
 470 618 l 1,37,-1
 425 522 l 1,38,-1
 311 310 l 1,39,-1
 276 270 l 1,40,-1
 319 275 l 1,30,-1
EndSplineSet
EndChar

StartChar: B
Encoding: 66 66 29
Width: 615
GlyphClass: 2
Flags: W
AnchorPoint: "Anchor-15" 304 361 basechar 0
AnchorPoint: "Anchor-14" 305 0 basechar 0
AnchorPoint: "Anchor-13" 302 700 basechar 0
LayerCount: 2
UndoRedoHistory
Layer: 0
Undoes
UndoOperation
Index: 0
Type: 1
WasModified: 0
WasOrder2: 1
Layer: 2
Width: 492
VWidth: 800
LBearingChange: 0
UnicodeEnc: 0
InstructionsLength: 0
EndUndoOperation
EndUndoes
Redoes
EndRedoes
EndUndoRedoHistory
UndoRedoHistory
Layer: 1
Undoes
UndoOperation
Index: 0
Type: 1
WasModified: 1
WasOrder2: 1
Layer: 2
Width: 615
VWidth: 1000
LBearingChange: 0
UnicodeEnc: 0
InstructionsLength: 0
AnchorPoint: "Anchor-15" 304 361 basechar 0
AnchorPoint: "Anchor-14" 305 0 basechar 0
AnchorPoint: "Anchor-13" 302 700 basechar 0
SplineSet
92 700 m 1,0,-1
 330 700 l 2,1,2
 426 700 426 700 482 654 c 128,-1,3
 538 608 538 608 538 528 c 0,4,5
 538 466 538 466 506.5 425.5 c 0,6,7
 476 384 476 384 418 372 c 2,8,-1
 406 370 l 1,9,-1
 425 368 l 2,10,11
 495 354 495 354 533.5 310 c 128,-1,12
 572 266 572 266 572 198 c 0,13,14
 572 107 572 107 509 53.5 c 128,-1,15
 446 0 446 0 336 0 c 2,16,-1
 92 0 l 1,17,-1
 92 700 l 1,0,-1
196 290 m 1,18,-1
 196 115 l 1,19,-1
 190 80 l 1,20,-1
 226 88 l 1,21,-1
 320 88 l 2,22,23
 466 88 466 88 466 208 c 0,24,25
 466 322 466 322 318 321 c 2,26,-1
 225 321 l 1,27,28
 225 322 225 322 189 328 c 1,29,-1
 196 290 l 1,18,-1
225 405 m 1,30,-1
 310 405 l 2,31,32
 365 405 365 405 398.5 432.5 c 128,-1,33
 432 460 432 460 432 508 c 0,34,35
 432 617 432 617 318 616 c 2,36,-1
 226 616 l 1,37,-1
 189 622 l 1,38,-1
 196 585 l 1,39,-1
 196 436 l 1,40,-1
 189 399 l 1,41,-1
 225 405 l 1,30,-1
EndSplineSet
EndUndoOperation
UndoOperation
Index: 1
Type: 1
WasModified: 1
WasOrder2: 1
Layer: 2
Width: 615
VWidth: 1000
LBearingChange: 0
UnicodeEnc: 0
InstructionsLength: 0
AnchorPoint: "Anchor-15" 304 361 basechar 0
AnchorPoint: "Anchor-14" 305 0 basechar 0
AnchorPoint: "Anchor-13" 302 700 basechar 0
SplineSet
92 700 m 1,0,-1
 330 700 l 2,1,2
 426 700 426 700 482 654 c 128,-1,3
 538 608 538 608 538 528 c 0,4,5
 538 466 538 466 506.5 425.5 c 0,6,7
 476 384 476 384 418 372 c 2,8,-1
 406 370 l 1,9,-1
 425 368 l 2,10,11
 495 354 495 354 533.5 310 c 128,-1,12
 572 266 572 266 572 198 c 0,13,14
 572 107 572 107 509 53.5 c 128,-1,15
 446 0 446 0 336 0 c 2,16,-1
 92 0 l 1,17,-1
 92 700 l 1,0,-1
196 290 m 1,18,-1
 196 115 l 1,19,-1
 190 80 l 1,20,-1
 226 88 l 1,21,-1
 320 88 l 2,22,23
 466 88 466 88 466 208 c 0,24,25
 466 322 466 322 318 321 c 2,26,-1
 225 321 l 1,27,28
 225 322 225 322 189 328 c 1,29,-1
 196 290 l 1,18,-1
225 405 m 1,30,-1
 310 405 l 2,31,32
 365 405 365 405 398.5 432.5 c 128,-1,33
 432 460 432 460 432 508 c 0,34,35
 432 617 432 617 318 616 c 2,36,-1
 226 616 l 1,37,-1
 189 622 l 1,38,-1
 196 585 l 1,39,-1
 196 436 l 1,40,-1
 189 399 l 1,41,-1
 225 405 l 1,30,-1
EndSplineSet
EndUndoOperation
UndoOperation
Index: 2
Type: 3
WasModified: 0
WasOrder2: 1
Layer: 2
EndUndoOperation
EndUndoes
Redoes
EndRedoes
EndUndoRedoHistory
Fore
SplineSet
92 700 m 1,0,-1
 330 700 l 2,1,2
 426 700 426 700 482 654 c 128,-1,3
 538 608 538 608 538 528 c 0,4,5
 538 466 538 466 506 426 c 0,6,7
 476 384 476 384 418 372 c 2,8,-1
 406 370 l 1,9,-1
 425 368 l 2,10,11
 495 354 495 354 533.5 310 c 128,-1,12
 572 266 572 266 572 198 c 0,13,14
 572 107 572 107 509 53.5 c 128,-1,15
 446 0 446 0 336 0 c 2,16,-1
 92 0 l 1,17,-1
 92 700 l 1,0,-1
196 290 m 1,18,-1
 196 115 l 1,19,-1
 190 80 l 1,20,-1
 226 88 l 1,21,-1
 320 88 l 2,22,23
 466 88 466 88 466 208 c 0,24,25
 466 322 466 322 318 321 c 2,26,-1
 225 321 l 1,27,28
 225 322 225 322 189 328 c 1,29,-1
 196 290 l 1,18,-1
225 405 m 1,30,-1
 310 405 l 2,31,32
 365 405 365 405 398.5 432.5 c 128,-1,33
 432 460 432 460 432 508 c 0,34,35
 432 617 432 617 318 616 c 2,36,-1
 226 616 l 1,37,-1
 189 622 l 1,38,-1
 196 585 l 1,39,-1
 196 436 l 1,40,-1
 189 399 l 1,41,-1
 225 405 l 1,30,-1
EndSplineSet
EndChar

StartChar: uni0181
Encoding: 385 385 31
Width: 626
GlyphClass: 1
Flags: W
LayerCount: 2
UndoRedoHistory
Layer: 0
Undoes
UndoOperation
Index: 0
Type: 1
WasModified: 0
WasOrder2: 1
Layer: 2
Width: 501
VWidth: 800
LBearingChange: 0
UnicodeEnc: 0
InstructionsLength: 0
EndUndoOperation
EndUndoes
Redoes
EndRedoes
EndUndoRedoHistory
UndoRedoHistory
Layer: 1
Undoes
UndoOperation
Index: 0
Type: 1
WasModified: 1
WasOrder2: 1
Layer: 2
Width: 626
VWidth: 1000
LBearingChange: 0
UnicodeEnc: 0
InstructionsLength: 0
SplineSet
162 585 m 1,0,1
 162 586 162 586 172 628 c 1,2,-1
 140 619 l 2,3,4
 115 611 115 611 99.5 594.5 c 128,-1,5
 84 578 84 578 84 550 c 2,6,-1
 84 534 l 1,7,-1
 -8 534 l 1,8,-1
 -8 555 l 2,9,10
 -8 619 -8 619 33 659.5 c 128,-1,11
 74 700 74 700 149 700 c 2,12,-1
 380 700 l 2,13,14
 474 700 474 700 529 654 c 128,-1,15
 584 608 584 608 584 528 c 0,16,17
 584 467 584 467 554 427.5 c 128,-1,18
 524 388 524 388 466 375 c 2,19,-1
 451 371 l 1,20,-1
 471 369 l 2,21,22
 542 357 542 357 580.5 313 c 128,-1,23
 619 269 619 269 619 199 c 0,24,25
 619 108 619 108 555.5 54 c 128,-1,26
 492 0 492 0 384 0 c 2,27,-1
 162 0 l 1,28,-1
 162 585 l 1,0,1
265 290 m 1,29,-1
 265 115 l 1,30,31
 266 115 266 115 258 79 c 1,32,33
 258 80 258 80 295 88 c 1,34,-1
 369 88 l 2,35,36
 438 88 438 88 475 118 c 128,-1,37
 512 148 512 148 512 208 c 0,38,39
 512 264 512 264 475.5 292.5 c 128,-1,40
 439 321 439 321 366 321 c 2,41,-1
 294 321 l 1,42,-1
 256 329 l 1,43,-1
 265 290 l 1,29,-1
294 405 m 1,44,-1
 359 405 l 2,45,46
 414 405 414 405 447 432.5 c 128,-1,47
 480 460 480 460 480 508 c 0,48,49
 480 560 480 560 450 588 c 128,-1,50
 420 616 420 616 365 616 c 2,51,-1
 295 616 l 1,52,-1
 256 624 l 1,53,-1
 265 585 l 1,54,-1
 265 436 l 1,55,-1
 256 398 l 1,56,-1
 294 405 l 1,44,-1
EndSplineSet
EndUndoOperation
UndoOperation
Index: 1
Type: 1
WasModified: 1
WasOrder2: 1
Layer: 2
Width: 626
VWidth: 1000
LBearingChange: 0
UnicodeEnc: 0
InstructionsLength: 0
SplineSet
162 585 m 1,0,1
 162 586 162 586 172 628 c 1,2,-1
 140 619 l 2,3,4
 115 611 115 611 99.5 594.5 c 128,-1,5
 84 578 84 578 84 550 c 2,6,-1
 84 534 l 1,7,-1
 -8 534 l 1,8,-1
 -8 555 l 2,9,10
 -8 619 -8 619 33 659.5 c 128,-1,11
 74 700 74 700 149 700 c 2,12,-1
 380 700 l 2,13,14
 474 700 474 700 529 654 c 128,-1,15
 584 608 584 608 584 528 c 0,16,17
 584 467 584 467 554 427.5 c 128,-1,18
 524 388 524 388 466 375 c 2,19,-1
 451 371 l 1,20,-1
 471 369 l 2,21,22
 542 357 542 357 580.5 313 c 128,-1,23
 619 269 619 269 619 199 c 0,24,25
 619 108 619 108 555.5 54 c 128,-1,26
 492 0 492 0 384 0 c 2,27,-1
 162 0 l 1,28,-1
 162 585 l 1,0,1
265 290 m 1,29,-1
 265 115 l 1,30,31
 266 115 266 115 258 79 c 1,32,33
 258 80 258 80 295 88 c 1,34,-1
 369 88 l 2,35,36
 438 88 438 88 475 118 c 128,-1,37
 512 148 512 148 512 208 c 0,38,39
 512 264 512 264 475.5 292.5 c 128,-1,40
 439 321 439 321 366 321 c 2,41,-1
 294 321 l 1,42,-1
 256 329 l 1,43,-1
 265 290 l 1,29,-1
294 405 m 1,44,-1
 359 405 l 2,45,46
 414 405 414 405 447 432.5 c 128,-1,47
 480 460 480 460 480 508 c 0,48,49
 480 560 480 560 450 588 c 128,-1,50
 420 616 420 616 365 616 c 2,51,-1
 295 616 l 1,52,-1
 256 624 l 1,53,-1
 265 585 l 1,54,-1
 265 436 l 1,55,-1
 256 398 l 1,56,-1
 294 405 l 1,44,-1
EndSplineSet
EndUndoOperation
UndoOperation
Index: 2
Type: 3
WasModified: 0
WasOrder2: 1
Layer: 2
EndUndoOperation
EndUndoes
Redoes
EndRedoes
EndUndoRedoHistory
Fore
SplineSet
162 585 m 1,0,1
 162 586 162 586 172 628 c 1,2,-1
 140 619 l 2,3,4
 115 611 115 611 99.5 594.5 c 128,-1,5
 84 578 84 578 84 550 c 2,6,-1
 84 534 l 1,7,-1
 -8 534 l 1,8,-1
 -8 555 l 2,9,10
 -8 619 -8 619 33 659.5 c 128,-1,11
 74 700 74 700 149 700 c 2,12,-1
 380 700 l 2,13,14
 474 700 474 700 529 654 c 128,-1,15
 584 608 584 608 584 528 c 0,16,17
 584 467 584 467 554 427.5 c 128,-1,18
 524 388 524 388 466 375 c 2,19,-1
 451 371 l 1,20,-1
 471 369 l 2,21,22
 542 357 542 357 580.5 313 c 128,-1,23
 619 269 619 269 619 199 c 0,24,25
 619 108 619 108 555.5 54 c 128,-1,26
 492 0 492 0 384 0 c 2,27,-1
 162 0 l 1,28,-1
 162 585 l 1,0,1
265 290 m 1,29,-1
 265 115 l 1,30,31
 266 115 266 115 258 79 c 1,32,33
 258 80 258 80 295 88 c 1,34,-1
 369 88 l 2,35,36
 438 88 438 88 475 118 c 128,-1,37
 512 148 512 148 512 208 c 0,38,39
 512 264 512 264 475.5 292.5 c 128,-1,40
 439 321 439 321 366 321 c 2,41,-1
 294 321 l 1,42,-1
 256 329 l 1,43,-1
 265 290 l 1,29,-1
294 405 m 1,44,-1
 359 405 l 2,45,46
 414 405 414 405 447 432.5 c 128,-1,47
 480 460 480 460 480 508 c 0,48,49
 480 560 480 560 450 588 c 128,-1,50
 420 616 420 616 365 616 c 2,51,-1
 295 616 l 1,52,-1
 256 624 l 1,53,-1
 265 585 l 1,54,-1
 265 436 l 1,55,-1
 256 398 l 1,56,-1
 294 405 l 1,44,-1
EndSplineSet
EndChar

StartChar: uni0243
Encoding: 579 579 32
Width: 626
GlyphClass: 2
Flags: W
AnchorPoint: "Anchor-15" 304 361 basechar 0
AnchorPoint: "Anchor-14" 304 0 basechar 0
AnchorPoint: "Anchor-13" 302 700 basechar 0
LayerCount: 2
UndoRedoHistory
Layer: 0
Undoes
UndoOperation
Index: 0
Type: 1
WasModified: 0
WasOrder2: 1
Layer: 2
Width: 501
VWidth: 800
LBearingChange: 0
UnicodeEnc: 0
InstructionsLength: 0
EndUndoOperation
EndUndoes
Redoes
EndRedoes
EndUndoRedoHistory
UndoRedoHistory
Layer: 1
Undoes
UndoOperation
Index: 0
Type: 1
WasModified: 1
WasOrder2: 1
Layer: 2
Width: 626
VWidth: 1000
LBearingChange: 0
UnicodeEnc: 0
InstructionsLength: 0
AnchorPoint: "Anchor-15" 304 361 basechar 0
AnchorPoint: "Anchor-14" 304 0 basechar 0
AnchorPoint: "Anchor-13" 302 700 basechar 0
SplineSet
91 438 m 1,0,-1
 104 479 l 1,1,-1
 62 469 l 1,2,-1
 -4 469 l 1,3,4
 -4 468 -4 468 -4 552 c 1,5,-1
 62 552 l 1,6,-1
 104 544 l 1,7,-1
 91 588 l 1,8,-1
 91 700 l 1,9,10
 92 700 92 700 328 700 c 2,11,12
 426 700 426 700 480.5 654 c 128,-1,13
 535 608 535 608 535 528 c 0,14,15
 535 467 535 467 505 427.5 c 128,-1,16
 475 388 475 388 419 375 c 2,17,-1
 404 371 l 1,18,-1
 424 369 l 2,19,20
 494 357 494 357 532 313 c 128,-1,21
 570 269 570 269 570 199 c 0,22,23
 570 108 570 108 506 54 c 128,-1,24
 442 0 442 0 334 0 c 2,25,-1
 91 0 l 1,26,-1
 91 438 l 1,0,-1
225 552 m 1,27,-1
 301 552 l 1,28,-1
 301 469 l 1,29,-1
 225 469 l 1,30,31
 224 469 224 469 182 479 c 1,32,-1
 194 445 l 1,33,-1
 194 430 l 1,34,-1
 182 396 l 1,35,-1
 222 405 l 1,36,-1
 309 405 l 2,37,38
 364 405 364 405 398 432.5 c 128,-1,39
 432 460 432 460 432 508 c 0,40,41
 432 560 432 560 401.5 588 c 128,-1,42
 371 616 371 616 315 616 c 2,43,-1
 224 616 l 1,44,-1
 184 626 l 1,45,-1
 194 592 l 1,46,-1
 194 579 l 1,47,-1
 182 544 l 1,48,-1
 225 552 l 1,27,-1
194 290 m 1,49,-1
 194 115 l 1,50,51
 194 116 194 116 186 78 c 1,52,-1
 224 88 l 1,53,-1
 318 88 l 2,54,55
 389 88 389 88 427 118 c 128,-1,56
 465 148 465 148 465 208 c 0,57,58
 465 264 465 264 427.5 292.5 c 128,-1,59
 390 321 390 321 316 321 c 2,60,-1
 222 321 l 1,61,-1
 185 329 l 1,62,-1
 194 290 l 1,49,-1
EndSplineSet
EndUndoOperation
UndoOperation
Index: 1
Type: 1
WasModified: 1
WasOrder2: 1
Layer: 2
Width: 626
VWidth: 1000
LBearingChange: 0
UnicodeEnc: 0
InstructionsLength: 0
AnchorPoint: "Anchor-15" 304 361 basechar 0
AnchorPoint: "Anchor-14" 304 0 basechar 0
AnchorPoint: "Anchor-13" 302 700 basechar 0
SplineSet
91 438 m 1,0,-1
 104 479 l 1,1,-1
 62 469 l 1,2,-1
 -4 469 l 1,3,4
 -4 468 -4 468 -4 552 c 1,5,-1
 62 552 l 1,6,-1
 104 544 l 1,7,-1
 91 588 l 1,8,-1
 91 700 l 1,9,10
 92 700 92 700 328 700 c 2,11,12
 426 700 426 700 480.5 654 c 128,-1,13
 535 608 535 608 535 528 c 0,14,15
 535 467 535 467 505 427.5 c 128,-1,16
 475 388 475 388 419 375 c 2,17,-1
 404 371 l 1,18,-1
 424 369 l 2,19,20
 494 357 494 357 532 313 c 128,-1,21
 570 269 570 269 570 199 c 0,22,23
 570 108 570 108 506 54 c 128,-1,24
 442 0 442 0 334 0 c 2,25,-1
 91 0 l 1,26,-1
 91 438 l 1,0,-1
225 552 m 1,27,-1
 301 552 l 1,28,-1
 301 469 l 1,29,-1
 225 469 l 1,30,31
 224 469 224 469 182 479 c 1,32,-1
 194 445 l 1,33,-1
 194 430 l 1,34,-1
 182 396 l 1,35,-1
 222 405 l 1,36,-1
 309 405 l 2,37,38
 364 405 364 405 398 432.5 c 128,-1,39
 432 460 432 460 432 508 c 0,40,41
 432 560 432 560 401.5 588 c 128,-1,42
 371 616 371 616 315 616 c 2,43,-1
 224 616 l 1,44,-1
 184 626 l 1,45,-1
 194 592 l 1,46,-1
 194 579 l 1,47,-1
 182 544 l 1,48,-1
 225 552 l 1,27,-1
194 290 m 1,49,-1
 194 115 l 1,50,51
 194 116 194 116 186 78 c 1,52,-1
 224 88 l 1,53,-1
 318 88 l 2,54,55
 389 88 389 88 427 118 c 128,-1,56
 465 148 465 148 465 208 c 0,57,58
 465 264 465 264 427.5 292.5 c 128,-1,59
 390 321 390 321 316 321 c 2,60,-1
 222 321 l 1,61,-1
 185 329 l 1,62,-1
 194 290 l 1,49,-1
EndSplineSet
EndUndoOperation
UndoOperation
Index: 2
Type: 3
WasModified: 0
WasOrder2: 1
Layer: 2
EndUndoOperation
EndUndoes
Redoes
EndRedoes
EndUndoRedoHistory
Fore
SplineSet
91 438 m 1,0,-1
 104 479 l 1,1,-1
 62 469 l 1,2,-1
 -4 469 l 1,3,4
 -4 468 -4 468 -4 552 c 1,5,-1
 62 552 l 1,6,-1
 104 544 l 1,7,-1
 91 588 l 1,8,-1
 91 700 l 1,9,10
 92 700 92 700 328 700 c 2,11,12
 426 700 426 700 480.5 654 c 128,-1,13
 535 608 535 608 535 528 c 0,14,15
 535 467 535 467 505 427.5 c 128,-1,16
 475 388 475 388 419 375 c 2,17,-1
 404 371 l 1,18,-1
 424 369 l 2,19,20
 494 357 494 357 532 313 c 128,-1,21
 570 269 570 269 570 199 c 0,22,23
 570 108 570 108 506 54 c 128,-1,24
 442 0 442 0 334 0 c 2,25,-1
 91 0 l 1,26,-1
 91 438 l 1,0,-1
225 552 m 1,27,-1
 301 552 l 1,28,-1
 301 469 l 1,29,-1
 225 469 l 1,30,31
 224 469 224 469 182 479 c 1,32,-1
 194 445 l 1,33,-1
 194 430 l 1,34,-1
 182 396 l 1,35,-1
 222 405 l 1,36,-1
 309 405 l 2,37,38
 364 405 364 405 398 432.5 c 128,-1,39
 432 460 432 460 432 508 c 0,40,41
 432 560 432 560 401.5 588 c 128,-1,42
 371 616 371 616 315 616 c 2,43,-1
 224 616 l 1,44,-1
 184 626 l 1,45,-1
 194 592 l 1,46,-1
 194 579 l 1,47,-1
 182 544 l 1,48,-1
 225 552 l 1,27,-1
194 290 m 1,49,-1
 194 115 l 1,50,51
 194 116 194 116 186 78 c 1,52,-1
 224 88 l 1,53,-1
 318 88 l 2,54,55
 389 88 389 88 427 118 c 128,-1,56
 465 148 465 148 465 208 c 0,57,58
 465 264 465 264 427.5 292.5 c 128,-1,59
 390 321 390 321 316 321 c 2,60,-1
 222 321 l 1,61,-1
 185 329 l 1,62,-1
 194 290 l 1,49,-1
EndSplineSet
EndChar

StartChar: C
Encoding: 67 67 33
Width: 638
GlyphClass: 2
Flags: W
AnchorPoint: "Anchor-15" 318 351 basechar 0
AnchorPoint: "Anchor-14" 322 -12 basechar 0
AnchorPoint: "Anchor-13" 321 704 basechar 0
AnchorPoint: "Anchor-12" 322 -14 basechar 0
LayerCount: 2
UndoRedoHistory
Layer: 0
Undoes
UndoOperation
Index: 0
Type: 1
WasModified: 0
WasOrder2: 1
Layer: 2
Width: 511
VWidth: 800
LBearingChange: 0
UnicodeEnc: 0
InstructionsLength: 0
EndUndoOperation
EndUndoes
Redoes
EndRedoes
EndUndoRedoHistory
UndoRedoHistory
Layer: 1
Undoes
UndoOperation
Index: 0
Type: 1
WasModified: 1
WasOrder2: 1
Layer: 2
Width: 638
VWidth: 1000
LBearingChange: 0
UnicodeEnc: 0
InstructionsLength: 0
AnchorPoint: "Anchor-15" 318 351 basechar 0
AnchorPoint: "Anchor-14" 322 -12 basechar 0
AnchorPoint: "Anchor-13" 321 704 basechar 0
AnchorPoint: "Anchor-12" 322 -14 basechar 0
SplineSet
138 640.5 m 128,-1,1
 206 715 206 715 332 715 c 0,2,3
 452 715 452 715 518 653.5 c 128,-1,4
 584 592 584 592 584 470 c 1,5,-1
 479 470 l 1,6,7
 480 548 480 548 442.5 587 c 128,-1,8
 405 626 405 626 331 626 c 0,9,10
 173 626 173 626 174 445 c 2,11,-1
 174 245 l 2,12,13
 174 160 174 160 215 117.5 c 128,-1,14
 256 75 256 75 330 75 c 0,15,16
 471 75 471 75 481 225 c 1,17,-1
 584 225 l 1,18,19
 580 117 580 117 514.5 51 c 128,-1,20
 449 -15 449 -15 326 -15 c 256,21,22
 204 -15 204 -15 137 56.5 c 128,-1,23
 70 128 70 128 70 246 c 2,24,-1
 70 446 l 2,25,0
 70 566 70 566 138 640.5 c 128,-1,1
EndSplineSet
EndUndoOperation
UndoOperation
Index: 1
Type: 1
WasModified: 1
WasOrder2: 1
Layer: 2
Width: 638
VWidth: 1000
LBearingChange: 0
UnicodeEnc: 0
InstructionsLength: 0
AnchorPoint: "Anchor-15" 318 351 basechar 0
AnchorPoint: "Anchor-14" 322 -12 basechar 0
AnchorPoint: "Anchor-13" 321 704 basechar 0
AnchorPoint: "Anchor-12" 322 -14 basechar 0
SplineSet
138 640.5 m 128,-1,1
 206 715 206 715 332 715 c 0,2,3
 452 715 452 715 518 653.5 c 128,-1,4
 584 592 584 592 584 470 c 1,5,-1
 479 470 l 1,6,7
 480 548 480 548 442.5 587 c 128,-1,8
 405 626 405 626 331 626 c 0,9,10
 173 626 173 626 174 445 c 2,11,-1
 174 245 l 2,12,13
 174 160 174 160 215 117.5 c 128,-1,14
 256 75 256 75 330 75 c 0,15,16
 471 75 471 75 481 225 c 1,17,-1
 584 225 l 1,18,19
 580 117 580 117 514.5 51 c 128,-1,20
 449 -15 449 -15 326 -15 c 256,21,22
 204 -15 204 -15 137 56.5 c 128,-1,23
 70 128 70 128 70 246 c 2,24,-1
 70 446 l 2,25,0
 70 566 70 566 138 640.5 c 128,-1,1
EndSplineSet
EndUndoOperation
UndoOperation
Index: 2
Type: 3
WasModified: 0
WasOrder2: 1
Layer: 2
EndUndoOperation
EndUndoes
Redoes
EndRedoes
EndUndoRedoHistory
Fore
SplineSet
138 640.5 m 128,-1,1
 206 715 206 715 332 715 c 0,2,3
 452 715 452 715 518 653.5 c 128,-1,4
 584 592 584 592 584 470 c 1,5,-1
 479 470 l 1,6,7
 480 548 480 548 442.5 587 c 128,-1,8
 405 626 405 626 331 626 c 0,9,10
 173 626 173 626 174 445 c 2,11,-1
 174 245 l 2,12,13
 174 160 174 160 215 117.5 c 128,-1,14
 256 75 256 75 330 75 c 0,15,16
 471 75 471 75 481 225 c 1,17,-1
 584 225 l 1,18,19
 580 117 580 117 514.5 51 c 128,-1,20
 449 -15 449 -15 326 -15 c 256,21,22
 204 -15 204 -15 137 56.5 c 128,-1,23
 70 128 70 128 70 246 c 2,24,-1
 70 446 l 2,25,0
 70 566 70 566 138 640.5 c 128,-1,1
EndSplineSet
EndChar

StartChar: Ccedilla
Encoding: 199 199 36
Width: 626
GlyphClass: 2
Flags: W
AnchorPoint: "Anchor-13" 325 704 basechar 0
LayerCount: 2
UndoRedoHistory
Layer: 0
Undoes
UndoOperation
Index: 0
Type: 1
WasModified: 0
WasOrder2: 1
Layer: 2
Width: 501
VWidth: 800
LBearingChange: 0
UnicodeEnc: 0
InstructionsLength: 0
EndUndoOperation
EndUndoes
Redoes
EndRedoes
EndUndoRedoHistory
UndoRedoHistory
Layer: 1
Undoes
UndoOperation
Index: 0
Type: 1
WasModified: 1
WasOrder2: 1
Layer: 2
Width: 626
VWidth: 1000
LBearingChange: 0
UnicodeEnc: 0
InstructionsLength: 0
AnchorPoint: "Anchor-13" 325 704 basechar 0
SplineSet
239 -256 m 1,1,-1
 239 -186 l 1,2,3
 274 -196 274 -196 306 -196 c 0,4,5
 332 -196 332 -196 347 -187.5 c 0,6,7
 362 -178 362 -178 362 -162 c 0,8,9
 362 -144 362 -144 346 -136.5 c 128,-1,10
 330 -129 330 -129 286 -129 c 2,11,-1
 248 -129 l 1,12,-1
 248 -69 l 1,13,-1
 288 1 l 1,14,-1
 245 -10 l 1,15,16
 160 11 160 11 112.5 80.5 c 128,-1,17
 65 150 65 150 65 246 c 2,18,-1
 65 446 l 2,19,20
 65 567 65 567 132.5 641 c 128,-1,21
 200 715 200 715 320 715 c 0,22,23
 436 715 436 715 502 646.5 c 128,-1,24
 568 578 568 578 568 464 c 1,25,-1
 466 464 l 1,26,27
 465 535 465 535 426.5 579.5 c 128,-1,28
 388 624 388 624 320 624 c 0,29,30
 248 624 248 624 208 574 c 128,-1,31
 168 524 168 524 168 445 c 2,32,-1
 168 251 l 2,33,34
 168 172 168 172 208.5 125 c 128,-1,35
 249 78 249 78 320 78 c 0,36,37
 389 78 389 78 429 121.5 c 128,-1,38
 469 165 469 165 471 231 c 1,39,-1
 571 231 l 1,40,41
 569 140 569 140 521.5 75 c 128,-1,42
 474 10 474 10 385 -10 c 1,43,-1
 355 -1 l 1,44,45
 354 -1 354 -1 352 -19 c 1,46,-1
 322 -74 l 1,47,-1
 359 -61 l 1,48,49
 401 -70 401 -70 423.5 -96 c 128,-1,50
 446 -122 446 -122 446 -161 c 0,51,52
 446 -210 446 -210 410 -239.5 c 128,-1,53
 374 -269 374 -269 314 -269 c 0,54,0
 277 -268 277 -268 239 -256 c 1,1,-1
EndSplineSet
EndUndoOperation
UndoOperation
Index: 1
Type: 1
WasModified: 1
WasOrder2: 1
Layer: 2
Width: 626
VWidth: 1000
LBearingChange: 0
UnicodeEnc: 0
InstructionsLength: 0
AnchorPoint: "Anchor-13" 325 704 basechar 0
SplineSet
239 -256 m 1,1,-1
 239 -186 l 1,2,3
 274 -196 274 -196 306 -196 c 0,4,5
 332 -196 332 -196 347 -187.5 c 0,6,7
 362 -178 362 -178 362 -162 c 0,8,9
 362 -144 362 -144 346 -136.5 c 128,-1,10
 330 -129 330 -129 286 -129 c 2,11,-1
 248 -129 l 1,12,-1
 248 -69 l 1,13,-1
 288 1 l 1,14,-1
 245 -10 l 1,15,16
 160 11 160 11 112.5 80.5 c 128,-1,17
 65 150 65 150 65 246 c 2,18,-1
 65 446 l 2,19,20
 65 567 65 567 132.5 641 c 128,-1,21
 200 715 200 715 320 715 c 0,22,23
 436 715 436 715 502 646.5 c 128,-1,24
 568 578 568 578 568 464 c 1,25,-1
 466 464 l 1,26,27
 465 535 465 535 426.5 579.5 c 128,-1,28
 388 624 388 624 320 624 c 0,29,30
 248 624 248 624 208 574 c 128,-1,31
 168 524 168 524 168 445 c 2,32,-1
 168 251 l 2,33,34
 168 172 168 172 208.5 125 c 128,-1,35
 249 78 249 78 320 78 c 0,36,37
 389 78 389 78 429 121.5 c 128,-1,38
 469 165 469 165 471 231 c 1,39,-1
 571 231 l 1,40,41
 569 140 569 140 521.5 75 c 128,-1,42
 474 10 474 10 385 -10 c 1,43,-1
 355 -1 l 1,44,45
 354 -1 354 -1 352 -19 c 1,46,-1
 322 -74 l 1,47,-1
 359 -61 l 1,48,49
 401 -70 401 -70 423.5 -96 c 128,-1,50
 446 -122 446 -122 446 -161 c 0,51,52
 446 -210 446 -210 410 -239.5 c 128,-1,53
 374 -269 374 -269 314 -269 c 0,54,0
 277 -268 277 -268 239 -256 c 1,1,-1
EndSplineSet
EndUndoOperation
UndoOperation
Index: 2
Type: 3
WasModified: 0
WasOrder2: 1
Layer: 2
EndUndoOperation
EndUndoes
Redoes
EndRedoes
EndUndoRedoHistory
Fore
SplineSet
239 -256 m 1,1,-1
 239 -186 l 1,2,3
 274 -196 274 -196 306 -196 c 0,4,5
 332 -196 332 -196 347 -188 c 0,6,7
 362 -178 362 -178 362 -162 c 0,8,9
 362 -144 362 -144 346 -136.5 c 128,-1,10
 330 -129 330 -129 286 -129 c 2,11,-1
 248 -129 l 1,12,-1
 248 -69 l 1,13,-1
 288 1 l 1,14,-1
 245 -10 l 1,15,16
 160 11 160 11 112.5 80.5 c 128,-1,17
 65 150 65 150 65 246 c 2,18,-1
 65 446 l 2,19,20
 65 567 65 567 132.5 641 c 128,-1,21
 200 715 200 715 320 715 c 0,22,23
 436 715 436 715 502 646.5 c 128,-1,24
 568 578 568 578 568 464 c 1,25,-1
 466 464 l 1,26,27
 465 535 465 535 426.5 579.5 c 128,-1,28
 388 624 388 624 320 624 c 0,29,30
 248 624 248 624 208 574 c 128,-1,31
 168 524 168 524 168 445 c 2,32,-1
 168 251 l 2,33,34
 168 172 168 172 208.5 125 c 128,-1,35
 249 78 249 78 320 78 c 0,36,37
 389 78 389 78 429 121.5 c 128,-1,38
 469 165 469 165 471 231 c 1,39,-1
 571 231 l 1,40,41
 569 140 569 140 521.5 75 c 128,-1,42
 474 10 474 10 385 -10 c 1,43,-1
 355 -1 l 1,44,45
 354 -1 354 -1 352 -19 c 1,46,-1
 322 -74 l 1,47,-1
 359 -61 l 1,48,49
 401 -70 401 -70 423.5 -96 c 128,-1,50
 446 -122 446 -122 446 -161 c 0,51,52
 446 -210 446 -210 410 -239.5 c 128,-1,53
 374 -269 374 -269 314 -269 c 0,54,0
 277 -268 277 -268 239 -256 c 1,1,-1
EndSplineSet
EndChar

StartChar: uni0187
Encoding: 391 391 38
Width: 626
GlyphClass: 1
Flags: W
LayerCount: 2
UndoRedoHistory
Layer: 0
Undoes
UndoOperation
Index: 0
Type: 1
WasModified: 0
WasOrder2: 1
Layer: 2
Width: 501
VWidth: 800
LBearingChange: 0
UnicodeEnc: 0
InstructionsLength: 0
EndUndoOperation
EndUndoes
Redoes
EndRedoes
EndUndoRedoHistory
UndoRedoHistory
Layer: 1
Undoes
UndoOperation
Index: 0
Type: 1
WasModified: 1
WasOrder2: 1
Layer: 2
Width: 626
VWidth: 1000
LBearingChange: 0
UnicodeEnc: 0
InstructionsLength: 0
SplineSet
132.5 642 m 128,-1,1
 200 715 200 715 320 715 c 0,2,3
 385 715 385 715 439 695 c 1,4,-1
 476 655 l 1,5,-1
 480 711 l 1,6,7
 502 752 502 752 541.5 771.5 c 0,8,9
 582 791 582 791 628 791 c 2,10,-1
 639 791 l 1,11,12
 639 792 639 792 639 698 c 1,13,-1
 634 698 l 2,14,15
 602 698 602 698 584 674.5 c 128,-1,16
 566 651 566 651 566 605 c 2,17,-1
 566 470 l 1,18,-1
 462 470 l 1,19,20
 460 542 460 542 422.5 583 c 128,-1,21
 385 624 385 624 320 624 c 0,22,23
 250 624 250 624 209.5 576 c 128,-1,24
 169 528 169 528 169 445 c 2,25,-1
 169 245 l 2,26,27
 169 165 169 165 210 121.5 c 128,-1,28
 251 78 251 78 320 78 c 0,29,30
 388 78 388 78 426.5 118.5 c 128,-1,31
 465 159 465 159 470 225 c 1,32,-1
 569 225 l 1,33,34
 565 117 565 117 500 51 c 0,35,36
 436 -15 436 -15 318 -15 c 0,37,38
 198 -15 198 -15 131.5 56.5 c 128,-1,39
 65 128 65 128 65 246 c 2,40,-1
 65 446 l 2,41,0
 65 569 65 569 132.5 642 c 128,-1,1
EndSplineSet
EndUndoOperation
UndoOperation
Index: 1
Type: 1
WasModified: 1
WasOrder2: 1
Layer: 2
Width: 626
VWidth: 1000
LBearingChange: 0
UnicodeEnc: 0
InstructionsLength: 0
SplineSet
132.5 642 m 128,-1,1
 200 715 200 715 320 715 c 0,2,3
 385 715 385 715 439 695 c 1,4,-1
 476 655 l 1,5,-1
 480 711 l 1,6,7
 502 752 502 752 541.5 771.5 c 0,8,9
 582 791 582 791 628 791 c 2,10,-1
 639 791 l 1,11,12
 639 792 639 792 639 698 c 1,13,-1
 634 698 l 2,14,15
 602 698 602 698 584 674.5 c 128,-1,16
 566 651 566 651 566 605 c 2,17,-1
 566 470 l 1,18,-1
 462 470 l 1,19,20
 460 542 460 542 422.5 583 c 128,-1,21
 385 624 385 624 320 624 c 0,22,23
 250 624 250 624 209.5 576 c 128,-1,24
 169 528 169 528 169 445 c 2,25,-1
 169 245 l 2,26,27
 169 165 169 165 210 121.5 c 128,-1,28
 251 78 251 78 320 78 c 0,29,30
 388 78 388 78 426.5 118.5 c 128,-1,31
 465 159 465 159 470 225 c 1,32,-1
 569 225 l 1,33,34
 565 117 565 117 500 51 c 0,35,36
 436 -15 436 -15 318 -15 c 0,37,38
 198 -15 198 -15 131.5 56.5 c 128,-1,39
 65 128 65 128 65 246 c 2,40,-1
 65 446 l 2,41,0
 65 569 65 569 132.5 642 c 128,-1,1
EndSplineSet
EndUndoOperation
UndoOperation
Index: 2
Type: 3
WasModified: 0
WasOrder2: 1
Layer: 2
EndUndoOperation
EndUndoes
Redoes
EndRedoes
EndUndoRedoHistory
Fore
SplineSet
132.5 642 m 128,-1,1
 200 715 200 715 320 715 c 0,2,3
 385 715 385 715 439 695 c 1,4,-1
 476 655 l 1,5,-1
 480 711 l 1,6,7
 502 752 502 752 542 772 c 0,8,9
 582 792 582 792 628 791 c 2,10,-1
 639 791 l 1,11,12
 639 792 639 792 639 698 c 1,13,-1
 634 698 l 2,14,15
 602 698 602 698 584 674.5 c 128,-1,16
 566 651 566 651 566 605 c 2,17,-1
 566 470 l 1,18,-1
 462 470 l 1,19,20
 460 542 460 542 422.5 583 c 128,-1,21
 385 624 385 624 320 624 c 0,22,23
 250 624 250 624 209.5 576 c 128,-1,24
 169 528 169 528 169 445 c 2,25,-1
 169 245 l 2,26,27
 169 165 169 165 210 121.5 c 128,-1,28
 251 78 251 78 320 78 c 0,29,30
 388 78 388 78 426.5 118.5 c 128,-1,31
 465 159 465 159 470 225 c 1,32,-1
 569 225 l 1,33,34
 565 117 565 117 500 51 c 0,35,36
 436 -15 436 -15 318 -15 c 0,37,38
 198 -15 198 -15 131.5 56.5 c 128,-1,39
 65 128 65 128 65 246 c 2,40,-1
 65 446 l 2,41,0
 65 569 65 569 132.5 642 c 128,-1,1
EndSplineSet
EndChar

StartChar: D
Encoding: 68 68 39
Width: 663
GlyphClass: 2
Flags: W
AnchorPoint: "Anchor-15" 302 379 basechar 0
AnchorPoint: "Anchor-14" 301 0 basechar 0
AnchorPoint: "Anchor-13" 306 700 basechar 0
LayerCount: 2
UndoRedoHistory
Layer: 0
Undoes
UndoOperation
Index: 0
Type: 1
WasModified: 0
WasOrder2: 1
Layer: 2
Width: 531
VWidth: 800
LBearingChange: 0
UnicodeEnc: 0
InstructionsLength: 0
EndUndoOperation
EndUndoes
Redoes
EndRedoes
EndUndoRedoHistory
UndoRedoHistory
Layer: 1
Undoes
UndoOperation
Index: 0
Type: 1
WasModified: 1
WasOrder2: 1
Layer: 2
Width: 663
VWidth: 1000
LBearingChange: 0
UnicodeEnc: 0
InstructionsLength: 0
AnchorPoint: "Anchor-15" 302 379 basechar 0
AnchorPoint: "Anchor-14" 301 0 basechar 0
AnchorPoint: "Anchor-13" 306 700 basechar 0
SplineSet
92 700 m 1,0,-1
 290 700 l 2,1,2
 441 700 441 700 518 612.5 c 128,-1,3
 595 525 595 525 595 351 c 0,4,5
 595 171 595 171 518.5 85.5 c 128,-1,6
 442 0 442 0 290 0 c 2,7,-1
 92 0 l 1,8,-1
 92 700 l 1,0,-1
230 90 m 1,9,-1
 296 90 l 2,10,11
 394 90 394 90 442 152.5 c 128,-1,12
 490 215 490 215 490 351 c 0,13,14
 490 480 490 480 441 545.5 c 128,-1,15
 392 611 392 611 296 611 c 2,16,-1
 230 611 l 1,17,18
 230 612 230 612 189 618 c 1,19,-1
 196 575 l 1,20,-1
 196 125 l 1,21,22
 196 124 196 124 189 82 c 1,23,-1
 230 90 l 1,9,-1
EndSplineSet
EndUndoOperation
UndoOperation
Index: 1
Type: 1
WasModified: 1
WasOrder2: 1
Layer: 2
Width: 663
VWidth: 1000
LBearingChange: 0
UnicodeEnc: 0
InstructionsLength: 0
AnchorPoint: "Anchor-15" 302 379 basechar 0
AnchorPoint: "Anchor-14" 301 0 basechar 0
AnchorPoint: "Anchor-13" 306 700 basechar 0
SplineSet
92 700 m 1,0,-1
 290 700 l 2,1,2
 441 700 441 700 518 612.5 c 128,-1,3
 595 525 595 525 595 351 c 0,4,5
 595 171 595 171 518.5 85.5 c 128,-1,6
 442 0 442 0 290 0 c 2,7,-1
 92 0 l 1,8,-1
 92 700 l 1,0,-1
230 90 m 1,9,-1
 296 90 l 2,10,11
 394 90 394 90 442 152.5 c 128,-1,12
 490 215 490 215 490 351 c 0,13,14
 490 480 490 480 441 545.5 c 128,-1,15
 392 611 392 611 296 611 c 2,16,-1
 230 611 l 1,17,18
 230 612 230 612 189 618 c 1,19,-1
 196 575 l 1,20,-1
 196 125 l 1,21,22
 196 124 196 124 189 82 c 1,23,-1
 230 90 l 1,9,-1
EndSplineSet
EndUndoOperation
UndoOperation
Index: 2
Type: 3
WasModified: 0
WasOrder2: 1
Layer: 2
EndUndoOperation
EndUndoes
Redoes
EndRedoes
EndUndoRedoHistory
Fore
SplineSet
92 700 m 1,0,-1
 290 700 l 2,1,2
 441 700 441 700 518 612.5 c 128,-1,3
 595 525 595 525 595 351 c 0,4,5
 595 171 595 171 518.5 85.5 c 128,-1,6
 442 0 442 0 290 0 c 2,7,-1
 92 0 l 1,8,-1
 92 700 l 1,0,-1
230 90 m 1,9,-1
 296 90 l 2,10,11
 394 90 394 90 442 152.5 c 128,-1,12
 490 215 490 215 490 351 c 0,13,14
 490 480 490 480 441 545.5 c 128,-1,15
 392 611 392 611 296 611 c 2,16,-1
 230 611 l 1,17,18
 230 612 230 612 189 618 c 1,19,-1
 196 575 l 1,20,-1
 196 125 l 1,21,22
 196 124 196 124 189 82 c 1,23,-1
 230 90 l 1,9,-1
EndSplineSet
EndChar

StartChar: Eth
Encoding: 208 208 41
Width: 656
GlyphClass: 1
Flags: W
LayerCount: 2
UndoRedoHistory
Layer: 0
Undoes
UndoOperation
Index: 0
Type: 1
WasModified: 0
WasOrder2: 1
Layer: 2
Width: 525
VWidth: 800
LBearingChange: 0
UnicodeEnc: 0
InstructionsLength: 0
EndUndoOperation
EndUndoes
Redoes
EndRedoes
EndUndoRedoHistory
UndoRedoHistory
Layer: 1
Undoes
UndoOperation
Index: 0
Type: 1
WasModified: 1
WasOrder2: 1
Layer: 2
Width: 656
VWidth: 1000
LBearingChange: 0
UnicodeEnc: 0
InstructionsLength: 0
SplineSet
82 276 m 1,0,-1
 95 316 l 1,1,-1
 55 306 l 1,2,3
 54 306 54 306 -8 306 c 1,4,-1
 -8 396 l 1,5,-1
 55 396 l 1,6,-1
 95 389 l 1,7,8
 94 389 94 389 82 429 c 1,9,-1
 82 700 l 1,10,-1
 282 700 l 2,11,12
 432 700 432 700 509 613 c 128,-1,13
 586 526 586 526 586 352 c 0,14,15
 586 0 586 0 282 0 c 2,16,-1
 82 0 l 1,17,-1
 82 276 l 1,0,-1
216 396 m 1,18,-1
 301 396 l 1,19,-1
 301 306 l 1,20,-1
 216 306 l 1,21,-1
 174 318 l 1,22,-1
 185 275 l 1,23,-1
 185 125 l 1,24,-1
 176 81 l 1,25,-1
 220 90 l 1,26,-1
 279 90 l 2,27,28
 381 90 381 90 430 154.5 c 128,-1,29
 479 219 479 219 479 351 c 0,30,31
 479 481 479 481 429.5 545.5 c 128,-1,32
 380 610 380 610 279 610 c 2,33,-1
 220 610 l 1,34,-1
 176 618 l 1,35,-1
 185 574 l 1,36,-1
 185 429 l 1,37,-1
 174 386 l 1,38,-1
 216 396 l 1,18,-1
EndSplineSet
EndUndoOperation
UndoOperation
Index: 1
Type: 1
WasModified: 1
WasOrder2: 1
Layer: 2
Width: 656
VWidth: 1000
LBearingChange: 0
UnicodeEnc: 0
InstructionsLength: 0
SplineSet
82 276 m 1,0,-1
 95 316 l 1,1,-1
 55 306 l 1,2,3
 54 306 54 306 -8 306 c 1,4,-1
 -8 396 l 1,5,-1
 55 396 l 1,6,-1
 95 389 l 1,7,8
 94 389 94 389 82 429 c 1,9,-1
 82 700 l 1,10,-1
 282 700 l 2,11,12
 432 700 432 700 509 613 c 128,-1,13
 586 526 586 526 586 352 c 0,14,15
 586 0 586 0 282 0 c 2,16,-1
 82 0 l 1,17,-1
 82 276 l 1,0,-1
216 396 m 1,18,-1
 301 396 l 1,19,-1
 301 306 l 1,20,-1
 216 306 l 1,21,-1
 174 318 l 1,22,-1
 185 275 l 1,23,-1
 185 125 l 1,24,-1
 176 81 l 1,25,-1
 220 90 l 1,26,-1
 279 90 l 2,27,28
 381 90 381 90 430 154.5 c 128,-1,29
 479 219 479 219 479 351 c 0,30,31
 479 481 479 481 429.5 545.5 c 128,-1,32
 380 610 380 610 279 610 c 2,33,-1
 220 610 l 1,34,-1
 176 618 l 1,35,-1
 185 574 l 1,36,-1
 185 429 l 1,37,-1
 174 386 l 1,38,-1
 216 396 l 1,18,-1
EndSplineSet
EndUndoOperation
UndoOperation
Index: 2
Type: 3
WasModified: 0
WasOrder2: 1
Layer: 2
EndUndoOperation
EndUndoes
Redoes
EndRedoes
EndUndoRedoHistory
Fore
SplineSet
82 276 m 1,0,-1
 95 316 l 1,1,-1
 55 306 l 1,2,3
 54 306 54 306 -8 306 c 1,4,-1
 -8 396 l 1,5,-1
 55 396 l 1,6,-1
 95 389 l 1,7,8
 94 389 94 389 82 429 c 1,9,-1
 82 700 l 1,10,-1
 282 700 l 2,11,12
 432 700 432 700 509 613 c 128,-1,13
 586 526 586 526 586 352 c 0,14,15
 586 0 586 0 282 0 c 2,16,-1
 82 0 l 1,17,-1
 82 276 l 1,0,-1
216 396 m 1,18,-1
 301 396 l 1,19,-1
 301 306 l 1,20,-1
 216 306 l 1,21,-1
 174 318 l 1,22,-1
 185 275 l 1,23,-1
 185 125 l 1,24,-1
 176 81 l 1,25,-1
 220 90 l 1,26,-1
 279 90 l 2,27,28
 381 90 381 90 430 154.5 c 128,-1,29
 479 219 479 219 479 351 c 0,30,31
 479 481 479 481 429.5 545.5 c 128,-1,32
 380 610 380 610 279 610 c 2,33,-1
 220 610 l 1,34,-1
 176 618 l 1,35,-1
 185 574 l 1,36,-1
 185 429 l 1,37,-1
 174 386 l 1,38,-1
 216 396 l 1,18,-1
EndSplineSet
EndChar

StartChar: uni018A
Encoding: 394 394 46
Width: 663
GlyphClass: 2
Flags: W
AnchorPoint: "Anchor-15" 302 379 basechar 0
AnchorPoint: "Anchor-14" 314 0 basechar 0
AnchorPoint: "Anchor-13" 290 700 basechar 0
LayerCount: 2
UndoRedoHistory
Layer: 0
Undoes
UndoOperation
Index: 0
Type: 1
WasModified: 0
WasOrder2: 1
Layer: 2
Width: 531
VWidth: 800
LBearingChange: 0
UnicodeEnc: 0
InstructionsLength: 0
EndUndoOperation
EndUndoes
Redoes
EndRedoes
EndUndoRedoHistory
UndoRedoHistory
Layer: 1
Undoes
UndoOperation
Index: 0
Type: 1
WasModified: 1
WasOrder2: 1
Layer: 2
Width: 663
VWidth: 1000
LBearingChange: 0
UnicodeEnc: 0
InstructionsLength: 0
AnchorPoint: "Anchor-15" 302 379 basechar 0
AnchorPoint: "Anchor-14" 314 0 basechar 0
AnchorPoint: "Anchor-13" 290 700 basechar 0
SplineSet
92 596 m 1,0,-1
 66 596 l 2,1,2
 -22 596 -22 596 -21 515 c 2,3,-1
 -21 510 l 1,4,-1
 -114 510 l 1,5,-1
 -114 521 l 2,6,7
 -114 610 -114 610 -64.5 655 c 128,-1,8
 -15 700 -15 700 66 700 c 2,9,-1
 290 700 l 2,10,11
 441 700 441 700 518 612.5 c 128,-1,12
 595 525 595 525 595 351 c 0,13,14
 595 171 595 171 518.5 85.5 c 128,-1,15
 442 0 442 0 290 0 c 2,16,-1
 92 0 l 1,17,-1
 92 596 l 1,0,-1
230 90 m 1,18,-1
 296 90 l 2,19,20
 394 90 394 90 442 152.5 c 128,-1,21
 490 215 490 215 490 351 c 0,22,23
 490 480 490 480 441 545.5 c 128,-1,24
 392 611 392 611 296 611 c 2,25,-1
 230 611 l 1,26,27
 230 612 230 612 189 618 c 1,28,-1
 196 575 l 1,29,-1
 196 125 l 1,30,31
 196 124 196 124 189 82 c 1,32,-1
 230 90 l 1,18,-1
EndSplineSet
EndUndoOperation
UndoOperation
Index: 1
Type: 1
WasModified: 1
WasOrder2: 1
Layer: 2
Width: 663
VWidth: 1000
LBearingChange: 0
UnicodeEnc: 0
InstructionsLength: 0
AnchorPoint: "Anchor-15" 302 379 basechar 0
AnchorPoint: "Anchor-14" 314 0 basechar 0
AnchorPoint: "Anchor-13" 290 700 basechar 0
SplineSet
92 596 m 1,0,-1
 66 596 l 2,1,2
 -22 596 -22 596 -21 515 c 2,3,-1
 -21 510 l 1,4,-1
 -114 510 l 1,5,-1
 -114 521 l 2,6,7
 -114 610 -114 610 -64.5 655 c 128,-1,8
 -15 700 -15 700 66 700 c 2,9,-1
 290 700 l 2,10,11
 441 700 441 700 518 612.5 c 128,-1,12
 595 525 595 525 595 351 c 0,13,14
 595 171 595 171 518.5 85.5 c 128,-1,15
 442 0 442 0 290 0 c 2,16,-1
 92 0 l 1,17,-1
 92 596 l 1,0,-1
230 90 m 1,18,-1
 296 90 l 2,19,20
 394 90 394 90 442 152.5 c 128,-1,21
 490 215 490 215 490 351 c 0,22,23
 490 480 490 480 441 545.5 c 128,-1,24
 392 611 392 611 296 611 c 2,25,-1
 230 611 l 1,26,27
 230 612 230 612 189 618 c 1,28,-1
 196 575 l 1,29,-1
 196 125 l 1,30,31
 196 124 196 124 189 82 c 1,32,-1
 230 90 l 1,18,-1
EndSplineSet
EndUndoOperation
UndoOperation
Index: 2
Type: 3
WasModified: 0
WasOrder2: 1
Layer: 2
EndUndoOperation
EndUndoes
Redoes
EndRedoes
EndUndoRedoHistory
Fore
SplineSet
92 596 m 1,0,-1
 66 596 l 2,1,2
 -22 596 -22 596 -21 515 c 2,3,-1
 -21 510 l 1,4,-1
 -114 510 l 1,5,-1
 -114 521 l 2,6,7
 -114 610 -114 610 -64.5 655 c 128,-1,8
 -15 700 -15 700 66 700 c 2,9,-1
 290 700 l 2,10,11
 441 700 441 700 518 612.5 c 128,-1,12
 595 525 595 525 595 351 c 0,13,14
 595 171 595 171 518.5 85.5 c 128,-1,15
 442 0 442 0 290 0 c 2,16,-1
 92 0 l 1,17,-1
 92 596 l 1,0,-1
230 90 m 1,18,-1
 296 90 l 2,19,20
 394 90 394 90 442 152.5 c 128,-1,21
 490 215 490 215 490 351 c 0,22,23
 490 480 490 480 441 545.5 c 128,-1,24
 392 611 392 611 296 611 c 2,25,-1
 230 611 l 1,26,27
 230 612 230 612 189 618 c 1,28,-1
 196 575 l 1,29,-1
 196 125 l 1,30,31
 196 124 196 124 189 82 c 1,32,-1
 230 90 l 1,18,-1
EndSplineSet
EndChar

StartChar: E
Encoding: 69 69 48
Width: 590
GlyphClass: 2
Flags: W
AnchorPoint: "Anchor-14" 318 0 basechar 0
AnchorPoint: "Anchor-13" 315 700 basechar 0
AnchorPoint: "Anchor-12" 475 0 basechar 0
LayerCount: 2
UndoRedoHistory
Layer: 0
Undoes
UndoOperation
Index: 0
Type: 1
WasModified: 0
WasOrder2: 1
Layer: 2
Width: 472
VWidth: 800
LBearingChange: 0
UnicodeEnc: 0
InstructionsLength: 0
EndUndoOperation
EndUndoes
Redoes
EndRedoes
EndUndoRedoHistory
UndoRedoHistory
Layer: 1
Undoes
UndoOperation
Index: 0
Type: 1
WasModified: 1
WasOrder2: 1
Layer: 2
Width: 590
VWidth: 1000
LBearingChange: 0
UnicodeEnc: 0
InstructionsLength: 0
AnchorPoint: "Anchor-14" 318 0 basechar 0
AnchorPoint: "Anchor-13" 315 700 basechar 0
AnchorPoint: "Anchor-12" 475 0 basechar 0
SplineSet
92 700 m 1,0,-1
 529 700 l 1,1,-1
 529 611 l 1,2,-1
 225 611 l 1,3,-1
 189 619 l 1,4,5
 189 618 189 618 196 582 c 1,6,-1
 196 434 l 1,7,-1
 188 399 l 1,8,-1
 225 405 l 1,9,-1
 484 405 l 1,10,11
 484 406 484 406 484 318 c 1,12,-1
 225 318 l 1,13,14
 226 318 226 318 188 325 c 1,15,-1
 196 289 l 1,16,-1
 196 115 l 1,17,-1
 189 81 l 1,18,-1
 225 89 l 1,19,20
 224 89 224 89 532 89 c 1,21,-1
 532 0 l 1,22,-1
 92 0 l 1,23,-1
 92 700 l 1,0,-1
EndSplineSet
EndUndoOperation
UndoOperation
Index: 1
Type: 1
WasModified: 1
WasOrder2: 1
Layer: 2
Width: 590
VWidth: 1000
LBearingChange: 0
UnicodeEnc: 0
InstructionsLength: 0
AnchorPoint: "Anchor-14" 318 0 basechar 0
AnchorPoint: "Anchor-13" 315 700 basechar 0
AnchorPoint: "Anchor-12" 475 0 basechar 0
SplineSet
92 700 m 1,0,-1
 529 700 l 1,1,-1
 529 611 l 1,2,-1
 225 611 l 1,3,-1
 189 619 l 1,4,5
 189 618 189 618 196 582 c 1,6,-1
 196 434 l 1,7,-1
 188 399 l 1,8,-1
 225 405 l 1,9,-1
 484 405 l 1,10,11
 484 406 484 406 484 318 c 1,12,-1
 225 318 l 1,13,14
 226 318 226 318 188 325 c 1,15,-1
 196 289 l 1,16,-1
 196 115 l 1,17,-1
 189 81 l 1,18,-1
 225 89 l 1,19,20
 224 89 224 89 532 89 c 1,21,-1
 532 0 l 1,22,-1
 92 0 l 1,23,-1
 92 700 l 1,0,-1
EndSplineSet
EndUndoOperation
UndoOperation
Index: 2
Type: 3
WasModified: 0
WasOrder2: 1
Layer: 2
EndUndoOperation
EndUndoes
Redoes
EndRedoes
EndUndoRedoHistory
Fore
SplineSet
92 700 m 1,0,-1
 529 700 l 1,1,-1
 529 611 l 1,2,-1
 225 611 l 1,3,-1
 189 619 l 1,4,5
 189 618 189 618 196 582 c 1,6,-1
 196 434 l 1,7,-1
 188 399 l 1,8,-1
 225 405 l 1,9,-1
 484 405 l 1,10,11
 484 406 484 406 484 318 c 1,12,-1
 225 318 l 1,13,14
 226 318 226 318 188 325 c 1,15,-1
 196 289 l 1,16,-1
 196 115 l 1,17,-1
 189 81 l 1,18,-1
 225 89 l 1,19,20
 224 89 224 89 532 89 c 1,21,-1
 532 0 l 1,22,-1
 92 0 l 1,23,-1
 92 700 l 1,0,-1
EndSplineSet
EndChar

StartChar: uni0228
Encoding: 552 552 51
Width: 626
GlyphClass: 1
Flags: W
LayerCount: 2
UndoRedoHistory
Layer: 0
Undoes
UndoOperation
Index: 0
Type: 1
WasModified: 0
WasOrder2: 1
Layer: 2
Width: 501
VWidth: 800
LBearingChange: 0
UnicodeEnc: 0
InstructionsLength: 0
EndUndoOperation
EndUndoes
Redoes
EndRedoes
EndUndoRedoHistory
UndoRedoHistory
Layer: 1
Undoes
UndoOperation
Index: 0
Type: 1
WasModified: 1
WasOrder2: 1
Layer: 2
Width: 626
VWidth: 1000
LBearingChange: 0
UnicodeEnc: 0
InstructionsLength: 0
SplineSet
244 -256 m 1,1,-1
 244 -186 l 1,2,3
 279 -196 279 -196 311 -196 c 0,4,5
 366 -196 366 -196 366 -160 c 0,6,7
 366 -144 366 -144 353.5 -136.5 c 0,8,9
 340 -129 340 -129 312 -129 c 2,10,-1
 254 -129 l 1,11,-1
 254 -70 l 1,12,-1
 285 -15 l 1,13,14
 286 -15 286 -15 308 15 c 1,15,-1
 260 0 l 1,16,-1
 109 0 l 1,17,-1
 109 700 l 1,18,-1
 546 700 l 1,19,-1
 546 606 l 1,20,-1
 241 606 l 1,21,-1
 204 615 l 1,22,23
 204 616 204 616 214 578 c 1,24,-1
 214 434 l 1,25,-1
 202 398 l 1,26,-1
 241 405 l 1,27,-1
 500 405 l 1,28,-1
 500 311 l 1,29,-1
 241 311 l 1,30,31
 241 312 241 312 204 318 c 1,32,-1
 214 282 l 1,33,-1
 214 120 l 1,34,-1
 205 85 l 1,35,-1
 241 94 l 1,36,-1
 549 94 l 1,37,-1
 549 0 l 1,38,-1
 395 0 l 1,39,-1
 369 16 l 1,40,-1
 366 -6 l 1,41,-1
 328 -72 l 1,42,-1
 361 -61 l 1,43,44
 406 -70 406 -70 429 -96 c 128,-1,45
 452 -122 452 -122 452 -161 c 0,46,47
 452 -210 452 -210 416 -239.5 c 128,-1,48
 380 -269 380 -269 319 -269 c 0,49,0
 282 -268 282 -268 244 -256 c 1,1,-1
EndSplineSet
EndUndoOperation
UndoOperation
Index: 1
Type: 1
WasModified: 1
WasOrder2: 1
Layer: 2
Width: 626
VWidth: 1000
LBearingChange: 0
UnicodeEnc: 0
InstructionsLength: 0
SplineSet
244 -256 m 1,1,-1
 244 -186 l 1,2,3
 279 -196 279 -196 311 -196 c 0,4,5
 366 -196 366 -196 366 -160 c 0,6,7
 366 -144 366 -144 353.5 -136.5 c 0,8,9
 340 -129 340 -129 312 -129 c 2,10,-1
 254 -129 l 1,11,-1
 254 -70 l 1,12,-1
 285 -15 l 1,13,14
 286 -15 286 -15 308 15 c 1,15,-1
 260 0 l 1,16,-1
 109 0 l 1,17,-1
 109 700 l 1,18,-1
 546 700 l 1,19,-1
 546 606 l 1,20,-1
 241 606 l 1,21,-1
 204 615 l 1,22,23
 204 616 204 616 214 578 c 1,24,-1
 214 434 l 1,25,-1
 202 398 l 1,26,-1
 241 405 l 1,27,-1
 500 405 l 1,28,-1
 500 311 l 1,29,-1
 241 311 l 1,30,31
 241 312 241 312 204 318 c 1,32,-1
 214 282 l 1,33,-1
 214 120 l 1,34,-1
 205 85 l 1,35,-1
 241 94 l 1,36,-1
 549 94 l 1,37,-1
 549 0 l 1,38,-1
 395 0 l 1,39,-1
 369 16 l 1,40,-1
 366 -6 l 1,41,-1
 328 -72 l 1,42,-1
 361 -61 l 1,43,44
 406 -70 406 -70 429 -96 c 128,-1,45
 452 -122 452 -122 452 -161 c 0,46,47
 452 -210 452 -210 416 -239.5 c 128,-1,48
 380 -269 380 -269 319 -269 c 0,49,0
 282 -268 282 -268 244 -256 c 1,1,-1
EndSplineSet
EndUndoOperation
UndoOperation
Index: 2
Type: 3
WasModified: 0
WasOrder2: 1
Layer: 2
EndUndoOperation
EndUndoes
Redoes
EndRedoes
EndUndoRedoHistory
Fore
SplineSet
244 -256 m 1,1,-1
 244 -186 l 1,2,3
 279 -196 279 -196 311 -196 c 0,4,5
 366 -196 366 -196 366 -160 c 0,6,7
 366 -144 366 -144 354 -136 c 0,8,9
 340 -128 340 -128 312 -129 c 2,10,-1
 254 -129 l 1,11,-1
 254 -70 l 1,12,-1
 285 -15 l 1,13,14
 286 -15 286 -15 308 15 c 1,15,-1
 260 0 l 1,16,-1
 109 0 l 1,17,-1
 109 700 l 1,18,-1
 546 700 l 1,19,-1
 546 606 l 1,20,-1
 241 606 l 1,21,-1
 204 615 l 1,22,23
 204 616 204 616 214 578 c 1,24,-1
 214 434 l 1,25,-1
 202 398 l 1,26,-1
 241 405 l 1,27,-1
 500 405 l 1,28,-1
 500 311 l 1,29,-1
 241 311 l 1,30,31
 241 312 241 312 204 318 c 1,32,-1
 214 282 l 1,33,-1
 214 120 l 1,34,-1
 205 85 l 1,35,-1
 241 94 l 1,36,-1
 549 94 l 1,37,-1
 549 0 l 1,38,-1
 395 0 l 1,39,-1
 369 16 l 1,40,-1
 366 -6 l 1,41,-1
 328 -72 l 1,42,-1
 361 -61 l 1,43,44
 406 -70 406 -70 429 -96 c 128,-1,45
 452 -122 452 -122 452 -161 c 0,46,47
 452 -210 452 -210 416 -239.5 c 128,-1,48
 380 -269 380 -269 319 -269 c 0,49,0
 282 -268 282 -268 244 -256 c 1,1,-1
EndSplineSet
EndChar

StartChar: Eogonek
Encoding: 280 280 64
Width: 626
GlyphClass: 2
Flags: W
AnchorPoint: "Anchor-14" 324 0 basechar 0
AnchorPoint: "Anchor-13" 319 700 basechar 0
AnchorPoint: "Anchor-12" 480 0 basechar 0
LayerCount: 2
UndoRedoHistory
Layer: 0
Undoes
UndoOperation
Index: 0
Type: 1
WasModified: 0
WasOrder2: 1
Layer: 2
Width: 501
VWidth: 800
LBearingChange: 0
UnicodeEnc: 0
InstructionsLength: 0
EndUndoOperation
EndUndoes
Redoes
EndRedoes
EndUndoRedoHistory
UndoRedoHistory
Layer: 1
Undoes
UndoOperation
Index: 0
Type: 1
WasModified: 1
WasOrder2: 1
Layer: 2
Width: 626
VWidth: 1000
LBearingChange: 0
UnicodeEnc: 0
InstructionsLength: 0
AnchorPoint: "Anchor-14" 324 0 basechar 0
AnchorPoint: "Anchor-13" 319 700 basechar 0
AnchorPoint: "Anchor-12" 480 0 basechar 0
SplineSet
488 -222 m 0,1,2
 430 -222 430 -222 399 -192 c 128,-1,3
 368 -162 368 -162 368 -116 c 0,4,5
 368 -81 368 -81 383 -53.5 c 128,-1,6
 398 -26 398 -26 432 6 c 2,7,-1
 454 25 l 1,8,-1
 388 0 l 1,9,-1
 96 0 l 1,10,-1
 96 700 l 1,11,-1
 534 700 l 1,12,-1
 534 606 l 1,13,-1
 229 606 l 1,14,-1
 191 615 l 1,15,16
 191 616 191 616 201 578 c 1,17,-1
 201 434 l 1,18,-1
 190 398 l 1,19,-1
 229 405 l 1,20,21
 230 405 230 405 488 405 c 1,22,-1
 488 311 l 1,23,-1
 229 311 l 1,24,-1
 191 319 l 1,25,26
 191 318 191 318 201 282 c 1,27,-1
 201 120 l 1,28,29
 200 120 200 120 192 85 c 1,30,-1
 229 94 l 1,31,-1
 535 94 l 1,32,-1
 535 0 l 1,33,34
 500 -24 500 -24 482.5 -45 c 128,-1,35
 465 -66 465 -66 465 -94 c 0,36,37
 465 -114 465 -114 476.5 -126.5 c 128,-1,38
 488 -139 488 -139 506 -139 c 0,39,40
 514 -140 514 -140 519 -138 c 1,41,-1
 519 -220 l 1,42,0
 497 -222 497 -222 488 -222 c 0,1,2
EndSplineSet
EndUndoOperation
UndoOperation
Index: 1
Type: 1
WasModified: 1
WasOrder2: 1
Layer: 2
Width: 626
VWidth: 1000
LBearingChange: 0
UnicodeEnc: 0
InstructionsLength: 0
AnchorPoint: "Anchor-14" 324 0 basechar 0
AnchorPoint: "Anchor-13" 319 700 basechar 0
AnchorPoint: "Anchor-12" 480 0 basechar 0
SplineSet
488 -222 m 0,1,2
 430 -222 430 -222 399 -192 c 128,-1,3
 368 -162 368 -162 368 -116 c 0,4,5
 368 -81 368 -81 383 -53.5 c 128,-1,6
 398 -26 398 -26 432 6 c 2,7,-1
 454 25 l 1,8,-1
 388 0 l 1,9,-1
 96 0 l 1,10,-1
 96 700 l 1,11,-1
 534 700 l 1,12,-1
 534 606 l 1,13,-1
 229 606 l 1,14,-1
 191 615 l 1,15,16
 191 616 191 616 201 578 c 1,17,-1
 201 434 l 1,18,-1
 190 398 l 1,19,-1
 229 405 l 1,20,21
 230 405 230 405 488 405 c 1,22,-1
 488 311 l 1,23,-1
 229 311 l 1,24,-1
 191 319 l 1,25,26
 191 318 191 318 201 282 c 1,27,-1
 201 120 l 1,28,29
 200 120 200 120 192 85 c 1,30,-1
 229 94 l 1,31,-1
 535 94 l 1,32,-1
 535 0 l 1,33,34
 500 -24 500 -24 482.5 -45 c 128,-1,35
 465 -66 465 -66 465 -94 c 0,36,37
 465 -114 465 -114 476.5 -126.5 c 128,-1,38
 488 -139 488 -139 506 -139 c 0,39,40
 514 -140 514 -140 519 -138 c 1,41,-1
 519 -220 l 1,42,0
 497 -222 497 -222 488 -222 c 0,1,2
EndSplineSet
EndUndoOperation
UndoOperation
Index: 2
Type: 3
WasModified: 0
WasOrder2: 1
Layer: 2
EndUndoOperation
EndUndoes
Redoes
EndRedoes
EndUndoRedoHistory
Fore
SplineSet
488 -222 m 0,1,2
 430 -222 430 -222 399 -192 c 128,-1,3
 368 -162 368 -162 368 -116 c 0,4,5
 368 -81 368 -81 383 -53.5 c 128,-1,6
 398 -26 398 -26 432 6 c 2,7,-1
 454 25 l 1,8,-1
 388 0 l 1,9,-1
 96 0 l 1,10,-1
 96 700 l 1,11,-1
 534 700 l 1,12,-1
 534 606 l 1,13,-1
 229 606 l 1,14,-1
 191 615 l 1,15,16
 191 616 191 616 201 578 c 1,17,-1
 201 434 l 1,18,-1
 190 398 l 1,19,-1
 229 405 l 1,20,21
 230 405 230 405 488 405 c 1,22,-1
 488 311 l 1,23,-1
 229 311 l 1,24,-1
 191 319 l 1,25,26
 191 318 191 318 201 282 c 1,27,-1
 201 120 l 1,28,29
 200 120 200 120 192 85 c 1,30,-1
 229 94 l 1,31,-1
 535 94 l 1,32,-1
 535 0 l 1,33,34
 500 -24 500 -24 482.5 -45 c 128,-1,35
 465 -66 465 -66 465 -94 c 0,36,37
 465 -114 465 -114 476.5 -126.5 c 128,-1,38
 488 -139 488 -139 506 -139 c 0,39,40
 514 -140 514 -140 519 -138 c 1,41,-1
 519 -220 l 1,42,0
 497 -222 497 -222 488 -222 c 0,1,2
EndSplineSet
EndChar

StartChar: uni0190
Encoding: 400 400 65
Width: 615
GlyphClass: 2
Flags: W
AnchorPoint: "Anchor-14" 298 0 basechar 0
AnchorPoint: "Anchor-13" 301 700 basechar 0
LayerCount: 2
UndoRedoHistory
Layer: 0
Undoes
UndoOperation
Index: 0
Type: 1
WasModified: 0
WasOrder2: 1
Layer: 2
Width: 492
VWidth: 800
LBearingChange: 0
UnicodeEnc: 0
InstructionsLength: 0
EndUndoOperation
EndUndoes
Redoes
EndRedoes
EndUndoRedoHistory
UndoRedoHistory
Layer: 1
Undoes
UndoOperation
Index: 0
Type: 1
WasModified: 1
WasOrder2: 1
Layer: 2
Width: 615
VWidth: 1000
LBearingChange: 0
UnicodeEnc: 0
InstructionsLength: 0
AnchorPoint: "Anchor-14" 298 0 basechar 0
AnchorPoint: "Anchor-13" 301 700 basechar 0
SplineSet
482.5 40 m 128,-1,1
 416 -12 416 -12 312 -12 c 0,2,3
 202 -12 202 -12 130.5 42 c 128,-1,4
 59 96 59 96 59 194 c 0,5,6
 59 264 59 264 102.5 309.5 c 128,-1,7
 146 355 146 355 210 365 c 2,8,9
 210 366 210 366 224 368 c 1,10,-1
 212 370 l 2,11,12
 151 385 151 385 114.5 427 c 0,13,14
 78 468 78 468 78 532 c 0,15,16
 78 613 78 613 140 663.5 c 128,-1,17
 202 714 202 714 305 714 c 0,18,19
 401 714 401 714 464.5 662.5 c 128,-1,20
 528 611 528 611 536 524 c 1,21,-1
 438 524 l 1,22,23
 432 570 432 570 396.5 597.5 c 0,24,25
 362 625 362 625 308 625 c 0,26,27
 252 625 252 625 217 596.5 c 128,-1,28
 182 568 182 568 182 518 c 0,29,30
 182 463 182 463 220 434 c 128,-1,31
 258 405 258 405 326 405 c 2,32,-1
 385 405 l 1,33,-1
 385 319 l 1,34,35
 384 319 384 319 312 319 c 2,36,37
 243 319 243 319 202.5 289 c 0,38,39
 162 260 162 260 162 198 c 0,40,41
 162 142 162 142 202 108.5 c 128,-1,42
 242 75 242 75 308 75 c 0,43,44
 370 75 370 75 409 106.5 c 128,-1,45
 448 138 448 138 454 181 c 1,46,-1
 556 181 l 1,47,0
 549 92 549 92 482.5 40 c 128,-1,1
EndSplineSet
EndUndoOperation
UndoOperation
Index: 1
Type: 1
WasModified: 1
WasOrder2: 1
Layer: 2
Width: 615
VWidth: 1000
LBearingChange: 0
UnicodeEnc: 0
InstructionsLength: 0
AnchorPoint: "Anchor-14" 298 0 basechar 0
AnchorPoint: "Anchor-13" 301 700 basechar 0
SplineSet
482.5 40 m 128,-1,1
 416 -12 416 -12 312 -12 c 0,2,3
 202 -12 202 -12 130.5 42 c 128,-1,4
 59 96 59 96 59 194 c 0,5,6
 59 264 59 264 102.5 309.5 c 128,-1,7
 146 355 146 355 210 365 c 2,8,9
 210 366 210 366 224 368 c 1,10,-1
 212 370 l 2,11,12
 151 385 151 385 114.5 427 c 0,13,14
 78 468 78 468 78 532 c 0,15,16
 78 613 78 613 140 663.5 c 128,-1,17
 202 714 202 714 305 714 c 0,18,19
 401 714 401 714 464.5 662.5 c 128,-1,20
 528 611 528 611 536 524 c 1,21,-1
 438 524 l 1,22,23
 432 570 432 570 396.5 597.5 c 0,24,25
 362 625 362 625 308 625 c 0,26,27
 252 625 252 625 217 596.5 c 128,-1,28
 182 568 182 568 182 518 c 0,29,30
 182 463 182 463 220 434 c 128,-1,31
 258 405 258 405 326 405 c 2,32,-1
 385 405 l 1,33,-1
 385 319 l 1,34,35
 384 319 384 319 312 319 c 2,36,37
 243 319 243 319 202.5 289 c 0,38,39
 162 260 162 260 162 198 c 0,40,41
 162 142 162 142 202 108.5 c 128,-1,42
 242 75 242 75 308 75 c 0,43,44
 370 75 370 75 409 106.5 c 128,-1,45
 448 138 448 138 454 181 c 1,46,-1
 556 181 l 1,47,0
 549 92 549 92 482.5 40 c 128,-1,1
EndSplineSet
EndUndoOperation
UndoOperation
Index: 2
Type: 3
WasModified: 0
WasOrder2: 1
Layer: 2
EndUndoOperation
EndUndoes
Redoes
EndRedoes
EndUndoRedoHistory
Fore
SplineSet
482.5 40 m 128,-1,1
 416 -12 416 -12 312 -12 c 0,2,3
 202 -12 202 -12 130.5 42 c 128,-1,4
 59 96 59 96 59 194 c 0,5,6
 59 264 59 264 102.5 309.5 c 128,-1,7
 146 355 146 355 210 365 c 2,8,9
 210 366 210 366 224 368 c 1,10,-1
 212 370 l 2,11,12
 150 385 150 385 114 427 c 0,13,14
 78 468 78 468 78 532 c 0,15,16
 78 613 78 613 140 663.5 c 128,-1,17
 202 714 202 714 305 714 c 0,18,19
 401 714 401 714 464.5 662.5 c 128,-1,20
 528 611 528 611 536 524 c 1,21,-1
 438 524 l 1,22,23
 432 570 432 570 396 598 c 0,24,25
 362 626 362 626 308 625 c 0,26,27
 252 625 252 625 217 596.5 c 128,-1,28
 182 568 182 568 182 518 c 0,29,30
 182 463 182 463 220 434 c 128,-1,31
 258 405 258 405 326 405 c 2,32,-1
 385 405 l 1,33,-1
 385 319 l 1,34,35
 384 319 384 319 312 319 c 2,36,37
 242 319 242 319 202 289 c 0,38,39
 162 260 162 260 162 198 c 0,40,41
 162 142 162 142 202 108.5 c 128,-1,42
 242 75 242 75 308 75 c 0,43,44
 370 75 370 75 409 106.5 c 128,-1,45
 448 138 448 138 454 181 c 1,46,-1
 556 181 l 1,47,0
 549 92 549 92 482.5 40 c 128,-1,1
EndSplineSet
EndChar

StartChar: uni018E
Encoding: 398 398 66
Width: 590
GlyphClass: 2
Flags: W
AnchorPoint: "Anchor-14" 272 0 basechar 0
AnchorPoint: "Anchor-13" 275 700 basechar 0
AnchorPoint: "Anchor-12" 114 0 basechar 0
LayerCount: 2
UndoRedoHistory
Layer: 0
Undoes
UndoOperation
Index: 0
Type: 1
WasModified: 0
WasOrder2: 1
Layer: 2
Width: 472
VWidth: 800
LBearingChange: 0
UnicodeEnc: 0
InstructionsLength: 0
EndUndoOperation
EndUndoes
Redoes
EndRedoes
EndUndoRedoHistory
UndoRedoHistory
Layer: 1
Undoes
UndoOperation
Index: 0
Type: 1
WasModified: 1
WasOrder2: 1
Layer: 2
Width: 590
VWidth: 1000
LBearingChange: 0
UnicodeEnc: 0
InstructionsLength: 0
AnchorPoint: "Anchor-14" 272 0 basechar 0
AnchorPoint: "Anchor-13" 275 700 basechar 0
AnchorPoint: "Anchor-12" 114 0 basechar 0
SplineSet
58 0 m 1,0,-1
 58 89 l 1,1,-1
 365 89 l 1,2,-1
 401 81 l 1,3,-1
 394 115 l 1,4,-1
 394 289 l 1,5,-1
 402 325 l 1,6,7
 402 326 402 326 365 318 c 1,8,-1
 106 318 l 1,9,-1
 106 405 l 1,10,-1
 365 405 l 1,11,12
 364 405 364 405 402 399 c 1,13,-1
 394 434 l 1,14,-1
 394 582 l 1,15,-1
 401 619 l 1,16,-1
 365 611 l 1,17,-1
 61 611 l 1,18,-1
 61 700 l 1,19,20
 62 700 62 700 498 700 c 1,21,-1
 498 0 l 1,22,-1
 58 0 l 1,0,-1
EndSplineSet
EndUndoOperation
UndoOperation
Index: 1
Type: 1
WasModified: 1
WasOrder2: 1
Layer: 2
Width: 590
VWidth: 1000
LBearingChange: 0
UnicodeEnc: 0
InstructionsLength: 0
AnchorPoint: "Anchor-14" 272 0 basechar 0
AnchorPoint: "Anchor-13" 275 700 basechar 0
AnchorPoint: "Anchor-12" 114 0 basechar 0
SplineSet
58 0 m 1,0,-1
 58 89 l 1,1,-1
 365 89 l 1,2,-1
 401 81 l 1,3,-1
 394 115 l 1,4,-1
 394 289 l 1,5,-1
 402 325 l 1,6,7
 402 326 402 326 365 318 c 1,8,-1
 106 318 l 1,9,-1
 106 405 l 1,10,-1
 365 405 l 1,11,12
 364 405 364 405 402 399 c 1,13,-1
 394 434 l 1,14,-1
 394 582 l 1,15,-1
 401 619 l 1,16,-1
 365 611 l 1,17,-1
 61 611 l 1,18,-1
 61 700 l 1,19,20
 62 700 62 700 498 700 c 1,21,-1
 498 0 l 1,22,-1
 58 0 l 1,0,-1
EndSplineSet
EndUndoOperation
UndoOperation
Index: 2
Type: 3
WasModified: 0
WasOrder2: 1
Layer: 2
EndUndoOperation
EndUndoes
Redoes
EndRedoes
EndUndoRedoHistory
Fore
SplineSet
58 0 m 1,0,-1
 58 89 l 1,1,-1
 365 89 l 1,2,-1
 401 81 l 1,3,-1
 394 115 l 1,4,-1
 394 289 l 1,5,-1
 402 325 l 1,6,7
 402 326 402 326 365 318 c 1,8,-1
 106 318 l 1,9,-1
 106 405 l 1,10,-1
 365 405 l 1,11,12
 364 405 364 405 402 399 c 1,13,-1
 394 434 l 1,14,-1
 394 582 l 1,15,-1
 401 619 l 1,16,-1
 365 611 l 1,17,-1
 61 611 l 1,18,-1
 61 700 l 1,19,20
 62 700 62 700 498 700 c 1,21,-1
 498 0 l 1,22,-1
 58 0 l 1,0,-1
EndSplineSet
EndChar

StartChar: F
Encoding: 70 70 71
Width: 550
GlyphClass: 2
Flags: W
AnchorPoint: "Anchor-14" 144 0 basechar 0
AnchorPoint: "Anchor-13" 289 709 basechar 0
LayerCount: 2
UndoRedoHistory
Layer: 0
Undoes
UndoOperation
Index: 0
Type: 1
WasModified: 0
WasOrder2: 1
Layer: 2
Width: 440
VWidth: 800
LBearingChange: 0
UnicodeEnc: 0
InstructionsLength: 0
EndUndoOperation
EndUndoes
Redoes
EndRedoes
EndUndoRedoHistory
UndoRedoHistory
Layer: 1
Undoes
UndoOperation
Index: 0
Type: 1
WasModified: 1
WasOrder2: 1
Layer: 2
Width: 550
VWidth: 1000
LBearingChange: 0
UnicodeEnc: 0
InstructionsLength: 0
AnchorPoint: "Anchor-14" 144 0 basechar 0
AnchorPoint: "Anchor-13" 289 709 basechar 0
SplineSet
92 700 m 1,0,-1
 526 700 l 1,1,-1
 526 611 l 1,2,-1
 225 611 l 1,3,4
 226 611 226 611 188 619 c 1,5,-1
 196 580 l 1,6,-1
 196 418 l 1,7,-1
 186 380 l 1,8,-1
 225 386 l 1,9,-1
 469 386 l 1,10,-1
 469 301 l 1,11,-1
 225 301 l 1,12,13
 225 302 225 302 186 308 c 1,14,-1
 196 269 l 1,15,-1
 196 0 l 1,16,-1
 92 0 l 1,17,-1
 92 700 l 1,0,-1
EndSplineSet
EndUndoOperation
UndoOperation
Index: 1
Type: 1
WasModified: 1
WasOrder2: 1
Layer: 2
Width: 550
VWidth: 1000
LBearingChange: 0
UnicodeEnc: 0
InstructionsLength: 0
AnchorPoint: "Anchor-14" 144 0 basechar 0
AnchorPoint: "Anchor-13" 289 709 basechar 0
SplineSet
92 700 m 1,0,-1
 526 700 l 1,1,-1
 526 611 l 1,2,-1
 225 611 l 1,3,4
 226 611 226 611 188 619 c 1,5,-1
 196 580 l 1,6,-1
 196 418 l 1,7,-1
 186 380 l 1,8,-1
 225 386 l 1,9,-1
 469 386 l 1,10,-1
 469 301 l 1,11,-1
 225 301 l 1,12,13
 225 302 225 302 186 308 c 1,14,-1
 196 269 l 1,15,-1
 196 0 l 1,16,-1
 92 0 l 1,17,-1
 92 700 l 1,0,-1
EndSplineSet
EndUndoOperation
UndoOperation
Index: 2
Type: 3
WasModified: 0
WasOrder2: 1
Layer: 2
EndUndoOperation
EndUndoes
Redoes
EndRedoes
EndUndoRedoHistory
Fore
SplineSet
92 700 m 1,0,-1
 526 700 l 1,1,-1
 526 611 l 1,2,-1
 225 611 l 1,3,4
 226 611 226 611 188 619 c 1,5,-1
 196 580 l 1,6,-1
 196 418 l 1,7,-1
 186 380 l 1,8,-1
 225 386 l 1,9,-1
 469 386 l 1,10,-1
 469 301 l 1,11,-1
 225 301 l 1,12,13
 225 302 225 302 186 308 c 1,14,-1
 196 269 l 1,15,-1
 196 0 l 1,16,-1
 92 0 l 1,17,-1
 92 700 l 1,0,-1
EndSplineSet
EndChar

StartChar: uni0191
Encoding: 401 401 72
Width: 626
GlyphClass: 2
Flags: W
AnchorPoint: "Anchor-14" 144 0 basechar 0
AnchorPoint: "Anchor-13" 289 709 basechar 0
LayerCount: 2
UndoRedoHistory
Layer: 0
Undoes
UndoOperation
Index: 0
Type: 1
WasModified: 0
WasOrder2: 1
Layer: 2
Width: 501
VWidth: 800
LBearingChange: 0
UnicodeEnc: 0
InstructionsLength: 0
EndUndoOperation
EndUndoes
Redoes
EndRedoes
EndUndoRedoHistory
UndoRedoHistory
Layer: 1
Undoes
UndoOperation
Index: 0
Type: 1
WasModified: 1
WasOrder2: 1
Layer: 2
Width: 626
VWidth: 1000
LBearingChange: 0
UnicodeEnc: 0
InstructionsLength: 0
AnchorPoint: "Anchor-14" 144 0 basechar 0
AnchorPoint: "Anchor-13" 289 709 basechar 0
SplineSet
526 700 m 1,0,-1
 526 611 l 1,1,-1
 225 611 l 1,2,3
 226 611 226 611 188 619 c 1,4,-1
 196 580 l 1,5,-1
 196 418 l 1,6,-1
 186 380 l 1,7,-1
 225 386 l 1,8,-1
 469 386 l 1,9,-1
 469 301 l 1,10,-1
 225 301 l 1,11,12
 225 302 225 302 186 308 c 1,13,-1
 196 269 l 1,14,-1
 196 -40 l 2,15,16
 196 -121 196 -121 151 -170.5 c 128,-1,17
 106 -220 106 -220 18 -220 c 2,18,-1
 6 -220 l 1,19,-1
 6 -128 l 1,20,-1
 11 -128 l 2,21,22
 92 -128 92 -128 92 -40 c 2,23,-1
 92 700 l 1,24,-1
 526 700 l 1,0,-1
EndSplineSet
EndUndoOperation
UndoOperation
Index: 1
Type: 1
WasModified: 1
WasOrder2: 1
Layer: 2
Width: 626
VWidth: 1000
LBearingChange: 0
UnicodeEnc: 0
InstructionsLength: 0
AnchorPoint: "Anchor-14" 144 0 basechar 0
AnchorPoint: "Anchor-13" 289 709 basechar 0
SplineSet
526 700 m 1,0,-1
 526 611 l 1,1,-1
 225 611 l 1,2,3
 226 611 226 611 188 619 c 1,4,-1
 196 580 l 1,5,-1
 196 418 l 1,6,-1
 186 380 l 1,7,-1
 225 386 l 1,8,-1
 469 386 l 1,9,-1
 469 301 l 1,10,-1
 225 301 l 1,11,12
 225 302 225 302 186 308 c 1,13,-1
 196 269 l 1,14,-1
 196 -40 l 2,15,16
 196 -121 196 -121 151 -170.5 c 128,-1,17
 106 -220 106 -220 18 -220 c 2,18,-1
 6 -220 l 1,19,-1
 6 -128 l 1,20,-1
 11 -128 l 2,21,22
 92 -128 92 -128 92 -40 c 2,23,-1
 92 700 l 1,24,-1
 526 700 l 1,0,-1
EndSplineSet
EndUndoOperation
UndoOperation
Index: 2
Type: 3
WasModified: 0
WasOrder2: 1
Layer: 2
EndUndoOperation
EndUndoes
Redoes
EndRedoes
EndUndoRedoHistory
Fore
SplineSet
526 700 m 1,0,-1
 526 611 l 1,1,-1
 225 611 l 1,2,3
 226 611 226 611 188 619 c 1,4,-1
 196 580 l 1,5,-1
 196 418 l 1,6,-1
 186 380 l 1,7,-1
 225 386 l 1,8,-1
 469 386 l 1,9,-1
 469 301 l 1,10,-1
 225 301 l 1,11,12
 225 302 225 302 186 308 c 1,13,-1
 196 269 l 1,14,-1
 196 -40 l 2,15,16
 196 -121 196 -121 151 -170.5 c 128,-1,17
 106 -220 106 -220 18 -220 c 2,18,-1
 6 -220 l 1,19,-1
 6 -128 l 1,20,-1
 11 -128 l 2,21,22
 92 -128 92 -128 92 -40 c 2,23,-1
 92 700 l 1,24,-1
 526 700 l 1,0,-1
EndSplineSet
EndChar

StartChar: G
Encoding: 71 71 73
Width: 648
GlyphClass: 2
Flags: W
AnchorPoint: "Anchor-14" 334 0 basechar 0
AnchorPoint: "Anchor-13" 332 704 basechar 0
LayerCount: 2
UndoRedoHistory
Layer: 0
Undoes
UndoOperation
Index: 0
Type: 1
WasModified: 0
WasOrder2: 1
Layer: 2
Width: 519
VWidth: 800
LBearingChange: 0
UnicodeEnc: 0
InstructionsLength: 0
EndUndoOperation
EndUndoes
Redoes
EndRedoes
EndUndoRedoHistory
UndoRedoHistory
Layer: 1
Undoes
UndoOperation
Index: 0
Type: 1
WasModified: 1
WasOrder2: 1
Layer: 2
Width: 648
VWidth: 1000
LBearingChange: 0
UnicodeEnc: 0
InstructionsLength: 0
AnchorPoint: "Anchor-14" 334 0 basechar 0
AnchorPoint: "Anchor-13" 332 704 basechar 0
SplineSet
142 645.5 m 128,-1,1
 214 715 214 715 335 715 c 0,2,3
 447 715 447 715 511.5 657 c 128,-1,4
 576 599 576 599 579 480 c 1,5,-1
 474 480 l 1,6,7
 472 562 472 562 435.5 594 c 128,-1,8
 399 626 399 626 330 626 c 0,9,10
 255 626 255 626 214.5 587.5 c 128,-1,11
 174 549 174 549 174 449 c 2,12,-1
 174 246 l 2,13,14
 174 156 174 156 216.5 114 c 128,-1,15
 259 72 259 72 330 72 c 0,16,17
 479 72 479 72 479 222 c 2,18,-1
 479 248 l 1,19,-1
 490 289 l 1,20,-1
 449 281 l 1,21,-1
 326 281 l 1,22,-1
 326 369 l 1,23,-1
 579 369 l 1,24,25
 579 368 579 368 579 232 c 2,26,27
 579 118 579 118 512 51.5 c 0,28,29
 444 -15 444 -15 332 -15 c 0,30,31
 208 -15 208 -15 139 53 c 0,32,33
 70 122 70 122 70 258 c 2,34,-1
 70 444 l 2,35,0
 70 576 70 576 142 645.5 c 128,-1,1
EndSplineSet
EndUndoOperation
UndoOperation
Index: 1
Type: 1
WasModified: 1
WasOrder2: 1
Layer: 2
Width: 648
VWidth: 1000
LBearingChange: 0
UnicodeEnc: 0
InstructionsLength: 0
AnchorPoint: "Anchor-14" 334 0 basechar 0
AnchorPoint: "Anchor-13" 332 704 basechar 0
SplineSet
142 645.5 m 128,-1,1
 214 715 214 715 335 715 c 0,2,3
 447 715 447 715 511.5 657 c 128,-1,4
 576 599 576 599 579 480 c 1,5,-1
 474 480 l 1,6,7
 472 562 472 562 435.5 594 c 128,-1,8
 399 626 399 626 330 626 c 0,9,10
 255 626 255 626 214.5 587.5 c 128,-1,11
 174 549 174 549 174 449 c 2,12,-1
 174 246 l 2,13,14
 174 156 174 156 216.5 114 c 128,-1,15
 259 72 259 72 330 72 c 0,16,17
 479 72 479 72 479 222 c 2,18,-1
 479 248 l 1,19,-1
 490 289 l 1,20,-1
 449 281 l 1,21,-1
 326 281 l 1,22,-1
 326 369 l 1,23,-1
 579 369 l 1,24,25
 579 368 579 368 579 232 c 2,26,27
 579 118 579 118 512 51.5 c 0,28,29
 444 -15 444 -15 332 -15 c 0,30,31
 208 -15 208 -15 139 53 c 0,32,33
 70 122 70 122 70 258 c 2,34,-1
 70 444 l 2,35,0
 70 576 70 576 142 645.5 c 128,-1,1
EndSplineSet
EndUndoOperation
UndoOperation
Index: 2
Type: 3
WasModified: 0
WasOrder2: 1
Layer: 2
EndUndoOperation
EndUndoes
Redoes
EndRedoes
EndUndoRedoHistory
Fore
SplineSet
142 645.5 m 128,-1,1
 214 715 214 715 335 715 c 0,2,3
 447 715 447 715 511.5 657 c 128,-1,4
 576 599 576 599 579 480 c 1,5,-1
 474 480 l 1,6,7
 472 562 472 562 435.5 594 c 128,-1,8
 399 626 399 626 330 626 c 0,9,10
 255 626 255 626 214.5 587.5 c 128,-1,11
 174 549 174 549 174 449 c 2,12,-1
 174 246 l 2,13,14
 174 156 174 156 216.5 114 c 128,-1,15
 259 72 259 72 330 72 c 0,16,17
 479 72 479 72 479 222 c 2,18,-1
 479 248 l 1,19,-1
 490 289 l 1,20,-1
 449 281 l 1,21,-1
 326 281 l 1,22,-1
 326 369 l 1,23,-1
 579 369 l 1,24,25
 579 368 579 368 579 232 c 2,26,27
 579 118 579 118 512 52 c 0,28,29
 444 -14 444 -14 332 -15 c 0,30,31
 208 -15 208 -15 139 53 c 0,32,33
 70 122 70 122 70 258 c 2,34,-1
 70 444 l 2,35,0
 70 576 70 576 142 645.5 c 128,-1,1
EndSplineSet
EndChar

StartChar: uni0193
Encoding: 403 403 78
Width: 626
GlyphClass: 2
Flags: W
AnchorPoint: "Anchor-14" 314 0 basechar 0
AnchorPoint: "Anchor-13" 314 700 basechar 0
LayerCount: 2
UndoRedoHistory
Layer: 0
Undoes
UndoOperation
Index: 0
Type: 1
WasModified: 0
WasOrder2: 1
Layer: 2
Width: 501
VWidth: 800
LBearingChange: 0
UnicodeEnc: 0
InstructionsLength: 0
EndUndoOperation
EndUndoes
Redoes
EndRedoes
EndUndoRedoHistory
UndoRedoHistory
Layer: 1
Undoes
UndoOperation
Index: 0
Type: 1
WasModified: 1
WasOrder2: 1
Layer: 2
Width: 626
VWidth: 1000
LBearingChange: 0
UnicodeEnc: 0
InstructionsLength: 0
AnchorPoint: "Anchor-14" 314 0 basechar 0
AnchorPoint: "Anchor-13" 314 700 basechar 0
SplineSet
128 648 m 128,-1,1
 198 715 198 715 321 715 c 0,2,3
 400 715 400 715 446 686 c 1,4,-1
 491 618 l 1,5,-1
 484 699 l 1,6,7
 499 738 499 738 540.5 763 c 128,-1,8
 582 788 582 788 642 788 c 2,9,-1
 654 788 l 1,10,-1
 654 694 l 1,11,-1
 648 694 l 2,12,13
 568 694 568 694 568 610 c 2,14,-1
 568 480 l 1,15,-1
 462 480 l 1,16,17
 460 541 460 541 420 580.5 c 128,-1,18
 380 620 380 620 318 620 c 0,19,20
 247 620 247 620 204 577 c 128,-1,21
 161 534 161 534 161 449 c 2,22,-1
 161 246 l 2,23,24
 161 164 161 164 204.5 122 c 128,-1,25
 248 80 248 80 318 80 c 256,26,27
 388 80 388 80 428 120 c 128,-1,28
 468 160 468 160 468 222 c 2,29,-1
 468 246 l 1,30,-1
 488 296 l 1,31,-1
 436 281 l 1,32,-1
 314 281 l 1,33,-1
 314 369 l 1,34,-1
 568 369 l 1,35,36
 568 368 568 368 568 232 c 2,37,38
 568 120 568 120 500 52.5 c 128,-1,39
 432 -15 432 -15 320 -15 c 0,40,41
 198 -15 198 -15 128 55.5 c 128,-1,42
 58 126 58 126 58 258 c 2,43,-1
 58 444 l 2,44,0
 58 581 58 581 128 648 c 128,-1,1
EndSplineSet
EndUndoOperation
UndoOperation
Index: 1
Type: 1
WasModified: 1
WasOrder2: 1
Layer: 2
Width: 626
VWidth: 1000
LBearingChange: 0
UnicodeEnc: 0
InstructionsLength: 0
AnchorPoint: "Anchor-14" 314 0 basechar 0
AnchorPoint: "Anchor-13" 314 700 basechar 0
SplineSet
128 648 m 128,-1,1
 198 715 198 715 321 715 c 0,2,3
 400 715 400 715 446 686 c 1,4,-1
 491 618 l 1,5,-1
 484 699 l 1,6,7
 499 738 499 738 540.5 763 c 128,-1,8
 582 788 582 788 642 788 c 2,9,-1
 654 788 l 1,10,-1
 654 694 l 1,11,-1
 648 694 l 2,12,13
 568 694 568 694 568 610 c 2,14,-1
 568 480 l 1,15,-1
 462 480 l 1,16,17
 460 541 460 541 420 580.5 c 128,-1,18
 380 620 380 620 318 620 c 0,19,20
 247 620 247 620 204 577 c 128,-1,21
 161 534 161 534 161 449 c 2,22,-1
 161 246 l 2,23,24
 161 164 161 164 204.5 122 c 128,-1,25
 248 80 248 80 318 80 c 256,26,27
 388 80 388 80 428 120 c 128,-1,28
 468 160 468 160 468 222 c 2,29,-1
 468 246 l 1,30,-1
 488 296 l 1,31,-1
 436 281 l 1,32,-1
 314 281 l 1,33,-1
 314 369 l 1,34,-1
 568 369 l 1,35,36
 568 368 568 368 568 232 c 2,37,38
 568 120 568 120 500 52.5 c 128,-1,39
 432 -15 432 -15 320 -15 c 0,40,41
 198 -15 198 -15 128 55.5 c 128,-1,42
 58 126 58 126 58 258 c 2,43,-1
 58 444 l 2,44,0
 58 581 58 581 128 648 c 128,-1,1
EndSplineSet
EndUndoOperation
UndoOperation
Index: 2
Type: 3
WasModified: 0
WasOrder2: 1
Layer: 2
EndUndoOperation
EndUndoes
Redoes
EndRedoes
EndUndoRedoHistory
Fore
SplineSet
128 648 m 128,-1,1
 198 715 198 715 321 715 c 0,2,3
 400 715 400 715 446 686 c 1,4,-1
 491 618 l 1,5,-1
 484 699 l 1,6,7
 499 738 499 738 540.5 763 c 128,-1,8
 582 788 582 788 642 788 c 2,9,-1
 654 788 l 1,10,-1
 654 694 l 1,11,-1
 648 694 l 2,12,13
 568 694 568 694 568 610 c 2,14,-1
 568 480 l 1,15,-1
 462 480 l 1,16,17
 460 541 460 541 420 580.5 c 128,-1,18
 380 620 380 620 318 620 c 0,19,20
 247 620 247 620 204 577 c 128,-1,21
 161 534 161 534 161 449 c 2,22,-1
 161 246 l 2,23,24
 161 164 161 164 204.5 122 c 128,-1,25
 248 80 248 80 318 80 c 256,26,27
 388 80 388 80 428 120 c 128,-1,28
 468 160 468 160 468 222 c 2,29,-1
 468 246 l 1,30,-1
 488 296 l 1,31,-1
 436 281 l 1,32,-1
 314 281 l 1,33,-1
 314 369 l 1,34,-1
 568 369 l 1,35,36
 568 368 568 368 568 232 c 2,37,38
 568 120 568 120 500 52.5 c 128,-1,39
 432 -15 432 -15 320 -15 c 0,40,41
 198 -15 198 -15 128 55.5 c 128,-1,42
 58 126 58 126 58 258 c 2,43,-1
 58 444 l 2,44,0
 58 581 58 581 128 648 c 128,-1,1
EndSplineSet
EndChar

StartChar: H
Encoding: 72 72 79
Width: 698
GlyphClass: 2
Flags: W
AnchorPoint: "Anchor-15" 350 438 basechar 0
AnchorPoint: "Anchor-14" 349 0 basechar 0
AnchorPoint: "Anchor-13" 348 700 basechar 0
LayerCount: 2
UndoRedoHistory
Layer: 0
Undoes
UndoOperation
Index: 0
Type: 1
WasModified: 0
WasOrder2: 1
Layer: 2
Width: 559
VWidth: 800
LBearingChange: 0
UnicodeEnc: 0
InstructionsLength: 0
EndUndoOperation
EndUndoes
Redoes
EndRedoes
EndUndoRedoHistory
UndoRedoHistory
Layer: 1
Undoes
UndoOperation
Index: 0
Type: 1
WasModified: 1
WasOrder2: 1
Layer: 2
Width: 698
VWidth: 1000
LBearingChange: 0
UnicodeEnc: 0
InstructionsLength: 0
AnchorPoint: "Anchor-15" 350 438 basechar 0
AnchorPoint: "Anchor-14" 349 0 basechar 0
AnchorPoint: "Anchor-13" 348 700 basechar 0
SplineSet
92 700 m 1,0,-1
 196 700 l 1,1,-1
 196 431 l 1,2,3
 196 430 196 430 189 392 c 1,4,-1
 226 401 l 1,5,-1
 471 401 l 1,6,-1
 511 394 l 1,7,8
 510 394 510 394 502 431 c 1,9,-1
 502 700 l 1,10,-1
 606 700 l 1,11,-1
 606 0 l 1,12,-1
 502 0 l 1,13,-1
 502 279 l 1,14,15
 502 280 502 280 511 318 c 1,16,-1
 471 309 l 1,17,-1
 226 309 l 1,18,-1
 189 316 l 1,19,-1
 196 279 l 1,20,-1
 196 0 l 1,21,-1
 92 0 l 1,22,-1
 92 700 l 1,0,-1
EndSplineSet
EndUndoOperation
UndoOperation
Index: 1
Type: 1
WasModified: 1
WasOrder2: 1
Layer: 2
Width: 698
VWidth: 1000
LBearingChange: 0
UnicodeEnc: 0
InstructionsLength: 0
AnchorPoint: "Anchor-15" 350 438 basechar 0
AnchorPoint: "Anchor-14" 349 0 basechar 0
AnchorPoint: "Anchor-13" 348 700 basechar 0
SplineSet
92 700 m 1,0,-1
 196 700 l 1,1,-1
 196 431 l 1,2,3
 196 430 196 430 189 392 c 1,4,-1
 226 401 l 1,5,-1
 471 401 l 1,6,-1
 511 394 l 1,7,8
 510 394 510 394 502 431 c 1,9,-1
 502 700 l 1,10,-1
 606 700 l 1,11,-1
 606 0 l 1,12,-1
 502 0 l 1,13,-1
 502 279 l 1,14,15
 502 280 502 280 511 318 c 1,16,-1
 471 309 l 1,17,-1
 226 309 l 1,18,-1
 189 316 l 1,19,-1
 196 279 l 1,20,-1
 196 0 l 1,21,-1
 92 0 l 1,22,-1
 92 700 l 1,0,-1
EndSplineSet
EndUndoOperation
UndoOperation
Index: 2
Type: 3
WasModified: 0
WasOrder2: 1
Layer: 2
EndUndoOperation
EndUndoes
Redoes
EndRedoes
EndUndoRedoHistory
Fore
SplineSet
92 700 m 1,0,-1
 196 700 l 1,1,-1
 196 431 l 1,2,3
 196 430 196 430 189 392 c 1,4,-1
 226 401 l 1,5,-1
 471 401 l 1,6,-1
 511 394 l 1,7,8
 510 394 510 394 502 431 c 1,9,-1
 502 700 l 1,10,-1
 606 700 l 1,11,-1
 606 0 l 1,12,-1
 502 0 l 1,13,-1
 502 279 l 1,14,15
 502 280 502 280 511 318 c 1,16,-1
 471 309 l 1,17,-1
 226 309 l 1,18,-1
 189 316 l 1,19,-1
 196 279 l 1,20,-1
 196 0 l 1,21,-1
 92 0 l 1,22,-1
 92 700 l 1,0,-1
EndSplineSet
EndChar

StartChar: Hbar
Encoding: 294 294 80
Width: 626
GlyphClass: 1
Flags: W
LayerCount: 2
UndoRedoHistory
Layer: 0
Undoes
UndoOperation
Index: 0
Type: 1
WasModified: 0
WasOrder2: 1
Layer: 2
Width: 501
VWidth: 800
LBearingChange: 0
UnicodeEnc: 0
InstructionsLength: 0
EndUndoOperation
EndUndoes
Redoes
EndRedoes
EndUndoRedoHistory
UndoRedoHistory
Layer: 1
Undoes
UndoOperation
Index: 0
Type: 1
WasModified: 1
WasOrder2: 1
Layer: 2
Width: 626
VWidth: 1000
LBearingChange: 0
UnicodeEnc: 0
InstructionsLength: 0
SplineSet
74 471 m 1,0,-1
 82 509 l 1,1,-1
 45 500 l 1,2,-1
 1 500 l 1,3,-1
 1 589 l 1,4,-1
 45 589 l 1,5,6
 44 589 44 589 82 580 c 1,7,-1
 74 616 l 1,8,-1
 74 700 l 1,9,-1
 176 700 l 1,10,-1
 176 618 l 1,11,-1
 169 580 l 1,12,-1
 206 589 l 1,13,-1
 420 589 l 1,14,-1
 458 580 l 1,15,-1
 449 618 l 1,16,-1
 449 700 l 1,17,-1
 551 700 l 1,18,-1
 551 618 l 1,19,-1
 544 580 l 1,20,-1
 581 589 l 1,21,-1
 626 589 l 1,22,-1
 626 500 l 1,23,-1
 581 500 l 1,24,-1
 544 509 l 1,25,-1
 551 471 l 1,26,-1
 551 0 l 1,27,-1
 449 0 l 1,28,-1
 449 282 l 1,29,30
 450 282 450 282 458 320 c 1,31,-1
 420 311 l 1,32,-1
 206 311 l 1,33,-1
 169 320 l 1,34,-1
 176 282 l 1,35,-1
 176 0 l 1,36,-1
 74 0 l 1,37,-1
 74 471 l 1,0,-1
206 401 m 1,38,-1
 420 401 l 1,39,-1
 458 394 l 1,40,-1
 449 431 l 1,41,-1
 449 471 l 1,42,43
 450 471 450 471 458 509 c 1,44,-1
 420 500 l 1,45,-1
 206 500 l 1,46,-1
 169 509 l 1,47,-1
 176 471 l 1,48,-1
 176 431 l 1,49,-1
 169 394 l 1,50,-1
 206 401 l 1,38,-1
EndSplineSet
EndUndoOperation
UndoOperation
Index: 1
Type: 1
WasModified: 1
WasOrder2: 1
Layer: 2
Width: 626
VWidth: 1000
LBearingChange: 0
UnicodeEnc: 0
InstructionsLength: 0
SplineSet
74 471 m 1,0,-1
 82 509 l 1,1,-1
 45 500 l 1,2,-1
 1 500 l 1,3,-1
 1 589 l 1,4,-1
 45 589 l 1,5,6
 44 589 44 589 82 580 c 1,7,-1
 74 616 l 1,8,-1
 74 700 l 1,9,-1
 176 700 l 1,10,-1
 176 618 l 1,11,-1
 169 580 l 1,12,-1
 206 589 l 1,13,-1
 420 589 l 1,14,-1
 458 580 l 1,15,-1
 449 618 l 1,16,-1
 449 700 l 1,17,-1
 551 700 l 1,18,-1
 551 618 l 1,19,-1
 544 580 l 1,20,-1
 581 589 l 1,21,-1
 626 589 l 1,22,-1
 626 500 l 1,23,-1
 581 500 l 1,24,-1
 544 509 l 1,25,-1
 551 471 l 1,26,-1
 551 0 l 1,27,-1
 449 0 l 1,28,-1
 449 282 l 1,29,30
 450 282 450 282 458 320 c 1,31,-1
 420 311 l 1,32,-1
 206 311 l 1,33,-1
 169 320 l 1,34,-1
 176 282 l 1,35,-1
 176 0 l 1,36,-1
 74 0 l 1,37,-1
 74 471 l 1,0,-1
206 401 m 1,38,-1
 420 401 l 1,39,-1
 458 394 l 1,40,-1
 449 431 l 1,41,-1
 449 471 l 1,42,43
 450 471 450 471 458 509 c 1,44,-1
 420 500 l 1,45,-1
 206 500 l 1,46,-1
 169 509 l 1,47,-1
 176 471 l 1,48,-1
 176 431 l 1,49,-1
 169 394 l 1,50,-1
 206 401 l 1,38,-1
EndSplineSet
EndUndoOperation
UndoOperation
Index: 2
Type: 3
WasModified: 0
WasOrder2: 1
Layer: 2
EndUndoOperation
EndUndoes
Redoes
EndRedoes
EndUndoRedoHistory
Fore
SplineSet
74 471 m 1,0,-1
 82 509 l 1,1,-1
 45 500 l 1,2,-1
 1 500 l 1,3,-1
 1 589 l 1,4,-1
 45 589 l 1,5,6
 44 589 44 589 82 580 c 1,7,-1
 74 616 l 1,8,-1
 74 700 l 1,9,-1
 176 700 l 1,10,-1
 176 618 l 1,11,-1
 169 580 l 1,12,-1
 206 589 l 1,13,-1
 420 589 l 1,14,-1
 458 580 l 1,15,-1
 449 618 l 1,16,-1
 449 700 l 1,17,-1
 551 700 l 1,18,-1
 551 618 l 1,19,-1
 544 580 l 1,20,-1
 581 589 l 1,21,-1
 626 589 l 1,22,-1
 626 500 l 1,23,-1
 581 500 l 1,24,-1
 544 509 l 1,25,-1
 551 471 l 1,26,-1
 551 0 l 1,27,-1
 449 0 l 1,28,-1
 449 282 l 1,29,30
 450 282 450 282 458 320 c 1,31,-1
 420 311 l 1,32,-1
 206 311 l 1,33,-1
 169 320 l 1,34,-1
 176 282 l 1,35,-1
 176 0 l 1,36,-1
 74 0 l 1,37,-1
 74 471 l 1,0,-1
206 401 m 1,38,-1
 420 401 l 1,39,-1
 458 394 l 1,40,-1
 449 431 l 1,41,-1
 449 471 l 1,42,43
 450 471 450 471 458 509 c 1,44,-1
 420 500 l 1,45,-1
 206 500 l 1,46,-1
 169 509 l 1,47,-1
 176 471 l 1,48,-1
 176 431 l 1,49,-1
 169 394 l 1,50,-1
 206 401 l 1,38,-1
EndSplineSet
EndChar

StartChar: uniA7AA
Encoding: 42922 42922 82
Width: 626
GlyphClass: 1
Flags: W
LayerCount: 2
UndoRedoHistory
Layer: 0
Undoes
UndoOperation
Index: 0
Type: 1
WasModified: 0
WasOrder2: 1
Layer: 2
Width: 501
VWidth: 800
LBearingChange: 0
UnicodeEnc: 0
InstructionsLength: 0
EndUndoOperation
EndUndoes
Redoes
EndRedoes
EndUndoRedoHistory
UndoRedoHistory
Layer: 1
Undoes
UndoOperation
Index: 0
Type: 1
WasModified: 1
WasOrder2: 1
Layer: 2
Width: 626
VWidth: 1000
LBearingChange: 0
UnicodeEnc: 0
InstructionsLength: 0
SplineSet
75 565 m 1,0,1
 74 565 74 565 82 604 c 1,2,-1
 49 596 l 2,3,4
 13 592 13 592 -4.5 573 c 128,-1,5
 -22 554 -22 554 -22 518 c 2,6,-1
 -22 512 l 1,7,-1
 -115 512 l 1,8,-1
 -115 524 l 2,9,10
 -115 613 -115 613 -64.5 656.5 c 128,-1,11
 -14 700 -14 700 70 700 c 2,12,-1
 179 700 l 1,13,-1
 179 431 l 1,14,15
 179 430 179 430 170 392 c 1,16,-1
 209 401 l 1,17,18
 210 401 210 401 418 401 c 1,19,20
 418 400 418 400 458 392 c 1,21,-1
 448 431 l 1,22,-1
 448 700 l 1,23,-1
 552 700 l 1,24,-1
 552 0 l 1,25,-1
 448 0 l 1,26,-1
 448 279 l 1,27,-1
 456 316 l 1,28,-1
 418 309 l 1,29,-1
 209 309 l 1,30,31
 209 310 209 310 170 318 c 1,32,-1
 179 279 l 1,33,-1
 179 0 l 1,34,-1
 75 0 l 1,35,-1
 75 565 l 1,0,1
EndSplineSet
EndUndoOperation
UndoOperation
Index: 1
Type: 1
WasModified: 1
WasOrder2: 1
Layer: 2
Width: 626
VWidth: 1000
LBearingChange: 0
UnicodeEnc: 0
InstructionsLength: 0
SplineSet
75 565 m 1,0,1
 74 565 74 565 82 604 c 1,2,-1
 49 596 l 2,3,4
 13 592 13 592 -4.5 573 c 128,-1,5
 -22 554 -22 554 -22 518 c 2,6,-1
 -22 512 l 1,7,-1
 -115 512 l 1,8,-1
 -115 524 l 2,9,10
 -115 613 -115 613 -64.5 656.5 c 128,-1,11
 -14 700 -14 700 70 700 c 2,12,-1
 179 700 l 1,13,-1
 179 431 l 1,14,15
 179 430 179 430 170 392 c 1,16,-1
 209 401 l 1,17,18
 210 401 210 401 418 401 c 1,19,20
 418 400 418 400 458 392 c 1,21,-1
 448 431 l 1,22,-1
 448 700 l 1,23,-1
 552 700 l 1,24,-1
 552 0 l 1,25,-1
 448 0 l 1,26,-1
 448 279 l 1,27,-1
 456 316 l 1,28,-1
 418 309 l 1,29,-1
 209 309 l 1,30,31
 209 310 209 310 170 318 c 1,32,-1
 179 279 l 1,33,-1
 179 0 l 1,34,-1
 75 0 l 1,35,-1
 75 565 l 1,0,1
EndSplineSet
EndUndoOperation
UndoOperation
Index: 2
Type: 3
WasModified: 0
WasOrder2: 1
Layer: 2
EndUndoOperation
EndUndoes
Redoes
EndRedoes
EndUndoRedoHistory
Fore
SplineSet
75 565 m 1,0,1
 74 565 74 565 82 604 c 1,2,-1
 49 596 l 2,3,4
 13 592 13 592 -4.5 573 c 128,-1,5
 -22 554 -22 554 -22 518 c 2,6,-1
 -22 512 l 1,7,-1
 -115 512 l 1,8,-1
 -115 524 l 2,9,10
 -115 613 -115 613 -64.5 656.5 c 128,-1,11
 -14 700 -14 700 70 700 c 2,12,-1
 179 700 l 1,13,-1
 179 431 l 1,14,15
 179 430 179 430 170 392 c 1,16,-1
 209 401 l 1,17,18
 210 401 210 401 418 401 c 1,19,20
 418 400 418 400 458 392 c 1,21,-1
 448 431 l 1,22,-1
 448 700 l 1,23,-1
 552 700 l 1,24,-1
 552 0 l 1,25,-1
 448 0 l 1,26,-1
 448 279 l 1,27,-1
 456 316 l 1,28,-1
 418 309 l 1,29,-1
 209 309 l 1,30,31
 209 310 209 310 170 318 c 1,32,-1
 179 279 l 1,33,-1
 179 0 l 1,34,-1
 75 0 l 1,35,-1
 75 565 l 1,0,1
EndSplineSet
EndChar

StartChar: I
Encoding: 73 73 84
Width: 288
GlyphClass: 2
Flags: W
AnchorPoint: "Anchor-14" 142 0 basechar 0
AnchorPoint: "Anchor-13" 142 700 basechar 0
AnchorPoint: "Anchor-12" 150 0 basechar 0
LayerCount: 2
UndoRedoHistory
Layer: 0
Undoes
UndoOperation
Index: 0
Type: 1
WasModified: 0
WasOrder2: 1
Layer: 2
Width: 231
VWidth: 800
LBearingChange: 0
UnicodeEnc: 0
InstructionsLength: 0
EndUndoOperation
EndUndoes
Redoes
EndRedoes
EndUndoRedoHistory
UndoRedoHistory
Layer: 1
Undoes
UndoOperation
Index: 0
Type: 1
WasModified: 1
WasOrder2: 1
Layer: 2
Width: 288
VWidth: 1000
LBearingChange: 0
UnicodeEnc: 0
InstructionsLength: 0
AnchorPoint: "Anchor-14" 142 0 basechar 0
AnchorPoint: "Anchor-13" 142 700 basechar 0
AnchorPoint: "Anchor-12" 150 0 basechar 0
SplineSet
92 700 m 1,0,-1
 196 700 l 1,1,-1
 196 0 l 1,2,-1
 92 0 l 1,3,-1
 92 700 l 1,0,-1
EndSplineSet
EndUndoOperation
UndoOperation
Index: 1
Type: 1
WasModified: 1
WasOrder2: 1
Layer: 2
Width: 288
VWidth: 1000
LBearingChange: 0
UnicodeEnc: 0
InstructionsLength: 0
AnchorPoint: "Anchor-14" 142 0 basechar 0
AnchorPoint: "Anchor-13" 142 700 basechar 0
AnchorPoint: "Anchor-12" 150 0 basechar 0
SplineSet
92 700 m 1,0,-1
 196 700 l 1,1,-1
 196 0 l 1,2,-1
 92 0 l 1,3,-1
 92 700 l 1,0,-1
EndSplineSet
EndUndoOperation
UndoOperation
Index: 2
Type: 3
WasModified: 0
WasOrder2: 1
Layer: 2
EndUndoOperation
EndUndoes
Redoes
EndRedoes
EndUndoRedoHistory
Fore
SplineSet
92 700 m 1,0,-1
 196 700 l 1,1,-1
 196 0 l 1,2,-1
 92 0 l 1,3,-1
 92 700 l 1,0,-1
EndSplineSet
EndChar

StartChar: Iogonek
Encoding: 302 302 95
Width: 301
GlyphClass: 2
Flags: W
AnchorPoint: "Anchor-13" 154 700 basechar 0
LayerCount: 2
UndoRedoHistory
Layer: 0
Undoes
UndoOperation
Index: 0
Type: 1
WasModified: 0
WasOrder2: 1
Layer: 2
Width: 241
VWidth: 800
LBearingChange: 0
UnicodeEnc: 0
InstructionsLength: 0
EndUndoOperation
EndUndoes
Redoes
EndRedoes
EndUndoRedoHistory
UndoRedoHistory
Layer: 1
Undoes
UndoOperation
Index: 0
Type: 1
WasModified: 1
WasOrder2: 1
Layer: 2
Width: 301
VWidth: 1000
LBearingChange: 0
UnicodeEnc: 0
InstructionsLength: 0
AnchorPoint: "Anchor-13" 154 700 basechar 0
SplineSet
81 -193.5 m 128,-1,1
 46 -166 46 -166 46 -115 c 0,2,3
 46 -60 46 -60 92 -12 c 1,4,-1
 128 0 l 1,5,-1
 105 28 l 1,6,-1
 105 700 l 1,7,-1
 209 700 l 1,8,-1
 209 0 l 1,9,10
 178 -22 178 -22 161.5 -44 c 128,-1,11
 145 -66 145 -66 145 -92 c 0,12,13
 145 -112 145 -112 158 -125 c 128,-1,14
 171 -138 171 -138 191 -138 c 2,15,-1
 196 -138 l 1,16,-1
 196 -221 l 1,17,-1
 180 -221 l 2,18,0
 116 -221 116 -221 81 -193.5 c 128,-1,1
EndSplineSet
EndUndoOperation
UndoOperation
Index: 1
Type: 1
WasModified: 1
WasOrder2: 1
Layer: 2
Width: 301
VWidth: 1000
LBearingChange: 0
UnicodeEnc: 0
InstructionsLength: 0
AnchorPoint: "Anchor-13" 154 700 basechar 0
SplineSet
81 -193.5 m 128,-1,1
 46 -166 46 -166 46 -115 c 0,2,3
 46 -60 46 -60 92 -12 c 1,4,-1
 128 0 l 1,5,-1
 105 28 l 1,6,-1
 105 700 l 1,7,-1
 209 700 l 1,8,-1
 209 0 l 1,9,10
 178 -22 178 -22 161.5 -44 c 128,-1,11
 145 -66 145 -66 145 -92 c 0,12,13
 145 -112 145 -112 158 -125 c 128,-1,14
 171 -138 171 -138 191 -138 c 2,15,-1
 196 -138 l 1,16,-1
 196 -221 l 1,17,-1
 180 -221 l 2,18,0
 116 -221 116 -221 81 -193.5 c 128,-1,1
EndSplineSet
EndUndoOperation
UndoOperation
Index: 2
Type: 3
WasModified: 0
WasOrder2: 1
Layer: 2
EndUndoOperation
EndUndoes
Redoes
EndRedoes
EndUndoRedoHistory
Fore
SplineSet
81 -193.5 m 128,-1,1
 46 -166 46 -166 46 -115 c 0,2,3
 46 -60 46 -60 92 -12 c 1,4,-1
 128 0 l 1,5,-1
 105 28 l 1,6,-1
 105 700 l 1,7,-1
 209 700 l 1,8,-1
 209 0 l 1,9,10
 178 -22 178 -22 161.5 -44 c 128,-1,11
 145 -66 145 -66 145 -92 c 0,12,13
 145 -112 145 -112 158 -125 c 128,-1,14
 171 -138 171 -138 191 -138 c 2,15,-1
 196 -138 l 1,16,-1
 196 -221 l 1,17,-1
 180 -221 l 2,18,0
 116 -221 116 -221 81 -193.5 c 128,-1,1
EndSplineSet
EndChar

StartChar: uni0196
Encoding: 406 406 96
Width: 626
GlyphClass: 1
Flags: W
LayerCount: 2
UndoRedoHistory
Layer: 0
Undoes
UndoOperation
Index: 0
Type: 1
WasModified: 0
WasOrder2: 1
Layer: 2
Width: 501
VWidth: 800
LBearingChange: 0
UnicodeEnc: 0
InstructionsLength: 0
EndUndoOperation
EndUndoes
Redoes
EndRedoes
EndUndoRedoHistory
UndoRedoHistory
Layer: 1
Undoes
UndoOperation
Index: 0
Type: 1
WasModified: 1
WasOrder2: 1
Layer: 2
Width: 626
VWidth: 1000
LBearingChange: 0
UnicodeEnc: 0
InstructionsLength: 0
SplineSet
484.5 80 m 128,-1,1
 514 86 514 86 524 88 c 1,2,-1
 524 0 l 1,3,4
 460 -14 460 -14 412 -14 c 0,5,6
 328 -14 328 -14 283.5 32.5 c 128,-1,7
 239 79 239 79 239 171 c 2,8,9
 239 170 239 170 239 582 c 1,10,11
 240 582 240 582 248 620 c 1,12,-1
 210 612 l 1,13,-1
 92 612 l 1,14,-1
 92 700 l 1,15,-1
 341 700 l 1,16,-1
 341 176 l 2,17,18
 341 125 341 125 367.5 99.5 c 128,-1,19
 394 74 394 74 435 74 c 0,20,0
 455 74 455 74 484.5 80 c 128,-1,1
EndSplineSet
EndUndoOperation
UndoOperation
Index: 1
Type: 1
WasModified: 1
WasOrder2: 1
Layer: 2
Width: 626
VWidth: 1000
LBearingChange: 0
UnicodeEnc: 0
InstructionsLength: 0
SplineSet
484.5 80 m 128,-1,1
 514 86 514 86 524 88 c 1,2,-1
 524 0 l 1,3,4
 460 -14 460 -14 412 -14 c 0,5,6
 328 -14 328 -14 283.5 32.5 c 128,-1,7
 239 79 239 79 239 171 c 2,8,9
 239 170 239 170 239 582 c 1,10,11
 240 582 240 582 248 620 c 1,12,-1
 210 612 l 1,13,-1
 92 612 l 1,14,-1
 92 700 l 1,15,-1
 341 700 l 1,16,-1
 341 176 l 2,17,18
 341 125 341 125 367.5 99.5 c 128,-1,19
 394 74 394 74 435 74 c 0,20,0
 455 74 455 74 484.5 80 c 128,-1,1
EndSplineSet
EndUndoOperation
UndoOperation
Index: 2
Type: 3
WasModified: 0
WasOrder2: 1
Layer: 2
EndUndoOperation
EndUndoes
Redoes
EndRedoes
EndUndoRedoHistory
Fore
SplineSet
484.5 80 m 128,-1,1
 514 86 514 86 524 88 c 1,2,-1
 524 0 l 1,3,4
 460 -14 460 -14 412 -14 c 0,5,6
 328 -14 328 -14 283.5 32.5 c 128,-1,7
 239 79 239 79 239 171 c 2,8,9
 239 170 239 170 239 582 c 1,10,11
 240 582 240 582 248 620 c 1,12,-1
 210 612 l 1,13,-1
 92 612 l 1,14,-1
 92 700 l 1,15,-1
 341 700 l 1,16,-1
 341 176 l 2,17,18
 341 125 341 125 367.5 99.5 c 128,-1,19
 394 74 394 74 435 74 c 0,20,0
 455 74 455 74 484.5 80 c 128,-1,1
EndSplineSet
EndChar

StartChar: uni0197
Encoding: 407 407 97
Width: 313
GlyphClass: 1
Flags: W
LayerCount: 2
UndoRedoHistory
Layer: 0
Undoes
UndoOperation
Index: 0
Type: 1
WasModified: 0
WasOrder2: 1
Layer: 2
Width: 251
VWidth: 800
LBearingChange: 0
UnicodeEnc: 0
InstructionsLength: 0
EndUndoOperation
EndUndoes
Redoes
EndRedoes
EndUndoRedoHistory
UndoRedoHistory
Layer: 1
Undoes
UndoOperation
Index: 0
Type: 1
WasModified: 1
WasOrder2: 1
Layer: 2
Width: 313
VWidth: 1000
LBearingChange: 0
UnicodeEnc: 0
InstructionsLength: 0
SplineSet
12 410 m 1,0,-1
 76 410 l 1,1,-1
 118 398 l 1,2,-1
 105 441 l 1,3,-1
 105 700 l 1,4,-1
 209 700 l 1,5,-1
 209 441 l 1,6,7
 209 442 209 442 195 398 c 1,8,-1
 236 410 l 1,9,-1
 301 410 l 1,10,-1
 301 320 l 1,11,-1
 236 320 l 1,12,-1
 195 332 l 1,13,-1
 209 288 l 1,14,-1
 209 0 l 1,15,-1
 105 0 l 1,16,-1
 105 288 l 1,17,18
 106 288 106 288 118 332 c 1,19,-1
 76 320 l 1,20,-1
 12 320 l 1,21,-1
 12 410 l 1,0,-1
EndSplineSet
EndUndoOperation
UndoOperation
Index: 1
Type: 1
WasModified: 1
WasOrder2: 1
Layer: 2
Width: 313
VWidth: 1000
LBearingChange: 0
UnicodeEnc: 0
InstructionsLength: 0
SplineSet
12 410 m 1,0,-1
 76 410 l 1,1,-1
 118 398 l 1,2,-1
 105 441 l 1,3,-1
 105 700 l 1,4,-1
 209 700 l 1,5,-1
 209 441 l 1,6,7
 209 442 209 442 195 398 c 1,8,-1
 236 410 l 1,9,-1
 301 410 l 1,10,-1
 301 320 l 1,11,-1
 236 320 l 1,12,-1
 195 332 l 1,13,-1
 209 288 l 1,14,-1
 209 0 l 1,15,-1
 105 0 l 1,16,-1
 105 288 l 1,17,18
 106 288 106 288 118 332 c 1,19,-1
 76 320 l 1,20,-1
 12 320 l 1,21,-1
 12 410 l 1,0,-1
EndSplineSet
EndUndoOperation
UndoOperation
Index: 2
Type: 3
WasModified: 0
WasOrder2: 1
Layer: 2
EndUndoOperation
EndUndoes
Redoes
EndRedoes
EndUndoRedoHistory
Fore
SplineSet
12 410 m 1,0,-1
 76 410 l 1,1,-1
 118 398 l 1,2,-1
 105 441 l 1,3,-1
 105 700 l 1,4,-1
 209 700 l 1,5,-1
 209 441 l 1,6,7
 209 442 209 442 195 398 c 1,8,-1
 236 410 l 1,9,-1
 301 410 l 1,10,-1
 301 320 l 1,11,-1
 236 320 l 1,12,-1
 195 332 l 1,13,-1
 209 288 l 1,14,-1
 209 0 l 1,15,-1
 105 0 l 1,16,-1
 105 288 l 1,17,18
 106 288 106 288 118 332 c 1,19,-1
 76 320 l 1,20,-1
 12 320 l 1,21,-1
 12 410 l 1,0,-1
EndSplineSet
EndChar

StartChar: J
Encoding: 74 74 99
Width: 631
GlyphClass: 2
Flags: W
AnchorPoint: "Anchor-13" 306 700 basechar 0
AnchorPoint: "Anchor-12" 298 0 basechar 0
LayerCount: 2
UndoRedoHistory
Layer: 0
Undoes
UndoOperation
Index: 0
Type: 1
WasModified: 0
WasOrder2: 1
Layer: 2
Width: 505
VWidth: 800
LBearingChange: 0
UnicodeEnc: 0
InstructionsLength: 0
EndUndoOperation
EndUndoes
Redoes
EndRedoes
EndUndoRedoHistory
UndoRedoHistory
Layer: 1
Undoes
UndoOperation
Index: 0
Type: 1
WasModified: 1
WasOrder2: 1
Layer: 2
Width: 631
VWidth: 1000
LBearingChange: 0
UnicodeEnc: 0
InstructionsLength: 0
AnchorPoint: "Anchor-13" 306 700 basechar 0
AnchorPoint: "Anchor-12" 298 0 basechar 0
SplineSet
118.5 46 m 128,-1,1
 48 104 48 104 46 221 c 1,2,-1
 149 221 l 1,3,4
 150 153 150 153 190.5 116 c 128,-1,5
 231 79 231 79 295 79 c 0,6,7
 361 79 361 79 402.5 119 c 128,-1,8
 444 159 444 159 444 246 c 2,9,-1
 444 574 l 1,10,-1
 454 622 l 1,11,-1
 406 611 l 1,12,-1
 156 611 l 1,13,-1
 156 700 l 1,14,-1
 548 700 l 1,15,-1
 548 256 l 2,16,17
 548 131 548 131 480 59.5 c 128,-1,18
 412 -12 412 -12 296 -12 c 0,19,0
 189 -12 189 -12 118.5 46 c 128,-1,1
EndSplineSet
EndUndoOperation
UndoOperation
Index: 1
Type: 1
WasModified: 1
WasOrder2: 1
Layer: 2
Width: 631
VWidth: 1000
LBearingChange: 0
UnicodeEnc: 0
InstructionsLength: 0
AnchorPoint: "Anchor-13" 306 700 basechar 0
AnchorPoint: "Anchor-12" 298 0 basechar 0
SplineSet
118.5 46 m 128,-1,1
 48 104 48 104 46 221 c 1,2,-1
 149 221 l 1,3,4
 150 153 150 153 190.5 116 c 128,-1,5
 231 79 231 79 295 79 c 0,6,7
 361 79 361 79 402.5 119 c 128,-1,8
 444 159 444 159 444 246 c 2,9,-1
 444 574 l 1,10,-1
 454 622 l 1,11,-1
 406 611 l 1,12,-1
 156 611 l 1,13,-1
 156 700 l 1,14,-1
 548 700 l 1,15,-1
 548 256 l 2,16,17
 548 131 548 131 480 59.5 c 128,-1,18
 412 -12 412 -12 296 -12 c 0,19,0
 189 -12 189 -12 118.5 46 c 128,-1,1
EndSplineSet
EndUndoOperation
UndoOperation
Index: 2
Type: 3
WasModified: 0
WasOrder2: 1
Layer: 2
EndUndoOperation
EndUndoes
Redoes
EndRedoes
EndUndoRedoHistory
Fore
SplineSet
118.5 46 m 128,-1,1
 48 104 48 104 46 221 c 1,2,-1
 149 221 l 1,3,4
 150 153 150 153 190.5 116 c 128,-1,5
 231 79 231 79 295 79 c 0,6,7
 361 79 361 79 402.5 119 c 128,-1,8
 444 159 444 159 444 246 c 2,9,-1
 444 574 l 1,10,-1
 454 622 l 1,11,-1
 406 611 l 1,12,-1
 156 611 l 1,13,-1
 156 700 l 1,14,-1
 548 700 l 1,15,-1
 548 256 l 2,16,17
 548 131 548 131 480 59.5 c 128,-1,18
 412 -12 412 -12 296 -12 c 0,19,0
 189 -12 189 -12 118.5 46 c 128,-1,1
EndSplineSet
EndChar

StartChar: K
Encoding: 75 75 100
Width: 637
GlyphClass: 2
Flags: W
AnchorPoint: "Anchor-14" 310 0 basechar 0
AnchorPoint: "Anchor-13" 320 716 basechar 0
LayerCount: 2
UndoRedoHistory
Layer: 0
Undoes
UndoOperation
Index: 0
Type: 1
WasModified: 0
WasOrder2: 1
Layer: 2
Width: 510
VWidth: 800
LBearingChange: 0
UnicodeEnc: 0
InstructionsLength: 0
EndUndoOperation
EndUndoes
Redoes
EndRedoes
EndUndoRedoHistory
UndoRedoHistory
Layer: 1
Undoes
UndoOperation
Index: 0
Type: 1
WasModified: 1
WasOrder2: 1
Layer: 2
Width: 637
VWidth: 1000
LBearingChange: 0
UnicodeEnc: 0
InstructionsLength: 0
AnchorPoint: "Anchor-14" 310 0 basechar 0
AnchorPoint: "Anchor-13" 320 716 basechar 0
SplineSet
92 700 m 1,0,-1
 196 700 l 1,1,-1
 196 430 l 1,2,-1
 188 392 l 1,3,-1
 220 399 l 1,4,-1
 276 399 l 1,5,-1
 484 701 l 1,6,-1
 598 701 l 1,7,8
 598 702 598 702 374 378 c 1,9,-1
 341 356 l 1,10,11
 340 356 340 356 372 334 c 1,12,-1
 606 0 l 1,13,-1
 485 0 l 1,14,-1
 270 310 l 1,15,-1
 220 310 l 1,16,-1
 189 316 l 1,17,-1
 196 274 l 1,18,-1
 196 0 l 1,19,-1
 92 0 l 1,20,-1
 92 700 l 1,0,-1
EndSplineSet
EndUndoOperation
UndoOperation
Index: 1
Type: 1
WasModified: 1
WasOrder2: 1
Layer: 2
Width: 637
VWidth: 1000
LBearingChange: 0
UnicodeEnc: 0
InstructionsLength: 0
AnchorPoint: "Anchor-14" 310 0 basechar 0
AnchorPoint: "Anchor-13" 320 716 basechar 0
SplineSet
92 700 m 1,0,-1
 196 700 l 1,1,-1
 196 430 l 1,2,-1
 188 392 l 1,3,-1
 220 399 l 1,4,-1
 276 399 l 1,5,-1
 484 701 l 1,6,-1
 598 701 l 1,7,8
 598 702 598 702 374 378 c 1,9,-1
 341 356 l 1,10,11
 340 356 340 356 372 334 c 1,12,-1
 606 0 l 1,13,-1
 485 0 l 1,14,-1
 270 310 l 1,15,-1
 220 310 l 1,16,-1
 189 316 l 1,17,-1
 196 274 l 1,18,-1
 196 0 l 1,19,-1
 92 0 l 1,20,-1
 92 700 l 1,0,-1
EndSplineSet
EndUndoOperation
UndoOperation
Index: 2
Type: 3
WasModified: 0
WasOrder2: 1
Layer: 2
EndUndoOperation
EndUndoes
Redoes
EndRedoes
EndUndoRedoHistory
Fore
SplineSet
92 700 m 1,0,-1
 196 700 l 1,1,-1
 196 430 l 1,2,-1
 188 392 l 1,3,-1
 220 399 l 1,4,-1
 276 399 l 1,5,-1
 484 701 l 1,6,-1
 598 701 l 1,7,8
 598 702 598 702 374 378 c 1,9,-1
 341 356 l 1,10,11
 340 356 340 356 372 334 c 1,12,-1
 606 0 l 1,13,-1
 485 0 l 1,14,-1
 270 310 l 1,15,-1
 220 310 l 1,16,-1
 189 316 l 1,17,-1
 196 274 l 1,18,-1
 196 0 l 1,19,-1
 92 0 l 1,20,-1
 92 700 l 1,0,-1
EndSplineSet
EndChar

StartChar: uni0198
Encoding: 408 408 102
Width: 640
GlyphClass: 1
Flags: W
LayerCount: 2
UndoRedoHistory
Layer: 0
Undoes
UndoOperation
Index: 0
Type: 1
WasModified: 0
WasOrder2: 1
Layer: 2
Width: 512
VWidth: 800
LBearingChange: 0
UnicodeEnc: 0
InstructionsLength: 0
EndUndoOperation
EndUndoes
Redoes
EndRedoes
EndUndoRedoHistory
UndoRedoHistory
Layer: 1
Undoes
UndoOperation
Index: 0
Type: 1
WasModified: 1
WasOrder2: 1
Layer: 2
Width: 640
VWidth: 1000
LBearingChange: 0
UnicodeEnc: 0
InstructionsLength: 0
SplineSet
362 384 m 1,0,-1
 328 364 l 1,1,-1
 365 340 l 1,2,3
 366 340 366 340 608 0 c 1,4,-1
 484 0 l 1,5,-1
 264 311 l 1,6,-1
 221 311 l 1,7,-1
 184 320 l 1,8,-1
 192 282 l 1,9,-1
 192 0 l 1,10,-1
 92 0 l 1,11,-1
 92 700 l 1,12,-1
 192 700 l 1,13,-1
 192 429 l 1,14,-1
 184 391 l 1,15,-1
 215 395 l 1,16,-1
 261 395 l 1,17,18
 261 396 261 396 376 558 c 2,19,20
 416 613 416 613 445.5 644 c 128,-1,21
 475 675 475 675 513 693.5 c 128,-1,22
 551 712 551 712 604 712 c 1,23,-1
 604 625 l 1,24,25
 576 625 576 625 551 610 c 0,26,27
 526 596 526 596 498 558 c 2,28,-1
 362 384 l 1,0,-1
EndSplineSet
EndUndoOperation
UndoOperation
Index: 1
Type: 1
WasModified: 1
WasOrder2: 1
Layer: 2
Width: 640
VWidth: 1000
LBearingChange: 0
UnicodeEnc: 0
InstructionsLength: 0
SplineSet
362 384 m 1,0,-1
 328 364 l 1,1,-1
 365 340 l 1,2,3
 366 340 366 340 608 0 c 1,4,-1
 484 0 l 1,5,-1
 264 311 l 1,6,-1
 221 311 l 1,7,-1
 184 320 l 1,8,-1
 192 282 l 1,9,-1
 192 0 l 1,10,-1
 92 0 l 1,11,-1
 92 700 l 1,12,-1
 192 700 l 1,13,-1
 192 429 l 1,14,-1
 184 391 l 1,15,-1
 215 395 l 1,16,-1
 261 395 l 1,17,18
 261 396 261 396 376 558 c 2,19,20
 416 613 416 613 445.5 644 c 128,-1,21
 475 675 475 675 513 693.5 c 128,-1,22
 551 712 551 712 604 712 c 1,23,-1
 604 625 l 1,24,25
 576 625 576 625 551 610 c 0,26,27
 526 596 526 596 498 558 c 2,28,-1
 362 384 l 1,0,-1
EndSplineSet
EndUndoOperation
UndoOperation
Index: 2
Type: 3
WasModified: 0
WasOrder2: 1
Layer: 2
EndUndoOperation
EndUndoes
Redoes
EndRedoes
EndUndoRedoHistory
Fore
SplineSet
362 384 m 1,0,-1
 328 364 l 1,1,-1
 365 340 l 1,2,3
 366 340 366 340 608 0 c 1,4,-1
 484 0 l 1,5,-1
 264 311 l 1,6,-1
 221 311 l 1,7,-1
 184 320 l 1,8,-1
 192 282 l 1,9,-1
 192 0 l 1,10,-1
 92 0 l 1,11,-1
 92 700 l 1,12,-1
 192 700 l 1,13,-1
 192 429 l 1,14,-1
 184 391 l 1,15,-1
 215 395 l 1,16,-1
 261 395 l 1,17,18
 261 396 261 396 376 558 c 2,19,20
 416 613 416 613 445.5 644 c 128,-1,21
 475 675 475 675 513 693.5 c 128,-1,22
 551 712 551 712 604 712 c 1,23,-1
 604 625 l 1,24,25
 576 625 576 625 551 610 c 0,26,27
 526 596 526 596 498 558 c 2,28,-1
 362 384 l 1,0,-1
EndSplineSet
EndChar

StartChar: L
Encoding: 76 76 103
Width: 538
GlyphClass: 2
Flags: W
AnchorPoint: "Anchor-15" 140 370 basechar 0
AnchorPoint: "Anchor-14" 300 0 basechar 0
AnchorPoint: "Anchor-13" 194 700 basechar 0
AnchorPoint: "Anchor-12" 432 0 basechar 0
LayerCount: 2
UndoRedoHistory
Layer: 0
Undoes
UndoOperation
Index: 0
Type: 1
WasModified: 0
WasOrder2: 1
Layer: 2
Width: 431
VWidth: 800
LBearingChange: 0
UnicodeEnc: 0
InstructionsLength: 0
EndUndoOperation
EndUndoes
Redoes
EndRedoes
EndUndoRedoHistory
UndoRedoHistory
Layer: 1
Undoes
UndoOperation
Index: 0
Type: 1
WasModified: 1
WasOrder2: 1
Layer: 2
Width: 538
VWidth: 1000
LBearingChange: 0
UnicodeEnc: 0
InstructionsLength: 0
AnchorPoint: "Anchor-15" 140 370 basechar 0
AnchorPoint: "Anchor-14" 300 0 basechar 0
AnchorPoint: "Anchor-13" 194 700 basechar 0
AnchorPoint: "Anchor-12" 432 0 basechar 0
SplineSet
92 700 m 1,0,-1
 196 700 l 1,1,-1
 196 128 l 1,2,-1
 186 80 l 1,3,-1
 231 90 l 1,4,5
 232 90 232 90 518 90 c 1,6,-1
 518 0 l 1,7,-1
 92 0 l 1,8,-1
 92 700 l 1,0,-1
EndSplineSet
EndUndoOperation
UndoOperation
Index: 1
Type: 1
WasModified: 1
WasOrder2: 1
Layer: 2
Width: 538
VWidth: 1000
LBearingChange: 0
UnicodeEnc: 0
InstructionsLength: 0
AnchorPoint: "Anchor-15" 140 370 basechar 0
AnchorPoint: "Anchor-14" 300 0 basechar 0
AnchorPoint: "Anchor-13" 194 700 basechar 0
AnchorPoint: "Anchor-12" 432 0 basechar 0
SplineSet
92 700 m 1,0,-1
 196 700 l 1,1,-1
 196 128 l 1,2,-1
 186 80 l 1,3,-1
 231 90 l 1,4,5
 232 90 232 90 518 90 c 1,6,-1
 518 0 l 1,7,-1
 92 0 l 1,8,-1
 92 700 l 1,0,-1
EndSplineSet
EndUndoOperation
UndoOperation
Index: 2
Type: 3
WasModified: 0
WasOrder2: 1
Layer: 2
EndUndoOperation
EndUndoes
Redoes
EndRedoes
EndUndoRedoHistory
Fore
SplineSet
92 700 m 1,0,-1
 196 700 l 1,1,-1
 196 128 l 1,2,-1
 186 80 l 1,3,-1
 231 90 l 1,4,5
 232 90 232 90 518 90 c 1,6,-1
 518 0 l 1,7,-1
 92 0 l 1,8,-1
 92 700 l 1,0,-1
EndSplineSet
EndChar

StartChar: uni1E3C
Encoding: 7740 7740 106
Width: 538
GlyphClass: 2
Flags: W
AnchorPoint: "Anchor-15" 140 370 basechar 0
AnchorPoint: "Anchor-14" 300 0 basechar 0
AnchorPoint: "Anchor-13" 201 584 basechar 0
AnchorPoint: "Anchor-12" 432 0 basechar 0
LayerCount: 2
UndoRedoHistory
Layer: 0
Undoes
UndoOperation
Index: 0
Type: 1
WasModified: 0
WasOrder2: 1
Layer: 2
Width: 431
VWidth: 800
LBearingChange: 0
UnicodeEnc: 0
InstructionsLength: 0
EndUndoOperation
EndUndoes
Redoes
EndRedoes
EndUndoRedoHistory
UndoRedoHistory
Layer: 1
Undoes
UndoOperation
Index: 0
Type: 1
WasModified: 1
WasOrder2: 1
Layer: 2
Width: 538
VWidth: 1000
LBearingChange: 0
UnicodeEnc: 0
InstructionsLength: 0
AnchorPoint: "Anchor-15" 140 370 basechar 0
AnchorPoint: "Anchor-14" 300 0 basechar 0
AnchorPoint: "Anchor-13" 201 584 basechar 0
AnchorPoint: "Anchor-12" 432 0 basechar 0
SplineSet
92 451 m 1,0,-1
 8 451 l 1,1,-1
 92 574 l 1,2,-1
 92 700 l 1,3,-1
 196 700 l 1,4,-1
 196 646 l 1,5,-1
 262 646 l 1,6,-1
 395 451 l 1,7,-1
 285 451 l 1,8,9
 286 451 286 451 218 554 c 1,10,-1
 201 590 l 1,11,-1
 196 580 l 1,12,-1
 196 128 l 1,13,-1
 186 80 l 1,14,-1
 231 90 l 1,15,16
 232 90 232 90 518 90 c 1,17,-1
 518 0 l 1,18,-1
 92 0 l 1,19,-1
 92 451 l 1,0,-1
EndSplineSet
EndUndoOperation
UndoOperation
Index: 1
Type: 1
WasModified: 1
WasOrder2: 1
Layer: 2
Width: 538
VWidth: 1000
LBearingChange: 0
UnicodeEnc: 0
InstructionsLength: 0
AnchorPoint: "Anchor-15" 140 370 basechar 0
AnchorPoint: "Anchor-14" 300 0 basechar 0
AnchorPoint: "Anchor-13" 201 584 basechar 0
AnchorPoint: "Anchor-12" 432 0 basechar 0
SplineSet
92 451 m 1,0,-1
 8 451 l 1,1,-1
 92 574 l 1,2,-1
 92 700 l 1,3,-1
 196 700 l 1,4,-1
 196 646 l 1,5,-1
 262 646 l 1,6,-1
 395 451 l 1,7,-1
 285 451 l 1,8,9
 286 451 286 451 218 554 c 1,10,-1
 201 590 l 1,11,-1
 196 580 l 1,12,-1
 196 128 l 1,13,-1
 186 80 l 1,14,-1
 231 90 l 1,15,16
 232 90 232 90 518 90 c 1,17,-1
 518 0 l 1,18,-1
 92 0 l 1,19,-1
 92 451 l 1,0,-1
EndSplineSet
EndUndoOperation
UndoOperation
Index: 2
Type: 3
WasModified: 0
WasOrder2: 1
Layer: 2
EndUndoOperation
EndUndoes
Redoes
EndRedoes
EndUndoRedoHistory
Fore
SplineSet
92 451 m 1,0,-1
 8 451 l 1,1,-1
 92 574 l 1,2,-1
 92 700 l 1,3,-1
 196 700 l 1,4,-1
 196 646 l 1,5,-1
 262 646 l 1,6,-1
 395 451 l 1,7,-1
 285 451 l 1,8,9
 286 451 286 451 218 554 c 1,10,-1
 201 590 l 1,11,-1
 196 580 l 1,12,-1
 196 128 l 1,13,-1
 186 80 l 1,14,-1
 231 90 l 1,15,16
 232 90 232 90 518 90 c 1,17,-1
 518 0 l 1,18,-1
 92 0 l 1,19,-1
 92 451 l 1,0,-1
EndSplineSet
EndChar

StartChar: Lslash
Encoding: 321 321 109
Width: 626
GlyphClass: 2
Flags: W
AnchorPoint: "Anchor-15" 165 370 basechar 0
AnchorPoint: "Anchor-14" 325 0 basechar 0
AnchorPoint: "Anchor-13" 312 700 basechar 0
AnchorPoint: "Anchor-12" 458 0 basechar 0
LayerCount: 2
UndoRedoHistory
Layer: 0
Undoes
UndoOperation
Index: 0
Type: 1
WasModified: 0
WasOrder2: 1
Layer: 2
Width: 501
VWidth: 800
LBearingChange: 0
UnicodeEnc: 0
InstructionsLength: 0
EndUndoOperation
EndUndoes
Redoes
EndRedoes
EndUndoRedoHistory
UndoRedoHistory
Layer: 1
Undoes
UndoOperation
Index: 0
Type: 1
WasModified: 1
WasOrder2: 1
Layer: 2
Width: 626
VWidth: 1000
LBearingChange: 0
UnicodeEnc: 0
InstructionsLength: 0
AnchorPoint: "Anchor-15" 165 370 basechar 0
AnchorPoint: "Anchor-14" 325 0 basechar 0
AnchorPoint: "Anchor-13" 312 700 basechar 0
AnchorPoint: "Anchor-12" 458 0 basechar 0
SplineSet
116 250 m 1,0,-1
 128 299 l 1,1,-1
 94 269 l 1,2,3
 94 268 94 268 10 212 c 1,4,-1
 10 329 l 1,5,-1
 95 385 l 1,6,-1
 129 395 l 1,7,-1
 116 426 l 1,8,-1
 116 700 l 1,9,-1
 221 700 l 1,10,-1
 221 504 l 1,11,-1
 209 454 l 1,12,-1
 241 484 l 1,13,-1
 336 542 l 1,14,-1
 336 426 l 1,15,-1
 244 369 l 1,16,17
 244 370 244 370 209 358 c 1,18,-1
 221 325 l 1,19,-1
 221 131 l 1,20,-1
 209 80 l 1,21,-1
 256 92 l 1,22,-1
 568 92 l 1,23,-1
 568 0 l 1,24,-1
 116 0 l 1,25,-1
 116 250 l 1,0,-1
EndSplineSet
EndUndoOperation
UndoOperation
Index: 1
Type: 1
WasModified: 1
WasOrder2: 1
Layer: 2
Width: 626
VWidth: 1000
LBearingChange: 0
UnicodeEnc: 0
InstructionsLength: 0
AnchorPoint: "Anchor-15" 165 370 basechar 0
AnchorPoint: "Anchor-14" 325 0 basechar 0
AnchorPoint: "Anchor-13" 312 700 basechar 0
AnchorPoint: "Anchor-12" 458 0 basechar 0
SplineSet
116 250 m 1,0,-1
 128 299 l 1,1,-1
 94 269 l 1,2,3
 94 268 94 268 10 212 c 1,4,-1
 10 329 l 1,5,-1
 95 385 l 1,6,-1
 129 395 l 1,7,-1
 116 426 l 1,8,-1
 116 700 l 1,9,-1
 221 700 l 1,10,-1
 221 504 l 1,11,-1
 209 454 l 1,12,-1
 241 484 l 1,13,-1
 336 542 l 1,14,-1
 336 426 l 1,15,-1
 244 369 l 1,16,17
 244 370 244 370 209 358 c 1,18,-1
 221 325 l 1,19,-1
 221 131 l 1,20,-1
 209 80 l 1,21,-1
 256 92 l 1,22,-1
 568 92 l 1,23,-1
 568 0 l 1,24,-1
 116 0 l 1,25,-1
 116 250 l 1,0,-1
EndSplineSet
EndUndoOperation
UndoOperation
Index: 2
Type: 3
WasModified: 0
WasOrder2: 1
Layer: 2
EndUndoOperation
EndUndoes
Redoes
EndRedoes
EndUndoRedoHistory
Fore
SplineSet
116 250 m 1,0,-1
 128 299 l 1,1,-1
 94 269 l 1,2,3
 94 268 94 268 10 212 c 1,4,-1
 10 329 l 1,5,-1
 95 385 l 1,6,-1
 129 395 l 1,7,-1
 116 426 l 1,8,-1
 116 700 l 1,9,-1
 221 700 l 1,10,-1
 221 504 l 1,11,-1
 209 454 l 1,12,-1
 241 484 l 1,13,-1
 336 542 l 1,14,-1
 336 426 l 1,15,-1
 244 369 l 1,16,17
 244 370 244 370 209 358 c 1,18,-1
 221 325 l 1,19,-1
 221 131 l 1,20,-1
 209 80 l 1,21,-1
 256 92 l 1,22,-1
 568 92 l 1,23,-1
 568 0 l 1,24,-1
 116 0 l 1,25,-1
 116 250 l 1,0,-1
EndSplineSet
EndChar

StartChar: M
Encoding: 77 77 110
Width: 905
GlyphClass: 2
Flags: W
AnchorPoint: "Anchor-14" 455 0 basechar 0
AnchorPoint: "Anchor-13" 455 700 basechar 0
LayerCount: 2
UndoRedoHistory
Layer: 0
Undoes
UndoOperation
Index: 0
Type: 1
WasModified: 0
WasOrder2: 1
Layer: 2
Width: 724
VWidth: 800
LBearingChange: 0
UnicodeEnc: 0
InstructionsLength: 0
EndUndoOperation
EndUndoes
Redoes
EndRedoes
EndUndoRedoHistory
UndoRedoHistory
Layer: 1
Undoes
UndoOperation
Index: 0
Type: 1
WasModified: 1
WasOrder2: 1
Layer: 2
Width: 905
VWidth: 1000
LBearingChange: 0
UnicodeEnc: 0
InstructionsLength: 0
AnchorPoint: "Anchor-14" 455 0 basechar 0
AnchorPoint: "Anchor-13" 455 700 basechar 0
SplineSet
92 700 m 1,0,-1
 258 700 l 1,1,-1
 435 194 l 1,2,-1
 451 120 l 1,3,-1
 469 194 l 1,4,-1
 649 700 l 1,5,-1
 814 700 l 1,6,-1
 814 0 l 1,7,-1
 709 0 l 1,8,-1
 709 504 l 1,9,-1
 714 599 l 1,10,-1
 506 20 l 1,11,-1
 394 20 l 1,12,-1
 191 594 l 1,13,-1
 196 504 l 1,14,-1
 196 0 l 1,15,-1
 92 0 l 1,16,-1
 92 700 l 1,0,-1
EndSplineSet
EndUndoOperation
UndoOperation
Index: 1
Type: 1
WasModified: 1
WasOrder2: 1
Layer: 2
Width: 905
VWidth: 1000
LBearingChange: 0
UnicodeEnc: 0
InstructionsLength: 0
AnchorPoint: "Anchor-14" 455 0 basechar 0
AnchorPoint: "Anchor-13" 455 700 basechar 0
SplineSet
92 700 m 1,0,-1
 258 700 l 1,1,-1
 435 194 l 1,2,-1
 451 120 l 1,3,-1
 469 194 l 1,4,-1
 649 700 l 1,5,-1
 814 700 l 1,6,-1
 814 0 l 1,7,-1
 709 0 l 1,8,-1
 709 504 l 1,9,-1
 714 599 l 1,10,-1
 506 20 l 1,11,-1
 394 20 l 1,12,-1
 191 594 l 1,13,-1
 196 504 l 1,14,-1
 196 0 l 1,15,-1
 92 0 l 1,16,-1
 92 700 l 1,0,-1
EndSplineSet
EndUndoOperation
UndoOperation
Index: 2
Type: 3
WasModified: 0
WasOrder2: 1
Layer: 2
EndUndoOperation
EndUndoes
Redoes
EndRedoes
EndUndoRedoHistory
Fore
SplineSet
92 700 m 1,0,-1
 258 700 l 1,1,-1
 435 194 l 1,2,-1
 451 120 l 1,3,-1
 469 194 l 1,4,-1
 649 700 l 1,5,-1
 814 700 l 1,6,-1
 814 0 l 1,7,-1
 709 0 l 1,8,-1
 709 504 l 1,9,-1
 714 599 l 1,10,-1
 506 20 l 1,11,-1
 394 20 l 1,12,-1
 191 594 l 1,13,-1
 196 504 l 1,14,-1
 196 0 l 1,15,-1
 92 0 l 1,16,-1
 92 700 l 1,0,-1
EndSplineSet
EndChar

StartChar: N
Encoding: 78 78 111
Width: 697
GlyphClass: 2
Flags: W
AnchorPoint: "Anchor-14" 349 0 basechar 0
AnchorPoint: "Anchor-13" 349 716 basechar 0
LayerCount: 2
UndoRedoHistory
Layer: 0
Undoes
UndoOperation
Index: 0
Type: 1
WasModified: 0
WasOrder2: 1
Layer: 2
Width: 558
VWidth: 800
LBearingChange: 0
UnicodeEnc: 0
InstructionsLength: 0
EndUndoOperation
EndUndoes
Redoes
EndRedoes
EndUndoRedoHistory
UndoRedoHistory
Layer: 1
Undoes
UndoOperation
Index: 0
Type: 1
WasModified: 1
WasOrder2: 1
Layer: 2
Width: 697
VWidth: 1000
LBearingChange: 0
UnicodeEnc: 0
InstructionsLength: 0
AnchorPoint: "Anchor-14" 349 0 basechar 0
AnchorPoint: "Anchor-13" 349 716 basechar 0
SplineSet
179 562 m 1,0,1
 178 562 178 562 192 445 c 1,2,-1
 192 0 l 1,3,-1
 92 0 l 1,4,-1
 92 700 l 1,5,-1
 219 700 l 1,6,-1
 515 152 l 1,7,-1
 505 262 l 1,8,-1
 505 700 l 1,9,-1
 605 700 l 1,10,-1
 605 0 l 1,11,-1
 489 0 l 1,12,-1
 179 562 l 1,0,1
EndSplineSet
EndUndoOperation
UndoOperation
Index: 1
Type: 1
WasModified: 1
WasOrder2: 1
Layer: 2
Width: 697
VWidth: 1000
LBearingChange: 0
UnicodeEnc: 0
InstructionsLength: 0
AnchorPoint: "Anchor-14" 349 0 basechar 0
AnchorPoint: "Anchor-13" 349 716 basechar 0
SplineSet
179 562 m 1,0,1
 178 562 178 562 192 445 c 1,2,-1
 192 0 l 1,3,-1
 92 0 l 1,4,-1
 92 700 l 1,5,-1
 219 700 l 1,6,-1
 515 152 l 1,7,-1
 505 262 l 1,8,-1
 505 700 l 1,9,-1
 605 700 l 1,10,-1
 605 0 l 1,11,-1
 489 0 l 1,12,-1
 179 562 l 1,0,1
EndSplineSet
EndUndoOperation
UndoOperation
Index: 2
Type: 3
WasModified: 0
WasOrder2: 1
Layer: 2
EndUndoOperation
EndUndoes
Redoes
EndRedoes
EndUndoRedoHistory
Fore
SplineSet
179 562 m 1,0,1
 178 562 178 562 192 445 c 1,2,-1
 192 0 l 1,3,-1
 92 0 l 1,4,-1
 92 700 l 1,5,-1
 219 700 l 1,6,-1
 515 152 l 1,7,-1
 505 262 l 1,8,-1
 505 700 l 1,9,-1
 605 700 l 1,10,-1
 605 0 l 1,11,-1
 489 0 l 1,12,-1
 179 562 l 1,0,1
EndSplineSet
EndChar

StartChar: uni019D
Encoding: 413 413 118
Width: 697
GlyphClass: 2
Flags: W
AnchorPoint: "Anchor-14" 349 0 basechar 0
AnchorPoint: "Anchor-13" 349 716 basechar 0
LayerCount: 2
UndoRedoHistory
Layer: 0
Undoes
UndoOperation
Index: 0
Type: 1
WasModified: 0
WasOrder2: 1
Layer: 2
Width: 558
VWidth: 800
LBearingChange: 0
UnicodeEnc: 0
InstructionsLength: 0
EndUndoOperation
EndUndoes
Redoes
EndRedoes
EndUndoRedoHistory
UndoRedoHistory
Layer: 1
Undoes
UndoOperation
Index: 0
Type: 1
WasModified: 1
WasOrder2: 1
Layer: 2
Width: 697
VWidth: 1000
LBearingChange: 0
UnicodeEnc: 0
InstructionsLength: 0
AnchorPoint: "Anchor-14" 349 0 basechar 0
AnchorPoint: "Anchor-13" 349 716 basechar 0
SplineSet
1 -121 m 1,0,1
 2 -121 2 -121 8 -121 c 2,2,3
 88 -121 88 -121 88 -35 c 2,4,-1
 88 24 l 1,5,-1
 92 24 l 1,6,-1
 92 700 l 1,7,-1
 219 700 l 1,8,-1
 515 152 l 1,9,-1
 505 262 l 1,10,-1
 505 700 l 1,11,-1
 605 700 l 1,12,-1
 605 0 l 1,13,-1
 489 0 l 1,14,-1
 179 562 l 1,15,16
 178 562 178 562 192 445 c 1,17,-1
 192 0 l 1,18,-1
 189 0 l 1,19,-1
 189 -36 l 2,20,21
 189 -115 189 -115 144.5 -163.5 c 128,-1,22
 100 -212 100 -212 12 -212 c 2,23,-1
 1 -212 l 1,24,-1
 1 -121 l 1,0,1
EndSplineSet
EndUndoOperation
UndoOperation
Index: 1
Type: 1
WasModified: 1
WasOrder2: 1
Layer: 2
Width: 697
VWidth: 1000
LBearingChange: 0
UnicodeEnc: 0
InstructionsLength: 0
AnchorPoint: "Anchor-14" 349 0 basechar 0
AnchorPoint: "Anchor-13" 349 716 basechar 0
SplineSet
1 -121 m 1,0,1
 2 -121 2 -121 8 -121 c 2,2,3
 88 -121 88 -121 88 -35 c 2,4,-1
 88 24 l 1,5,-1
 92 24 l 1,6,-1
 92 700 l 1,7,-1
 219 700 l 1,8,-1
 515 152 l 1,9,-1
 505 262 l 1,10,-1
 505 700 l 1,11,-1
 605 700 l 1,12,-1
 605 0 l 1,13,-1
 489 0 l 1,14,-1
 179 562 l 1,15,16
 178 562 178 562 192 445 c 1,17,-1
 192 0 l 1,18,-1
 189 0 l 1,19,-1
 189 -36 l 2,20,21
 189 -115 189 -115 144.5 -163.5 c 128,-1,22
 100 -212 100 -212 12 -212 c 2,23,-1
 1 -212 l 1,24,-1
 1 -121 l 1,0,1
EndSplineSet
EndUndoOperation
UndoOperation
Index: 2
Type: 3
WasModified: 0
WasOrder2: 1
Layer: 2
EndUndoOperation
EndUndoes
Redoes
EndRedoes
EndUndoRedoHistory
Fore
SplineSet
1 -121 m 1,0,1
 2 -121 2 -121 8 -121 c 2,2,3
 88 -121 88 -121 88 -35 c 2,4,-1
 88 24 l 1,5,-1
 92 24 l 1,6,-1
 92 700 l 1,7,-1
 219 700 l 1,8,-1
 515 152 l 1,9,-1
 505 262 l 1,10,-1
 505 700 l 1,11,-1
 605 700 l 1,12,-1
 605 0 l 1,13,-1
 489 0 l 1,14,-1
 179 562 l 1,15,16
 178 562 178 562 192 445 c 1,17,-1
 192 0 l 1,18,-1
 189 0 l 1,19,-1
 189 -36 l 2,20,21
 189 -115 189 -115 144.5 -163.5 c 128,-1,22
 100 -212 100 -212 12 -212 c 2,23,-1
 1 -212 l 1,24,-1
 1 -121 l 1,0,1
EndSplineSet
EndChar

StartChar: Eng
Encoding: 330 330 120
Width: 697
GlyphClass: 2
Flags: W
AnchorPoint: "Anchor-14" 314 0 basechar 0
AnchorPoint: "Anchor-13" 314 700 basechar 0
LayerCount: 2
UndoRedoHistory
Layer: 0
Undoes
UndoOperation
Index: 0
Type: 1
WasModified: 0
WasOrder2: 1
Layer: 2
Width: 558
VWidth: 800
LBearingChange: 0
UnicodeEnc: 0
InstructionsLength: 0
EndUndoOperation
EndUndoes
Redoes
EndRedoes
EndUndoRedoHistory
UndoRedoHistory
Layer: 1
Undoes
UndoOperation
Index: 0
Type: 1
WasModified: 1
WasOrder2: 1
Layer: 2
Width: 697
VWidth: 1000
LBearingChange: 0
UnicodeEnc: 0
InstructionsLength: 0
AnchorPoint: "Anchor-14" 314 0 basechar 0
AnchorPoint: "Anchor-13" 314 700 basechar 0
SplineSet
489 0 m 1,0,-1
 179 562 l 1,1,2
 178 562 178 562 192 445 c 1,3,-1
 192 0 l 1,4,-1
 92 0 l 1,5,-1
 92 700 l 1,6,-1
 219 700 l 1,7,-1
 515 152 l 1,8,-1
 505 262 l 1,9,-1
 505 700 l 1,10,-1
 605 700 l 1,11,-1
 605 0 l 1,12,13
 604 0 604 0 602 0 c 1,14,-1
 602 -32 l 2,15,16
 602 -122 602 -122 556 -173.5 c 128,-1,17
 510 -225 510 -225 419 -225 c 2,18,19
 420 -225 420 -225 408 -225 c 1,20,-1
 408 -126 l 1,21,-1
 412 -126 l 2,22,23
 452 -126 452 -126 468.5 -103 c 128,-1,24
 485 -80 485 -80 485 -32 c 2,25,-1
 485 0 l 1,26,-1
 489 0 l 1,0,-1
EndSplineSet
EndUndoOperation
UndoOperation
Index: 1
Type: 1
WasModified: 1
WasOrder2: 1
Layer: 2
Width: 697
VWidth: 1000
LBearingChange: 0
UnicodeEnc: 0
InstructionsLength: 0
AnchorPoint: "Anchor-14" 314 0 basechar 0
AnchorPoint: "Anchor-13" 314 700 basechar 0
SplineSet
489 0 m 1,0,-1
 179 562 l 1,1,2
 178 562 178 562 192 445 c 1,3,-1
 192 0 l 1,4,-1
 92 0 l 1,5,-1
 92 700 l 1,6,-1
 219 700 l 1,7,-1
 515 152 l 1,8,-1
 505 262 l 1,9,-1
 505 700 l 1,10,-1
 605 700 l 1,11,-1
 605 0 l 1,12,13
 604 0 604 0 602 0 c 1,14,-1
 602 -32 l 2,15,16
 602 -122 602 -122 556 -173.5 c 128,-1,17
 510 -225 510 -225 419 -225 c 2,18,19
 420 -225 420 -225 408 -225 c 1,20,-1
 408 -126 l 1,21,-1
 412 -126 l 2,22,23
 452 -126 452 -126 468.5 -103 c 128,-1,24
 485 -80 485 -80 485 -32 c 2,25,-1
 485 0 l 1,26,-1
 489 0 l 1,0,-1
EndSplineSet
EndUndoOperation
UndoOperation
Index: 2
Type: 3
WasModified: 0
WasOrder2: 1
Layer: 2
EndUndoOperation
EndUndoes
Redoes
EndRedoes
EndUndoRedoHistory
Fore
SplineSet
489 0 m 1,0,-1
 179 562 l 1,1,2
 178 562 178 562 192 445 c 1,3,-1
 192 0 l 1,4,-1
 92 0 l 1,5,-1
 92 700 l 1,6,-1
 219 700 l 1,7,-1
 515 152 l 1,8,-1
 505 262 l 1,9,-1
 505 700 l 1,10,-1
 605 700 l 1,11,-1
 605 0 l 1,12,13
 604 0 604 0 602 0 c 1,14,-1
 602 -32 l 2,15,16
 602 -122 602 -122 556 -173.5 c 128,-1,17
 510 -225 510 -225 419 -225 c 2,18,19
 420 -225 420 -225 408 -225 c 1,20,-1
 408 -126 l 1,21,-1
 412 -126 l 2,22,23
 452 -126 452 -126 468.5 -103 c 128,-1,24
 485 -80 485 -80 485 -32 c 2,25,-1
 485 0 l 1,26,-1
 489 0 l 1,0,-1
EndSplineSet
EndChar

StartChar: O
Encoding: 79 79 121
Width: 655
GlyphClass: 2
Flags: W
AnchorPoint: "Anchor-15" 316 358 basechar 0
AnchorPoint: "Anchor-14" 324 0 basechar 0
AnchorPoint: "Anchor-13" 324 700 basechar 0
AnchorPoint: "Anchor-12" 491 8 basechar 0
LayerCount: 2
UndoRedoHistory
Layer: 0
Undoes
UndoOperation
Index: 0
Type: 1
WasModified: 0
WasOrder2: 1
Layer: 2
Width: 524
VWidth: 800
LBearingChange: 0
UnicodeEnc: 0
InstructionsLength: 0
EndUndoOperation
EndUndoes
Redoes
EndRedoes
EndUndoRedoHistory
UndoRedoHistory
Layer: 1
Undoes
UndoOperation
Index: 0
Type: 1
WasModified: 1
WasOrder2: 1
Layer: 2
Width: 655
VWidth: 1000
LBearingChange: 0
UnicodeEnc: 0
InstructionsLength: 0
AnchorPoint: "Anchor-15" 316 358 basechar 0
AnchorPoint: "Anchor-14" 324 0 basechar 0
AnchorPoint: "Anchor-13" 324 700 basechar 0
AnchorPoint: "Anchor-12" 491 8 basechar 0
SplineSet
135.5 52.5 m 0,0,1
 70 121 70 121 70 245 c 2,2,-1
 70 454 l 2,3,4
 70 578 70 578 138 647 c 128,-1,5
 206 716 206 716 328 716 c 256,6,7
 449 716 449 716 517.5 646 c 128,-1,8
 586 576 586 576 586 454 c 2,9,-1
 586 246 l 2,10,11
 586 131 586 131 518.5 57.5 c 0,12,13
 452 -16 452 -16 328 -16 c 0,14,15
 202 -16 202 -16 135.5 52.5 c 0,0,1
328 74 m 256,16,17
 482 74 482 74 481 251 c 2,18,-1
 481 449 l 2,19,20
 481 541 481 541 441.5 583.5 c 128,-1,21
 402 626 402 626 328 626 c 256,22,23
 253 626 253 626 213.5 583.5 c 128,-1,24
 174 541 174 541 174 449 c 2,25,-1
 174 251 l 2,26,27
 174 74 174 74 328 74 c 256,16,17
EndSplineSet
EndUndoOperation
UndoOperation
Index: 1
Type: 1
WasModified: 1
WasOrder2: 1
Layer: 2
Width: 655
VWidth: 1000
LBearingChange: 0
UnicodeEnc: 0
InstructionsLength: 0
AnchorPoint: "Anchor-15" 316 358 basechar 0
AnchorPoint: "Anchor-14" 324 0 basechar 0
AnchorPoint: "Anchor-13" 324 700 basechar 0
AnchorPoint: "Anchor-12" 491 8 basechar 0
SplineSet
135.5 52.5 m 0,0,1
 70 121 70 121 70 245 c 2,2,-1
 70 454 l 2,3,4
 70 578 70 578 138 647 c 128,-1,5
 206 716 206 716 328 716 c 256,6,7
 449 716 449 716 517.5 646 c 128,-1,8
 586 576 586 576 586 454 c 2,9,-1
 586 246 l 2,10,11
 586 131 586 131 518.5 57.5 c 0,12,13
 452 -16 452 -16 328 -16 c 0,14,15
 202 -16 202 -16 135.5 52.5 c 0,0,1
328 74 m 256,16,17
 482 74 482 74 481 251 c 2,18,-1
 481 449 l 2,19,20
 481 541 481 541 441.5 583.5 c 128,-1,21
 402 626 402 626 328 626 c 256,22,23
 253 626 253 626 213.5 583.5 c 128,-1,24
 174 541 174 541 174 449 c 2,25,-1
 174 251 l 2,26,27
 174 74 174 74 328 74 c 256,16,17
EndSplineSet
EndUndoOperation
UndoOperation
Index: 2
Type: 3
WasModified: 0
WasOrder2: 1
Layer: 2
EndUndoOperation
EndUndoes
Redoes
EndRedoes
EndUndoRedoHistory
Fore
SplineSet
136 52 m 0,0,1
 70 120 70 120 70 245 c 2,2,-1
 70 454 l 2,3,4
 70 578 70 578 138 647 c 128,-1,5
 206 716 206 716 328 716 c 256,6,7
 449 716 449 716 517.5 646 c 128,-1,8
 586 576 586 576 586 454 c 2,9,-1
 586 246 l 2,10,11
 586 132 586 132 518 58 c 0,12,13
 452 -16 452 -16 328 -16 c 0,14,15
 202 -16 202 -16 136 52 c 0,0,1
328 74 m 256,16,17
 482 74 482 74 481 251 c 2,18,-1
 481 449 l 2,19,20
 481 541 481 541 441.5 583.5 c 128,-1,21
 402 626 402 626 328 626 c 256,22,23
 253 626 253 626 213.5 583.5 c 128,-1,24
 174 541 174 541 174 449 c 2,25,-1
 174 251 l 2,26,27
 174 74 174 74 328 74 c 256,16,17
EndSplineSet
Substitution2: "Single Substitution lookup 25 subtable" ordmasculine
Substitution2: "'aalt' Access All Alternates in Latin lookup 0 subtable" ordmasculine
EndChar

StartChar: Ohorn
Encoding: 416 416 135
Width: 626
GlyphClass: 2
Flags: W
AnchorPoint: "Anchor-14" 314 0 basechar 0
AnchorPoint: "Anchor-13" 314 700 basechar 0
LayerCount: 2
UndoRedoHistory
Layer: 0
Undoes
UndoOperation
Index: 0
Type: 1
WasModified: 0
WasOrder2: 1
Layer: 2
Width: 501
VWidth: 800
LBearingChange: 0
UnicodeEnc: 0
InstructionsLength: 0
EndUndoOperation
EndUndoes
Redoes
EndRedoes
EndUndoRedoHistory
UndoRedoHistory
Layer: 1
Undoes
UndoOperation
Index: 0
Type: 1
WasModified: 1
WasOrder2: 1
Layer: 2
Width: 626
VWidth: 1000
LBearingChange: 0
UnicodeEnc: 0
InstructionsLength: 0
AnchorPoint: "Anchor-14" 314 0 basechar 0
AnchorPoint: "Anchor-13" 314 700 basechar 0
SplineSet
124 52 m 0,0,1
 59 120 59 120 59 245 c 2,2,-1
 59 454 l 2,3,4
 59 579 59 579 125.5 647.5 c 128,-1,5
 192 716 192 716 312 716 c 0,6,7
 402 716 402 716 462 674 c 1,8,-1
 480 642 l 1,9,-1
 501 670 l 1,10,11
 516 678 516 678 522 688 c 128,-1,12
 528 698 528 698 528 716 c 2,13,-1
 528 764 l 1,14,-1
 624 764 l 1,15,-1
 624 726 l 2,16,17
 624 676 624 676 609.5 645.5 c 128,-1,18
 595 615 595 615 566 596 c 1,19,-1
 528 582 l 1,20,-1
 556 550 l 1,21,22
 568 488 568 488 568 454 c 2,23,-1
 568 246 l 2,24,25
 568 120 568 120 503 52 c 128,-1,26
 438 -16 438 -16 312 -16 c 0,27,28
 188 -16 188 -16 124 52 c 0,0,1
202.5 121.5 m 0,29,30
 240 78 240 78 312 78 c 0,31,32
 386 78 386 78 424 121 c 128,-1,33
 462 164 462 164 462 248 c 2,34,-1
 462 455 l 2,35,36
 462 534 462 534 423.5 578 c 0,37,38
 384 622 384 622 312 622 c 0,39,40
 241 622 241 622 202.5 578 c 128,-1,41
 164 534 164 534 164 455 c 2,42,43
 164 456 164 456 164 248 c 2,44,45
 164 166 164 166 202.5 121.5 c 0,29,30
EndSplineSet
EndUndoOperation
UndoOperation
Index: 1
Type: 1
WasModified: 1
WasOrder2: 1
Layer: 2
Width: 626
VWidth: 1000
LBearingChange: 0
UnicodeEnc: 0
InstructionsLength: 0
AnchorPoint: "Anchor-14" 314 0 basechar 0
AnchorPoint: "Anchor-13" 314 700 basechar 0
SplineSet
124 52 m 0,0,1
 59 120 59 120 59 245 c 2,2,-1
 59 454 l 2,3,4
 59 579 59 579 125.5 647.5 c 128,-1,5
 192 716 192 716 312 716 c 0,6,7
 402 716 402 716 462 674 c 1,8,-1
 480 642 l 1,9,-1
 501 670 l 1,10,11
 516 678 516 678 522 688 c 128,-1,12
 528 698 528 698 528 716 c 2,13,-1
 528 764 l 1,14,-1
 624 764 l 1,15,-1
 624 726 l 2,16,17
 624 676 624 676 609.5 645.5 c 128,-1,18
 595 615 595 615 566 596 c 1,19,-1
 528 582 l 1,20,-1
 556 550 l 1,21,22
 568 488 568 488 568 454 c 2,23,-1
 568 246 l 2,24,25
 568 120 568 120 503 52 c 128,-1,26
 438 -16 438 -16 312 -16 c 0,27,28
 188 -16 188 -16 124 52 c 0,0,1
202.5 121.5 m 0,29,30
 240 78 240 78 312 78 c 0,31,32
 386 78 386 78 424 121 c 128,-1,33
 462 164 462 164 462 248 c 2,34,-1
 462 455 l 2,35,36
 462 534 462 534 423.5 578 c 0,37,38
 384 622 384 622 312 622 c 0,39,40
 241 622 241 622 202.5 578 c 128,-1,41
 164 534 164 534 164 455 c 2,42,43
 164 456 164 456 164 248 c 2,44,45
 164 166 164 166 202.5 121.5 c 0,29,30
EndSplineSet
EndUndoOperation
UndoOperation
Index: 2
Type: 3
WasModified: 0
WasOrder2: 1
Layer: 2
EndUndoOperation
EndUndoes
Redoes
EndRedoes
EndUndoRedoHistory
Fore
SplineSet
124 52 m 0,0,1
 59 120 59 120 59 245 c 2,2,-1
 59 454 l 2,3,4
 59 579 59 579 125.5 647.5 c 128,-1,5
 192 716 192 716 312 716 c 0,6,7
 402 716 402 716 462 674 c 1,8,-1
 480 642 l 1,9,-1
 501 670 l 1,10,11
 516 678 516 678 522 688 c 128,-1,12
 528 698 528 698 528 716 c 2,13,-1
 528 764 l 1,14,-1
 624 764 l 1,15,-1
 624 726 l 2,16,17
 624 676 624 676 609.5 645.5 c 128,-1,18
 595 615 595 615 566 596 c 1,19,-1
 528 582 l 1,20,-1
 556 550 l 1,21,22
 568 488 568 488 568 454 c 2,23,-1
 568 246 l 2,24,25
 568 120 568 120 503 52 c 128,-1,26
 438 -16 438 -16 312 -16 c 0,27,28
 188 -16 188 -16 124 52 c 0,0,1
202 122 m 0,29,30
 240 78 240 78 312 78 c 0,31,32
 386 78 386 78 424 121 c 128,-1,33
 462 164 462 164 462 248 c 2,34,-1
 462 455 l 2,35,36
 462 534 462 534 424 578 c 0,37,38
 384 622 384 622 312 622 c 0,39,40
 241 622 241 622 202.5 578 c 128,-1,41
 164 534 164 534 164 455 c 2,42,43
 164 456 164 456 164 248 c 2,44,45
 164 166 164 166 202 122 c 0,29,30
EndSplineSet
EndChar

StartChar: uni0186
Encoding: 390 390 145
Width: 638
GlyphClass: 2
Flags: W
AnchorPoint: "Anchor-15" 321 351 basechar 0
AnchorPoint: "Anchor-14" 316 -12 basechar 0
AnchorPoint: "Anchor-13" 318 704 basechar 0
AnchorPoint: "Anchor-12" 316 -14 basechar 0
LayerCount: 2
UndoRedoHistory
Layer: 0
Undoes
UndoOperation
Index: 0
Type: 1
WasModified: 0
WasOrder2: 1
Layer: 2
Width: 511
VWidth: 800
LBearingChange: 0
UnicodeEnc: 0
InstructionsLength: 0
EndUndoOperation
EndUndoes
Redoes
EndRedoes
EndUndoRedoHistory
UndoRedoHistory
Layer: 1
Undoes
UndoOperation
Index: 0
Type: 1
WasModified: 1
WasOrder2: 1
Layer: 2
Width: 638
VWidth: 1000
LBearingChange: 0
UnicodeEnc: 0
InstructionsLength: 0
AnchorPoint: "Anchor-15" 321 351 basechar 0
AnchorPoint: "Anchor-14" 316 -12 basechar 0
AnchorPoint: "Anchor-13" 318 704 basechar 0
AnchorPoint: "Anchor-12" 316 -14 basechar 0
SplineSet
502 56.5 m 0,0,1
 434 -15 434 -15 312 -15 c 256,2,3
 190 -15 190 -15 124.5 51.5 c 128,-1,4
 59 118 59 118 55 225 c 1,5,6
 56 225 56 225 158 225 c 1,7,8
 168 75 168 75 309 75 c 0,9,10
 383 75 383 75 424 117.5 c 128,-1,11
 465 160 465 160 465 245 c 2,12,-1
 465 445 l 2,13,14
 466 626 466 626 308 626 c 0,15,16
 234 626 234 626 196.5 587 c 128,-1,17
 159 548 159 548 160 470 c 1,18,-1
 55 470 l 1,19,20
 55 592 55 592 120.5 653.5 c 128,-1,21
 186 715 186 715 306 715 c 0,22,23
 432 715 432 715 500.5 640.5 c 128,-1,24
 569 566 569 566 569 446 c 2,25,-1
 569 246 l 2,26,27
 569 128 569 128 502 56.5 c 0,0,1
EndSplineSet
EndUndoOperation
UndoOperation
Index: 1
Type: 1
WasModified: 1
WasOrder2: 1
Layer: 2
Width: 638
VWidth: 1000
LBearingChange: 0
UnicodeEnc: 0
InstructionsLength: 0
AnchorPoint: "Anchor-15" 321 351 basechar 0
AnchorPoint: "Anchor-14" 316 -12 basechar 0
AnchorPoint: "Anchor-13" 318 704 basechar 0
AnchorPoint: "Anchor-12" 316 -14 basechar 0
SplineSet
502 56.5 m 0,0,1
 434 -15 434 -15 312 -15 c 256,2,3
 190 -15 190 -15 124.5 51.5 c 128,-1,4
 59 118 59 118 55 225 c 1,5,6
 56 225 56 225 158 225 c 1,7,8
 168 75 168 75 309 75 c 0,9,10
 383 75 383 75 424 117.5 c 128,-1,11
 465 160 465 160 465 245 c 2,12,-1
 465 445 l 2,13,14
 466 626 466 626 308 626 c 0,15,16
 234 626 234 626 196.5 587 c 128,-1,17
 159 548 159 548 160 470 c 1,18,-1
 55 470 l 1,19,20
 55 592 55 592 120.5 653.5 c 128,-1,21
 186 715 186 715 306 715 c 0,22,23
 432 715 432 715 500.5 640.5 c 128,-1,24
 569 566 569 566 569 446 c 2,25,-1
 569 246 l 2,26,27
 569 128 569 128 502 56.5 c 0,0,1
EndSplineSet
EndUndoOperation
UndoOperation
Index: 2
Type: 3
WasModified: 0
WasOrder2: 1
Layer: 2
EndUndoOperation
EndUndoes
Redoes
EndRedoes
EndUndoRedoHistory
Fore
SplineSet
502 56 m 0,0,1
 434 -16 434 -16 312 -15 c 256,2,3
 190 -15 190 -15 124.5 51.5 c 128,-1,4
 59 118 59 118 55 225 c 1,5,6
 56 225 56 225 158 225 c 1,7,8
 168 75 168 75 309 75 c 0,9,10
 383 75 383 75 424 117.5 c 128,-1,11
 465 160 465 160 465 245 c 2,12,-1
 465 445 l 2,13,14
 466 626 466 626 308 626 c 0,15,16
 234 626 234 626 196.5 587 c 128,-1,17
 159 548 159 548 160 470 c 1,18,-1
 55 470 l 1,19,20
 55 592 55 592 120.5 653.5 c 128,-1,21
 186 715 186 715 306 715 c 0,22,23
 432 715 432 715 500.5 640.5 c 128,-1,24
 569 566 569 566 569 446 c 2,25,-1
 569 246 l 2,26,27
 569 128 569 128 502 56 c 0,0,1
EndSplineSet
EndChar

StartChar: Oslash
Encoding: 216 216 146
Width: 626
GlyphClass: 1
Flags: W
LayerCount: 2
UndoRedoHistory
Layer: 0
Undoes
UndoOperation
Index: 0
Type: 1
WasModified: 0
WasOrder2: 1
Layer: 2
Width: 501
VWidth: 800
LBearingChange: 0
UnicodeEnc: 0
InstructionsLength: 0
EndUndoOperation
EndUndoes
Redoes
EndRedoes
EndUndoRedoHistory
UndoRedoHistory
Layer: 1
Undoes
UndoOperation
Index: 0
Type: 1
WasModified: 1
WasOrder2: 1
Layer: 2
Width: 626
VWidth: 1000
LBearingChange: 0
UnicodeEnc: 0
InstructionsLength: 0
SplineSet
84 85 m 1,0,-1
 120 101 l 1,1,-1
 108 111 l 2,2,3
 80 133 80 133 66 171.5 c 128,-1,4
 52 210 52 210 52 252 c 2,5,-1
 52 455 l 2,6,7
 52 533 52 533 85 591.5 c 128,-1,8
 118 650 118 650 176.5 682.5 c 128,-1,9
 235 715 235 715 310 715 c 0,10,11
 344 715 344 715 376 706.5 c 128,-1,12
 408 698 408 698 430 684 c 1,13,-1
 454 651 l 1,14,-1
 469 696 l 1,15,-1
 516 775 l 1,16,-1
 624 775 l 1,17,-1
 548 649 l 1,18,-1
 499 610 l 1,19,-1
 524 600 l 1,20,21
 572 558 572 558 571 458 c 2,22,-1
 571 246 l 2,23,24
 571 167 571 167 539.5 108 c 128,-1,25
 508 49 508 49 449.5 17 c 128,-1,26
 391 -15 391 -15 315 -15 c 0,27,28
 283 -15 283 -15 246 -5.5 c 128,-1,29
 209 4 209 4 185 21 c 1,30,-1
 164 56 l 1,31,-1
 161 34 l 1,32,-1
 114 -55 l 1,33,-1
 10 -55 l 1,34,-1
 84 85 l 1,0,-1
164 162 m 1,36,-1
 336 526 l 1,37,-1
 415 595 l 1,38,39
 372 622 372 622 318 622 c 0,40,41
 246 622 246 622 200 575.5 c 0,42,43
 154 528 154 528 154 452 c 2,44,-1
 154 228 l 2,45,35
 155 202 155 202 164 162 c 1,36,-1
311 76 m 0,46,47
 383 76 383 76 426.5 124 c 128,-1,48
 470 172 470 172 470 260 c 2,49,-1
 470 488 l 2,50,51
 468 519 468 519 455 555 c 1,52,53
 454 556 454 556 222 98 c 1,54,55
 260 76 260 76 311 76 c 0,46,47
EndSplineSet
EndUndoOperation
UndoOperation
Index: 1
Type: 1
WasModified: 1
WasOrder2: 1
Layer: 2
Width: 626
VWidth: 1000
LBearingChange: 0
UnicodeEnc: 0
InstructionsLength: 0
SplineSet
84 85 m 1,0,-1
 120 101 l 1,1,-1
 108 111 l 2,2,3
 80 133 80 133 66 171.5 c 128,-1,4
 52 210 52 210 52 252 c 2,5,-1
 52 455 l 2,6,7
 52 533 52 533 85 591.5 c 128,-1,8
 118 650 118 650 176.5 682.5 c 128,-1,9
 235 715 235 715 310 715 c 0,10,11
 344 715 344 715 376 706.5 c 128,-1,12
 408 698 408 698 430 684 c 1,13,-1
 454 651 l 1,14,-1
 469 696 l 1,15,-1
 516 775 l 1,16,-1
 624 775 l 1,17,-1
 548 649 l 1,18,-1
 499 610 l 1,19,-1
 524 600 l 1,20,21
 572 558 572 558 571 458 c 2,22,-1
 571 246 l 2,23,24
 571 167 571 167 539.5 108 c 128,-1,25
 508 49 508 49 449.5 17 c 128,-1,26
 391 -15 391 -15 315 -15 c 0,27,28
 283 -15 283 -15 246 -5.5 c 128,-1,29
 209 4 209 4 185 21 c 1,30,-1
 164 56 l 1,31,-1
 161 34 l 1,32,-1
 114 -55 l 1,33,-1
 10 -55 l 1,34,-1
 84 85 l 1,0,-1
164 162 m 1,36,-1
 336 526 l 1,37,-1
 415 595 l 1,38,39
 372 622 372 622 318 622 c 0,40,41
 246 622 246 622 200 575.5 c 0,42,43
 154 528 154 528 154 452 c 2,44,-1
 154 228 l 2,45,35
 155 202 155 202 164 162 c 1,36,-1
311 76 m 0,46,47
 383 76 383 76 426.5 124 c 128,-1,48
 470 172 470 172 470 260 c 2,49,-1
 470 488 l 2,50,51
 468 519 468 519 455 555 c 1,52,53
 454 556 454 556 222 98 c 1,54,55
 260 76 260 76 311 76 c 0,46,47
EndSplineSet
EndUndoOperation
UndoOperation
Index: 2
Type: 3
WasModified: 0
WasOrder2: 1
Layer: 2
EndUndoOperation
EndUndoes
Redoes
EndRedoes
EndUndoRedoHistory
Fore
SplineSet
84 85 m 1,0,-1
 120 101 l 1,1,-1
 108 111 l 2,2,3
 80 133 80 133 66 171.5 c 128,-1,4
 52 210 52 210 52 252 c 2,5,-1
 52 455 l 2,6,7
 52 533 52 533 85 591.5 c 128,-1,8
 118 650 118 650 176.5 682.5 c 128,-1,9
 235 715 235 715 310 715 c 0,10,11
 344 715 344 715 376 706.5 c 128,-1,12
 408 698 408 698 430 684 c 1,13,-1
 454 651 l 1,14,-1
 469 696 l 1,15,-1
 516 775 l 1,16,-1
 624 775 l 1,17,-1
 548 649 l 1,18,-1
 499 610 l 1,19,-1
 524 600 l 1,20,21
 572 558 572 558 571 458 c 2,22,-1
 571 246 l 2,23,24
 571 167 571 167 539.5 108 c 128,-1,25
 508 49 508 49 449.5 17 c 128,-1,26
 391 -15 391 -15 315 -15 c 0,27,28
 283 -15 283 -15 246 -5.5 c 128,-1,29
 209 4 209 4 185 21 c 1,30,-1
 164 56 l 1,31,-1
 161 34 l 1,32,-1
 114 -55 l 1,33,-1
 10 -55 l 1,34,-1
 84 85 l 1,0,-1
164 162 m 1,36,-1
 336 526 l 1,37,-1
 415 595 l 1,38,39
 372 622 372 622 318 622 c 0,40,41
 246 622 246 622 200 576 c 0,42,43
 154 528 154 528 154 452 c 2,44,-1
 154 228 l 2,45,35
 155 202 155 202 164 162 c 1,36,-1
311 76 m 0,46,47
 383 76 383 76 426.5 124 c 128,-1,48
 470 172 470 172 470 260 c 2,49,-1
 470 488 l 2,50,51
 468 519 468 519 455 555 c 1,52,53
 454 556 454 556 222 98 c 1,54,55
 260 76 260 76 311 76 c 0,46,47
EndSplineSet
EndChar

StartChar: OE
Encoding: 338 338 150
Width: 991
GlyphClass: 1
Flags: W
LayerCount: 2
UndoRedoHistory
Layer: 0
Undoes
UndoOperation
Index: 0
Type: 1
WasModified: 0
WasOrder2: 1
Layer: 2
Width: 793
VWidth: 800
LBearingChange: 0
UnicodeEnc: 0
InstructionsLength: 0
EndUndoOperation
EndUndoes
Redoes
EndRedoes
EndUndoRedoHistory
UndoRedoHistory
Layer: 1
Undoes
UndoOperation
Index: 0
Type: 1
WasModified: 1
WasOrder2: 1
Layer: 2
Width: 991
VWidth: 1000
LBearingChange: 0
UnicodeEnc: 0
InstructionsLength: 0
SplineSet
136 55 m 128,-1,1
 70 125 70 125 70 251 c 2,2,3
 70 250 70 250 70 452 c 2,4,5
 70 577 70 577 139.5 647.5 c 0,6,7
 210 718 210 718 338 718 c 0,8,9
 424 718 424 718 472 686 c 1,10,-1
 508 632 l 1,11,-1
 508 700 l 1,12,-1
 932 700 l 1,13,-1
 932 606 l 1,14,-1
 639 606 l 1,15,-1
 601 615 l 1,16,17
 601 616 601 616 610 578 c 1,18,-1
 610 434 l 1,19,-1
 600 398 l 1,20,-1
 639 405 l 1,21,-1
 884 405 l 1,22,-1
 884 311 l 1,23,-1
 639 311 l 1,24,-1
 600 319 l 1,25,26
 600 318 600 318 610 282 c 1,27,-1
 610 120 l 1,28,-1
 601 85 l 1,29,-1
 639 94 l 1,30,-1
 934 94 l 1,31,-1
 934 0 l 1,32,-1
 508 0 l 1,33,-1
 508 61 l 1,34,35
 508 60 508 60 471 12 c 1,36,37
 429 -16 429 -16 336 -15 c 0,38,0
 202 -15 202 -15 136 55 c 128,-1,1
338 79 m 0,39,40
 419 79 419 79 462 122.5 c 128,-1,41
 505 166 505 166 505 249 c 2,42,-1
 505 450 l 2,43,44
 505 536 505 536 462 580.5 c 0,45,46
 420 625 420 625 338 625 c 128,-1,47
 256 625 256 625 215 580.5 c 128,-1,48
 174 536 174 536 174 454 c 2,49,-1
 174 251 l 2,50,51
 174 79 174 79 338 79 c 0,39,40
EndSplineSet
EndUndoOperation
UndoOperation
Index: 1
Type: 1
WasModified: 1
WasOrder2: 1
Layer: 2
Width: 991
VWidth: 1000
LBearingChange: 0
UnicodeEnc: 0
InstructionsLength: 0
SplineSet
136 55 m 128,-1,1
 70 125 70 125 70 251 c 2,2,3
 70 250 70 250 70 452 c 2,4,5
 70 577 70 577 139.5 647.5 c 0,6,7
 210 718 210 718 338 718 c 0,8,9
 424 718 424 718 472 686 c 1,10,-1
 508 632 l 1,11,-1
 508 700 l 1,12,-1
 932 700 l 1,13,-1
 932 606 l 1,14,-1
 639 606 l 1,15,-1
 601 615 l 1,16,17
 601 616 601 616 610 578 c 1,18,-1
 610 434 l 1,19,-1
 600 398 l 1,20,-1
 639 405 l 1,21,-1
 884 405 l 1,22,-1
 884 311 l 1,23,-1
 639 311 l 1,24,-1
 600 319 l 1,25,26
 600 318 600 318 610 282 c 1,27,-1
 610 120 l 1,28,-1
 601 85 l 1,29,-1
 639 94 l 1,30,-1
 934 94 l 1,31,-1
 934 0 l 1,32,-1
 508 0 l 1,33,-1
 508 61 l 1,34,35
 508 60 508 60 471 12 c 1,36,37
 429 -16 429 -16 336 -15 c 0,38,0
 202 -15 202 -15 136 55 c 128,-1,1
338 79 m 0,39,40
 419 79 419 79 462 122.5 c 128,-1,41
 505 166 505 166 505 249 c 2,42,-1
 505 450 l 2,43,44
 505 536 505 536 462 580.5 c 0,45,46
 420 625 420 625 338 625 c 128,-1,47
 256 625 256 625 215 580.5 c 128,-1,48
 174 536 174 536 174 454 c 2,49,-1
 174 251 l 2,50,51
 174 79 174 79 338 79 c 0,39,40
EndSplineSet
EndUndoOperation
UndoOperation
Index: 2
Type: 3
WasModified: 0
WasOrder2: 1
Layer: 2
EndUndoOperation
EndUndoes
Redoes
EndRedoes
EndUndoRedoHistory
Fore
SplineSet
136 55 m 128,-1,1
 70 125 70 125 70 251 c 2,2,3
 70 250 70 250 70 452 c 2,4,5
 70 578 70 578 140 648 c 0,6,7
 210 718 210 718 338 718 c 0,8,9
 424 718 424 718 472 686 c 1,10,-1
 508 632 l 1,11,-1
 508 700 l 1,12,-1
 932 700 l 1,13,-1
 932 606 l 1,14,-1
 639 606 l 1,15,-1
 601 615 l 1,16,17
 601 616 601 616 610 578 c 1,18,-1
 610 434 l 1,19,-1
 600 398 l 1,20,-1
 639 405 l 1,21,-1
 884 405 l 1,22,-1
 884 311 l 1,23,-1
 639 311 l 1,24,-1
 600 319 l 1,25,26
 600 318 600 318 610 282 c 1,27,-1
 610 120 l 1,28,-1
 601 85 l 1,29,-1
 639 94 l 1,30,-1
 934 94 l 1,31,-1
 934 0 l 1,32,-1
 508 0 l 1,33,-1
 508 61 l 1,34,35
 508 60 508 60 471 12 c 1,36,37
 429 -16 429 -16 336 -15 c 0,38,0
 202 -15 202 -15 136 55 c 128,-1,1
338 79 m 0,39,40
 419 79 419 79 462 122.5 c 128,-1,41
 505 166 505 166 505 249 c 2,42,-1
 505 450 l 2,43,44
 505 536 505 536 462 580 c 0,45,46
 420 624 420 624 338 624.5 c 128,-1,47
 256 625 256 625 215 580.5 c 128,-1,48
 174 536 174 536 174 454 c 2,49,-1
 174 251 l 2,50,51
 174 79 174 79 338 79 c 0,39,40
EndSplineSet
EndChar

StartChar: P
Encoding: 80 80 151
Width: 578
GlyphClass: 2
Flags: W
AnchorPoint: "Anchor-14" 199 0 basechar 0
AnchorPoint: "Anchor-13" 301 716 basechar 0
LayerCount: 2
UndoRedoHistory
Layer: 0
Undoes
UndoOperation
Index: 0
Type: 1
WasModified: 0
WasOrder2: 1
Layer: 2
Width: 463
VWidth: 800
LBearingChange: 0
UnicodeEnc: 0
InstructionsLength: 0
EndUndoOperation
EndUndoes
Redoes
EndRedoes
EndUndoRedoHistory
UndoRedoHistory
Layer: 1
Undoes
UndoOperation
Index: 0
Type: 1
WasModified: 1
WasOrder2: 1
Layer: 2
Width: 578
VWidth: 1000
LBearingChange: 0
UnicodeEnc: 0
InstructionsLength: 0
AnchorPoint: "Anchor-14" 199 0 basechar 0
AnchorPoint: "Anchor-13" 301 716 basechar 0
SplineSet
92 700 m 1,0,-1
 310 700 l 2,1,2
 420 700 420 700 482 639 c 128,-1,3
 544 578 544 578 544 479 c 0,4,5
 544 378 544 378 484 316.5 c 128,-1,6
 424 255 424 255 318 255 c 2,7,-1
 228 255 l 1,8,-1
 189 261 l 1,9,-1
 196 226 l 1,10,-1
 196 0 l 1,11,-1
 92 0 l 1,12,-1
 92 700 l 1,0,-1
228 342 m 1,13,-1
 300 342 l 2,14,15
 440 342 440 342 440 479 c 0,16,17
 440 543 440 543 404 577.5 c 128,-1,18
 368 612 368 612 300 612 c 2,19,-1
 228 612 l 1,20,-1
 189 620 l 1,21,-1
 196 581 l 1,22,-1
 196 374 l 1,23,-1
 189 335 l 1,24,-1
 228 342 l 1,13,-1
EndSplineSet
EndUndoOperation
UndoOperation
Index: 1
Type: 1
WasModified: 1
WasOrder2: 1
Layer: 2
Width: 578
VWidth: 1000
LBearingChange: 0
UnicodeEnc: 0
InstructionsLength: 0
AnchorPoint: "Anchor-14" 199 0 basechar 0
AnchorPoint: "Anchor-13" 301 716 basechar 0
SplineSet
92 700 m 1,0,-1
 310 700 l 2,1,2
 420 700 420 700 482 639 c 128,-1,3
 544 578 544 578 544 479 c 0,4,5
 544 378 544 378 484 316.5 c 128,-1,6
 424 255 424 255 318 255 c 2,7,-1
 228 255 l 1,8,-1
 189 261 l 1,9,-1
 196 226 l 1,10,-1
 196 0 l 1,11,-1
 92 0 l 1,12,-1
 92 700 l 1,0,-1
228 342 m 1,13,-1
 300 342 l 2,14,15
 440 342 440 342 440 479 c 0,16,17
 440 543 440 543 404 577.5 c 128,-1,18
 368 612 368 612 300 612 c 2,19,-1
 228 612 l 1,20,-1
 189 620 l 1,21,-1
 196 581 l 1,22,-1
 196 374 l 1,23,-1
 189 335 l 1,24,-1
 228 342 l 1,13,-1
EndSplineSet
EndUndoOperation
UndoOperation
Index: 2
Type: 3
WasModified: 0
WasOrder2: 1
Layer: 2
EndUndoOperation
EndUndoes
Redoes
EndRedoes
EndUndoRedoHistory
Fore
SplineSet
92 700 m 1,0,-1
 310 700 l 2,1,2
 420 700 420 700 482 639 c 128,-1,3
 544 578 544 578 544 479 c 0,4,5
 544 378 544 378 484 316.5 c 128,-1,6
 424 255 424 255 318 255 c 2,7,-1
 228 255 l 1,8,-1
 189 261 l 1,9,-1
 196 226 l 1,10,-1
 196 0 l 1,11,-1
 92 0 l 1,12,-1
 92 700 l 1,0,-1
228 342 m 1,13,-1
 300 342 l 2,14,15
 440 342 440 342 440 479 c 0,16,17
 440 543 440 543 404 577.5 c 128,-1,18
 368 612 368 612 300 612 c 2,19,-1
 228 612 l 1,20,-1
 189 620 l 1,21,-1
 196 581 l 1,22,-1
 196 374 l 1,23,-1
 189 335 l 1,24,-1
 228 342 l 1,13,-1
EndSplineSet
EndChar

StartChar: uni01A4
Encoding: 420 420 152
Width: 651
GlyphClass: 1
Flags: W
LayerCount: 2
UndoRedoHistory
Layer: 0
Undoes
UndoOperation
Index: 0
Type: 1
WasModified: 0
WasOrder2: 1
Layer: 2
Width: 521
VWidth: 800
LBearingChange: 0
UnicodeEnc: 0
InstructionsLength: 0
EndUndoOperation
EndUndoes
Redoes
EndRedoes
EndUndoRedoHistory
UndoRedoHistory
Layer: 1
Undoes
UndoOperation
Index: 0
Type: 1
WasModified: 1
WasOrder2: 1
Layer: 2
Width: 651
VWidth: 1000
LBearingChange: 0
UnicodeEnc: 0
InstructionsLength: 0
SplineSet
176 581 m 1,0,-1
 184 620 l 1,1,-1
 155 615 l 2,2,3
 124 611 124 611 109.5 595 c 128,-1,4
 95 579 95 579 95 549 c 2,5,-1
 95 535 l 1,6,-1
 4 535 l 1,7,-1
 4 544 l 2,8,9
 4 623 4 623 54.5 661.5 c 0,10,11
 104 700 104 700 182 700 c 2,12,-1
 382 700 l 2,13,14
 490 700 490 700 552.5 637.5 c 0,15,16
 615 574 615 574 615 472 c 0,17,18
 615 376 615 376 553.5 315.5 c 128,-1,19
 492 255 492 255 390 255 c 2,20,-1
 311 255 l 1,21,22
 311 254 311 254 271 262 c 1,23,-1
 280 226 l 1,24,-1
 280 0 l 1,25,-1
 176 0 l 1,26,-1
 176 581 l 1,0,-1
311 342 m 1,27,-1
 376 342 l 2,28,29
 442 342 442 342 476.5 379 c 128,-1,30
 511 416 511 416 511 478 c 256,31,32
 511 539 511 539 476 575.5 c 128,-1,33
 441 612 441 612 369 612 c 2,34,-1
 311 612 l 1,35,-1
 271 620 l 1,36,-1
 280 581 l 1,37,38
 280 580 280 580 280 372 c 1,39,-1
 271 334 l 1,40,-1
 311 342 l 1,27,-1
EndSplineSet
EndUndoOperation
UndoOperation
Index: 1
Type: 1
WasModified: 1
WasOrder2: 1
Layer: 2
Width: 651
VWidth: 1000
LBearingChange: 0
UnicodeEnc: 0
InstructionsLength: 0
SplineSet
176 581 m 1,0,-1
 184 620 l 1,1,-1
 155 615 l 2,2,3
 124 611 124 611 109.5 595 c 128,-1,4
 95 579 95 579 95 549 c 2,5,-1
 95 535 l 1,6,-1
 4 535 l 1,7,-1
 4 544 l 2,8,9
 4 623 4 623 54.5 661.5 c 0,10,11
 104 700 104 700 182 700 c 2,12,-1
 382 700 l 2,13,14
 490 700 490 700 552.5 637.5 c 0,15,16
 615 574 615 574 615 472 c 0,17,18
 615 376 615 376 553.5 315.5 c 128,-1,19
 492 255 492 255 390 255 c 2,20,-1
 311 255 l 1,21,22
 311 254 311 254 271 262 c 1,23,-1
 280 226 l 1,24,-1
 280 0 l 1,25,-1
 176 0 l 1,26,-1
 176 581 l 1,0,-1
311 342 m 1,27,-1
 376 342 l 2,28,29
 442 342 442 342 476.5 379 c 128,-1,30
 511 416 511 416 511 478 c 256,31,32
 511 539 511 539 476 575.5 c 128,-1,33
 441 612 441 612 369 612 c 2,34,-1
 311 612 l 1,35,-1
 271 620 l 1,36,-1
 280 581 l 1,37,38
 280 580 280 580 280 372 c 1,39,-1
 271 334 l 1,40,-1
 311 342 l 1,27,-1
EndSplineSet
EndUndoOperation
UndoOperation
Index: 2
Type: 3
WasModified: 0
WasOrder2: 1
Layer: 2
EndUndoOperation
EndUndoes
Redoes
EndRedoes
EndUndoRedoHistory
Fore
SplineSet
176 581 m 1,0,-1
 184 620 l 1,1,-1
 155 615 l 2,2,3
 124 611 124 611 109.5 595 c 128,-1,4
 95 579 95 579 95 549 c 2,5,-1
 95 535 l 1,6,-1
 4 535 l 1,7,-1
 4 544 l 2,8,9
 4 624 4 624 54 662 c 0,10,11
 104 700 104 700 182 700 c 2,12,-1
 382 700 l 2,13,14
 490 700 490 700 552 638 c 0,15,16
 614 574 614 574 615 472 c 0,17,18
 615 376 615 376 553.5 315.5 c 128,-1,19
 492 255 492 255 390 255 c 2,20,-1
 311 255 l 1,21,22
 311 254 311 254 271 262 c 1,23,-1
 280 226 l 1,24,-1
 280 0 l 1,25,-1
 176 0 l 1,26,-1
 176 581 l 1,0,-1
311 342 m 1,27,-1
 376 342 l 2,28,29
 442 342 442 342 476.5 379 c 128,-1,30
 511 416 511 416 511 478 c 256,31,32
 511 539 511 539 476 575.5 c 128,-1,33
 441 612 441 612 369 612 c 2,34,-1
 311 612 l 1,35,-1
 271 620 l 1,36,-1
 280 581 l 1,37,38
 280 580 280 580 280 372 c 1,39,-1
 271 334 l 1,40,-1
 311 342 l 1,27,-1
EndSplineSet
EndChar

StartChar: Thorn
Encoding: 222 222 153
Width: 600
GlyphClass: 1
Flags: W
LayerCount: 2
UndoRedoHistory
Layer: 0
Undoes
UndoOperation
Index: 0
Type: 1
WasModified: 0
WasOrder2: 1
Layer: 2
Width: 480
VWidth: 800
LBearingChange: 0
UnicodeEnc: 0
InstructionsLength: 0
EndUndoOperation
EndUndoes
Redoes
EndRedoes
EndUndoRedoHistory
UndoRedoHistory
Layer: 1
Undoes
UndoOperation
Index: 0
Type: 1
WasModified: 1
WasOrder2: 1
Layer: 2
Width: 600
VWidth: 1000
LBearingChange: 0
UnicodeEnc: 0
InstructionsLength: 0
SplineSet
92 700 m 1,0,-1
 196 700 l 1,1,-1
 196 599 l 1,2,3
 196 598 196 598 189 562 c 1,4,-1
 225 570 l 1,5,-1
 334 570 l 2,6,7
 443 570 443 570 503.5 510.5 c 0,8,9
 564 452 564 452 564 348 c 0,10,11
 564 242 564 242 502.5 181 c 128,-1,12
 441 120 441 120 331 120 c 2,13,-1
 226 120 l 1,14,-1
 189 128 l 1,15,-1
 196 91 l 1,16,-1
 196 0 l 1,17,-1
 92 0 l 1,18,-1
 92 700 l 1,0,-1
196 451 m 1,19,20
 196 452 196 452 196 238 c 1,21,-1
 189 201 l 1,22,-1
 226 209 l 1,23,-1
 316 209 l 2,24,25
 386 209 386 209 422.5 244.5 c 128,-1,26
 459 280 459 280 459 348 c 0,27,28
 459 410 459 410 422 445 c 128,-1,29
 385 480 385 480 316 480 c 2,30,-1
 225 480 l 1,31,32
 226 480 226 480 188 488 c 1,33,-1
 196 451 l 1,19,20
EndSplineSet
EndUndoOperation
UndoOperation
Index: 1
Type: 1
WasModified: 1
WasOrder2: 1
Layer: 2
Width: 600
VWidth: 1000
LBearingChange: 0
UnicodeEnc: 0
InstructionsLength: 0
SplineSet
92 700 m 1,0,-1
 196 700 l 1,1,-1
 196 599 l 1,2,3
 196 598 196 598 189 562 c 1,4,-1
 225 570 l 1,5,-1
 334 570 l 2,6,7
 443 570 443 570 503.5 510.5 c 0,8,9
 564 452 564 452 564 348 c 0,10,11
 564 242 564 242 502.5 181 c 128,-1,12
 441 120 441 120 331 120 c 2,13,-1
 226 120 l 1,14,-1
 189 128 l 1,15,-1
 196 91 l 1,16,-1
 196 0 l 1,17,-1
 92 0 l 1,18,-1
 92 700 l 1,0,-1
196 451 m 1,19,20
 196 452 196 452 196 238 c 1,21,-1
 189 201 l 1,22,-1
 226 209 l 1,23,-1
 316 209 l 2,24,25
 386 209 386 209 422.5 244.5 c 128,-1,26
 459 280 459 280 459 348 c 0,27,28
 459 410 459 410 422 445 c 128,-1,29
 385 480 385 480 316 480 c 2,30,-1
 225 480 l 1,31,32
 226 480 226 480 188 488 c 1,33,-1
 196 451 l 1,19,20
EndSplineSet
EndUndoOperation
UndoOperation
Index: 2
Type: 3
WasModified: 0
WasOrder2: 1
Layer: 2
EndUndoOperation
EndUndoes
Redoes
EndRedoes
EndUndoRedoHistory
Fore
SplineSet
92 700 m 1,0,-1
 196 700 l 1,1,-1
 196 599 l 1,2,3
 196 598 196 598 189 562 c 1,4,-1
 225 570 l 1,5,-1
 334 570 l 2,6,7
 444 570 444 570 504 510 c 0,8,9
 564 452 564 452 564 348 c 0,10,11
 564 242 564 242 502.5 181 c 128,-1,12
 441 120 441 120 331 120 c 2,13,-1
 226 120 l 1,14,-1
 189 128 l 1,15,-1
 196 91 l 1,16,-1
 196 0 l 1,17,-1
 92 0 l 1,18,-1
 92 700 l 1,0,-1
196 451 m 1,19,20
 196 452 196 452 196 238 c 1,21,-1
 189 201 l 1,22,-1
 226 209 l 1,23,-1
 316 209 l 2,24,25
 386 209 386 209 422.5 244.5 c 128,-1,26
 459 280 459 280 459 348 c 0,27,28
 459 410 459 410 422 445 c 128,-1,29
 385 480 385 480 316 480 c 2,30,-1
 225 480 l 1,31,32
 226 480 226 480 188 488 c 1,33,-1
 196 451 l 1,19,20
EndSplineSet
EndChar

StartChar: Q
Encoding: 81 81 154
Width: 661
GlyphClass: 1
Flags: W
LayerCount: 2
UndoRedoHistory
Layer: 0
Undoes
UndoOperation
Index: 0
Type: 1
WasModified: 0
WasOrder2: 1
Layer: 2
Width: 529
VWidth: 800
LBearingChange: 0
UnicodeEnc: 0
InstructionsLength: 0
EndUndoOperation
EndUndoes
Redoes
EndRedoes
EndUndoRedoHistory
UndoRedoHistory
Layer: 1
Undoes
UndoOperation
Index: 0
Type: 1
WasModified: 1
WasOrder2: 1
Layer: 2
Width: 661
VWidth: 1000
LBearingChange: 0
UnicodeEnc: 0
InstructionsLength: 0
SplineSet
478 11 m 1,0,-1
 464 35 l 1,1,-1
 448 11 l 1,2,3
 394 -14 394 -14 322 -14 c 0,4,5
 201 -14 201 -14 135.5 52.5 c 128,-1,6
 70 119 70 119 70 241 c 2,7,8
 70 240 70 240 70 452 c 2,9,10
 70 573 70 573 137 644.5 c 128,-1,11
 204 716 204 716 322 716 c 256,12,13
 441 716 441 716 511 644 c 128,-1,14
 581 572 581 572 581 452 c 2,15,-1
 581 250 l 2,16,17
 581 174 581 174 551 111 c 1,18,-1
 520 86 l 1,19,-1
 546 72 l 1,20,-1
 635 -20 l 1,21,-1
 506 -20 l 1,22,-1
 478 11 l 1,0,-1
214 115.5 m 128,-1,24
 254 76 254 76 334 76 c 2,25,-1
 362 76 l 2,26,27
 383 78 383 78 416 90 c 1,28,-1
 376 112 l 1,29,-1
 290 206 l 1,30,-1
 411 206 l 1,31,32
 410 206 410 206 442 172 c 1,33,-1
 462 138 l 1,34,-1
 470 175 l 2,35,36
 476 210 476 210 476 251 c 2,37,-1
 476 451 l 2,38,39
 477 542 477 542 436.5 584 c 128,-1,40
 396 626 396 626 322 626 c 0,41,42
 173 626 173 626 174 451 c 2,43,-1
 174 249 l 2,44,23
 174 155 174 155 214 115.5 c 128,-1,24
EndSplineSet
EndUndoOperation
UndoOperation
Index: 1
Type: 1
WasModified: 1
WasOrder2: 1
Layer: 2
Width: 661
VWidth: 1000
LBearingChange: 0
UnicodeEnc: 0
InstructionsLength: 0
SplineSet
478 11 m 1,0,-1
 464 35 l 1,1,-1
 448 11 l 1,2,3
 394 -14 394 -14 322 -14 c 0,4,5
 201 -14 201 -14 135.5 52.5 c 128,-1,6
 70 119 70 119 70 241 c 2,7,8
 70 240 70 240 70 452 c 2,9,10
 70 573 70 573 137 644.5 c 128,-1,11
 204 716 204 716 322 716 c 256,12,13
 441 716 441 716 511 644 c 128,-1,14
 581 572 581 572 581 452 c 2,15,-1
 581 250 l 2,16,17
 581 174 581 174 551 111 c 1,18,-1
 520 86 l 1,19,-1
 546 72 l 1,20,-1
 635 -20 l 1,21,-1
 506 -20 l 1,22,-1
 478 11 l 1,0,-1
214 115.5 m 128,-1,24
 254 76 254 76 334 76 c 2,25,-1
 362 76 l 2,26,27
 383 78 383 78 416 90 c 1,28,-1
 376 112 l 1,29,-1
 290 206 l 1,30,-1
 411 206 l 1,31,32
 410 206 410 206 442 172 c 1,33,-1
 462 138 l 1,34,-1
 470 175 l 2,35,36
 476 210 476 210 476 251 c 2,37,-1
 476 451 l 2,38,39
 477 542 477 542 436.5 584 c 128,-1,40
 396 626 396 626 322 626 c 0,41,42
 173 626 173 626 174 451 c 2,43,-1
 174 249 l 2,44,23
 174 155 174 155 214 115.5 c 128,-1,24
EndSplineSet
EndUndoOperation
UndoOperation
Index: 2
Type: 3
WasModified: 0
WasOrder2: 1
Layer: 2
EndUndoOperation
EndUndoes
Redoes
EndRedoes
EndUndoRedoHistory
Fore
SplineSet
478 11 m 1,0,-1
 464 35 l 1,1,-1
 448 11 l 1,2,3
 394 -14 394 -14 322 -14 c 0,4,5
 201 -14 201 -14 135.5 52.5 c 128,-1,6
 70 119 70 119 70 241 c 2,7,8
 70 240 70 240 70 452 c 2,9,10
 70 573 70 573 137 644.5 c 128,-1,11
 204 716 204 716 322 716 c 256,12,13
 441 716 441 716 511 644 c 128,-1,14
 581 572 581 572 581 452 c 2,15,-1
 581 250 l 2,16,17
 581 174 581 174 551 111 c 1,18,-1
 520 86 l 1,19,-1
 546 72 l 1,20,-1
 635 -20 l 1,21,-1
 506 -20 l 1,22,-1
 478 11 l 1,0,-1
214 115.5 m 128,-1,24
 254 76 254 76 334 76 c 2,25,-1
 362 76 l 2,26,27
 383 78 383 78 416 90 c 1,28,-1
 376 112 l 1,29,-1
 290 206 l 1,30,-1
 411 206 l 1,31,32
 410 206 410 206 442 172 c 1,33,-1
 462 138 l 1,34,-1
 470 175 l 2,35,36
 476 210 476 210 476 251 c 2,37,-1
 476 451 l 2,38,39
 477 542 477 542 436.5 584 c 128,-1,40
 396 626 396 626 322 626 c 0,41,42
 173 626 173 626 174 451 c 2,43,-1
 174 249 l 2,44,23
 174 155 174 155 214 115.5 c 128,-1,24
EndSplineSet
EndChar

StartChar: R
Encoding: 82 82 155
Width: 635
GlyphClass: 2
Flags: W
AnchorPoint: "Anchor-14" 322 0 basechar 0
AnchorPoint: "Anchor-13" 286 700 basechar 0
LayerCount: 2
UndoRedoHistory
Layer: 0
Undoes
UndoOperation
Index: 0
Type: 1
WasModified: 0
WasOrder2: 1
Layer: 2
Width: 508
VWidth: 800
LBearingChange: 0
UnicodeEnc: 0
InstructionsLength: 0
EndUndoOperation
EndUndoes
Redoes
EndRedoes
EndUndoRedoHistory
UndoRedoHistory
Layer: 1
Undoes
UndoOperation
Index: 0
Type: 1
WasModified: 1
WasOrder2: 1
Layer: 2
Width: 635
VWidth: 1000
LBearingChange: 0
UnicodeEnc: 0
InstructionsLength: 0
AnchorPoint: "Anchor-14" 322 0 basechar 0
AnchorPoint: "Anchor-13" 286 700 basechar 0
SplineSet
92 700 m 1,0,-1
 331 700 l 2,1,2
 449 700 449 700 511.5 643 c 128,-1,3
 574 586 574 586 574 485 c 0,4,5
 574 423 574 423 545 374.5 c 128,-1,6
 516 326 516 326 469 304 c 1,7,8
 468 304 468 304 432 298 c 1,9,-1
 461 266 l 1,10,-1
 591 0 l 1,11,-1
 471 0 l 1,12,-1
 341 274 l 1,13,-1
 224 274 l 1,14,-1
 189 281 l 1,15,-1
 196 244 l 1,16,-1
 196 0 l 1,17,-1
 92 0 l 1,18,-1
 92 700 l 1,0,-1
224 358 m 1,19,-1
 325 358 l 2,20,21
 399 358 399 358 434 393 c 128,-1,22
 469 428 469 428 470 485 c 0,23,24
 470 544 470 544 434.5 577.5 c 128,-1,25
 399 611 399 611 326 611 c 2,26,-1
 228 611 l 1,27,-1
 190 619 l 1,28,-1
 196 581 l 1,29,-1
 196 389 l 1,30,31
 196 388 196 388 189 352 c 1,32,-1
 224 358 l 1,19,-1
EndSplineSet
EndUndoOperation
UndoOperation
Index: 1
Type: 1
WasModified: 1
WasOrder2: 1
Layer: 2
Width: 635
VWidth: 1000
LBearingChange: 0
UnicodeEnc: 0
InstructionsLength: 0
AnchorPoint: "Anchor-14" 322 0 basechar 0
AnchorPoint: "Anchor-13" 286 700 basechar 0
SplineSet
92 700 m 1,0,-1
 331 700 l 2,1,2
 449 700 449 700 511.5 643 c 128,-1,3
 574 586 574 586 574 485 c 0,4,5
 574 423 574 423 545 374.5 c 128,-1,6
 516 326 516 326 469 304 c 1,7,8
 468 304 468 304 432 298 c 1,9,-1
 461 266 l 1,10,-1
 591 0 l 1,11,-1
 471 0 l 1,12,-1
 341 274 l 1,13,-1
 224 274 l 1,14,-1
 189 281 l 1,15,-1
 196 244 l 1,16,-1
 196 0 l 1,17,-1
 92 0 l 1,18,-1
 92 700 l 1,0,-1
224 358 m 1,19,-1
 325 358 l 2,20,21
 399 358 399 358 434 393 c 128,-1,22
 469 428 469 428 470 485 c 0,23,24
 470 544 470 544 434.5 577.5 c 128,-1,25
 399 611 399 611 326 611 c 2,26,-1
 228 611 l 1,27,-1
 190 619 l 1,28,-1
 196 581 l 1,29,-1
 196 389 l 1,30,31
 196 388 196 388 189 352 c 1,32,-1
 224 358 l 1,19,-1
EndSplineSet
EndUndoOperation
UndoOperation
Index: 2
Type: 3
WasModified: 0
WasOrder2: 1
Layer: 2
EndUndoOperation
EndUndoes
Redoes
EndRedoes
EndUndoRedoHistory
Fore
SplineSet
92 700 m 1,0,-1
 331 700 l 2,1,2
 449 700 449 700 511.5 643 c 128,-1,3
 574 586 574 586 574 485 c 0,4,5
 574 423 574 423 545 374.5 c 128,-1,6
 516 326 516 326 469 304 c 1,7,8
 468 304 468 304 432 298 c 1,9,-1
 461 266 l 1,10,-1
 591 0 l 1,11,-1
 471 0 l 1,12,-1
 341 274 l 1,13,-1
 224 274 l 1,14,-1
 189 281 l 1,15,-1
 196 244 l 1,16,-1
 196 0 l 1,17,-1
 92 0 l 1,18,-1
 92 700 l 1,0,-1
224 358 m 1,19,-1
 325 358 l 2,20,21
 399 358 399 358 434 393 c 128,-1,22
 469 428 469 428 470 485 c 0,23,24
 470 544 470 544 434.5 577.5 c 128,-1,25
 399 611 399 611 326 611 c 2,26,-1
 228 611 l 1,27,-1
 190 619 l 1,28,-1
 196 581 l 1,29,-1
 196 389 l 1,30,31
 196 388 196 388 189 352 c 1,32,-1
 224 358 l 1,19,-1
EndSplineSet
EndChar

StartChar: uni024C
Encoding: 588 588 159
Width: 606
GlyphClass: 1
Flags: W
LayerCount: 2
UndoRedoHistory
Layer: 0
Undoes
UndoOperation
Index: 0
Type: 1
WasModified: 0
WasOrder2: 1
Layer: 2
Width: 485
VWidth: 800
LBearingChange: 0
UnicodeEnc: 0
InstructionsLength: 0
EndUndoOperation
EndUndoes
Redoes
EndRedoes
EndUndoRedoHistory
UndoRedoHistory
Layer: 1
Undoes
UndoOperation
Index: 0
Type: 1
WasModified: 1
WasOrder2: 1
Layer: 2
Width: 606
VWidth: 1000
LBearingChange: 0
UnicodeEnc: 0
InstructionsLength: 0
SplineSet
70 245 m 1,0,1
 70 244 70 244 79 282 c 1,2,-1
 41 271 l 1,3,-1
 1 271 l 1,4,-1
 1 356 l 1,5,-1
 41 356 l 1,6,7
 42 356 42 356 78 348 c 1,8,-1
 69 385 l 1,9,-1
 69 700 l 1,10,-1
 304 700 l 2,11,12
 420 700 420 700 482 642 c 128,-1,13
 544 584 544 584 544 485 c 0,14,15
 544 421 544 421 514.5 372.5 c 0,16,17
 486 324 486 324 438 301 c 1,18,-1
 406 291 l 1,19,-1
 428 265 l 1,20,-1
 561 0 l 1,21,-1
 439 0 l 1,22,23
 438 0 438 0 312 271 c 1,24,25
 312 270 312 270 201 272 c 1,26,-1
 164 282 l 1,27,-1
 172 244 l 1,28,-1
 172 -1 l 1,29,-1
 70 -1 l 1,30,-1
 70 245 l 1,0,1
171 584 m 1,31,32
 170 584 170 584 172 384 c 1,33,-1
 164 348 l 1,34,-1
 201 355 l 1,35,-1
 296 355 l 2,36,37
 370 355 370 355 404 389.5 c 128,-1,38
 438 424 438 424 439 484 c 0,39,40
 439 543 439 543 405 577.5 c 128,-1,41
 371 612 371 612 299 612 c 2,42,-1
 201 612 l 1,43,44
 200 612 200 612 162 621 c 1,45,-1
 171 584 l 1,31,32
EndSplineSet
EndUndoOperation
UndoOperation
Index: 1
Type: 1
WasModified: 1
WasOrder2: 1
Layer: 2
Width: 606
VWidth: 1000
LBearingChange: 0
UnicodeEnc: 0
InstructionsLength: 0
SplineSet
70 245 m 1,0,1
 70 244 70 244 79 282 c 1,2,-1
 41 271 l 1,3,-1
 1 271 l 1,4,-1
 1 356 l 1,5,-1
 41 356 l 1,6,7
 42 356 42 356 78 348 c 1,8,-1
 69 385 l 1,9,-1
 69 700 l 1,10,-1
 304 700 l 2,11,12
 420 700 420 700 482 642 c 128,-1,13
 544 584 544 584 544 485 c 0,14,15
 544 421 544 421 514.5 372.5 c 0,16,17
 486 324 486 324 438 301 c 1,18,-1
 406 291 l 1,19,-1
 428 265 l 1,20,-1
 561 0 l 1,21,-1
 439 0 l 1,22,23
 438 0 438 0 312 271 c 1,24,25
 312 270 312 270 201 272 c 1,26,-1
 164 282 l 1,27,-1
 172 244 l 1,28,-1
 172 -1 l 1,29,-1
 70 -1 l 1,30,-1
 70 245 l 1,0,1
171 584 m 1,31,32
 170 584 170 584 172 384 c 1,33,-1
 164 348 l 1,34,-1
 201 355 l 1,35,-1
 296 355 l 2,36,37
 370 355 370 355 404 389.5 c 128,-1,38
 438 424 438 424 439 484 c 0,39,40
 439 543 439 543 405 577.5 c 128,-1,41
 371 612 371 612 299 612 c 2,42,-1
 201 612 l 1,43,44
 200 612 200 612 162 621 c 1,45,-1
 171 584 l 1,31,32
EndSplineSet
EndUndoOperation
UndoOperation
Index: 2
Type: 3
WasModified: 0
WasOrder2: 1
Layer: 2
EndUndoOperation
EndUndoes
Redoes
EndRedoes
EndUndoRedoHistory
Fore
SplineSet
70 245 m 1,0,1
 70 244 70 244 79 282 c 1,2,-1
 41 271 l 1,3,-1
 1 271 l 1,4,-1
 1 356 l 1,5,-1
 41 356 l 1,6,7
 42 356 42 356 78 348 c 1,8,-1
 69 385 l 1,9,-1
 69 700 l 1,10,-1
 304 700 l 2,11,12
 420 700 420 700 482 642 c 128,-1,13
 544 584 544 584 544 485 c 0,14,15
 544 420 544 420 514 372 c 0,16,17
 486 324 486 324 438 301 c 1,18,-1
 406 291 l 1,19,-1
 428 265 l 1,20,-1
 561 0 l 1,21,-1
 439 0 l 1,22,23
 438 0 438 0 312 271 c 1,24,25
 312 270 312 270 201 272 c 1,26,-1
 164 282 l 1,27,-1
 172 244 l 1,28,-1
 172 -1 l 1,29,-1
 70 -1 l 1,30,-1
 70 245 l 1,0,1
171 584 m 1,31,32
 170 584 170 584 172 384 c 1,33,-1
 164 348 l 1,34,-1
 201 355 l 1,35,-1
 296 355 l 2,36,37
 370 355 370 355 404 389.5 c 128,-1,38
 438 424 438 424 439 484 c 0,39,40
 439 543 439 543 405 577.5 c 128,-1,41
 371 612 371 612 299 612 c 2,42,-1
 201 612 l 1,43,44
 200 612 200 612 162 621 c 1,45,-1
 171 584 l 1,31,32
EndSplineSet
EndChar

StartChar: uni2C64
Encoding: 11364 11364 160
Width: 640
GlyphClass: 2
Flags: W
AnchorPoint: "Anchor-14" 326 0 basechar 0
AnchorPoint: "Anchor-13" 290 700 basechar 0
LayerCount: 2
UndoRedoHistory
Layer: 0
Undoes
UndoOperation
Index: 0
Type: 1
WasModified: 0
WasOrder2: 1
Layer: 2
Width: 512
VWidth: 800
LBearingChange: 0
UnicodeEnc: 0
InstructionsLength: 0
EndUndoOperation
EndUndoes
Redoes
EndRedoes
EndUndoRedoHistory
UndoRedoHistory
Layer: 1
Undoes
UndoOperation
Index: 0
Type: 1
WasModified: 1
WasOrder2: 1
Layer: 2
Width: 640
VWidth: 1000
LBearingChange: 0
UnicodeEnc: 0
InstructionsLength: 0
AnchorPoint: "Anchor-14" 326 0 basechar 0
AnchorPoint: "Anchor-13" 290 700 basechar 0
SplineSet
228 358 m 1,0,-1
 329 358 l 2,1,2
 403 358 403 358 437.5 393 c 128,-1,3
 472 428 472 428 474 485 c 0,4,5
 474 544 474 544 438 577.5 c 128,-1,6
 402 611 402 611 330 611 c 2,7,-1
 231 611 l 1,8,-1
 194 619 l 1,9,-1
 200 581 l 1,10,-1
 200 389 l 1,11,12
 200 388 200 388 192 352 c 1,13,-1
 228 358 l 1,0,-1
94 21 m 1,14,-1
 96 21 l 1,15,-1
 96 700 l 1,16,-1
 335 700 l 2,17,18
 453 700 453 700 515.5 643 c 128,-1,19
 578 586 578 586 578 485 c 0,20,21
 578 423 578 423 549 374.5 c 128,-1,22
 520 326 520 326 472 304 c 1,23,-1
 436 298 l 1,24,-1
 465 266 l 1,25,-1
 595 0 l 1,26,-1
 475 0 l 1,27,-1
 345 274 l 1,28,29
 346 274 346 274 228 274 c 1,30,-1
 192 281 l 1,31,-1
 200 244 l 1,32,-1
 200 0 l 1,33,-1
 198 0 l 1,34,-1
 198 -39 l 2,35,36
 198 -127 198 -127 279 -126 c 2,37,-1
 284 -126 l 1,38,-1
 284 -219 l 1,39,-1
 272 -219 l 2,40,41
 183 -219 183 -219 138.5 -169.5 c 128,-1,42
 94 -120 94 -120 94 -39 c 2,43,-1
 94 21 l 1,14,-1
EndSplineSet
EndUndoOperation
UndoOperation
Index: 1
Type: 1
WasModified: 1
WasOrder2: 1
Layer: 2
Width: 640
VWidth: 1000
LBearingChange: 0
UnicodeEnc: 0
InstructionsLength: 0
AnchorPoint: "Anchor-14" 326 0 basechar 0
AnchorPoint: "Anchor-13" 290 700 basechar 0
SplineSet
228 358 m 1,0,-1
 329 358 l 2,1,2
 403 358 403 358 437.5 393 c 128,-1,3
 472 428 472 428 474 485 c 0,4,5
 474 544 474 544 438 577.5 c 128,-1,6
 402 611 402 611 330 611 c 2,7,-1
 231 611 l 1,8,-1
 194 619 l 1,9,-1
 200 581 l 1,10,-1
 200 389 l 1,11,12
 200 388 200 388 192 352 c 1,13,-1
 228 358 l 1,0,-1
94 21 m 1,14,-1
 96 21 l 1,15,-1
 96 700 l 1,16,-1
 335 700 l 2,17,18
 453 700 453 700 515.5 643 c 128,-1,19
 578 586 578 586 578 485 c 0,20,21
 578 423 578 423 549 374.5 c 128,-1,22
 520 326 520 326 472 304 c 1,23,-1
 436 298 l 1,24,-1
 465 266 l 1,25,-1
 595 0 l 1,26,-1
 475 0 l 1,27,-1
 345 274 l 1,28,29
 346 274 346 274 228 274 c 1,30,-1
 192 281 l 1,31,-1
 200 244 l 1,32,-1
 200 0 l 1,33,-1
 198 0 l 1,34,-1
 198 -39 l 2,35,36
 198 -127 198 -127 279 -126 c 2,37,-1
 284 -126 l 1,38,-1
 284 -219 l 1,39,-1
 272 -219 l 2,40,41
 183 -219 183 -219 138.5 -169.5 c 128,-1,42
 94 -120 94 -120 94 -39 c 2,43,-1
 94 21 l 1,14,-1
EndSplineSet
EndUndoOperation
UndoOperation
Index: 2
Type: 3
WasModified: 0
WasOrder2: 1
Layer: 2
EndUndoOperation
EndUndoes
Redoes
EndRedoes
EndUndoRedoHistory
Fore
SplineSet
228 358 m 1,0,-1
 329 358 l 2,1,2
 403 358 403 358 437.5 393 c 128,-1,3
 472 428 472 428 474 485 c 0,4,5
 474 544 474 544 438 577.5 c 128,-1,6
 402 611 402 611 330 611 c 2,7,-1
 231 611 l 1,8,-1
 194 619 l 1,9,-1
 200 581 l 1,10,-1
 200 389 l 1,11,12
 200 388 200 388 192 352 c 1,13,-1
 228 358 l 1,0,-1
94 21 m 1,14,-1
 96 21 l 1,15,-1
 96 700 l 1,16,-1
 335 700 l 2,17,18
 453 700 453 700 515.5 643 c 128,-1,19
 578 586 578 586 578 485 c 0,20,21
 578 423 578 423 549 374.5 c 128,-1,22
 520 326 520 326 472 304 c 1,23,-1
 436 298 l 1,24,-1
 465 266 l 1,25,-1
 595 0 l 1,26,-1
 475 0 l 1,27,-1
 345 274 l 1,28,29
 346 274 346 274 228 274 c 1,30,-1
 192 281 l 1,31,-1
 200 244 l 1,32,-1
 200 0 l 1,33,-1
 198 0 l 1,34,-1
 198 -39 l 2,35,36
 198 -127 198 -127 279 -126 c 2,37,-1
 284 -126 l 1,38,-1
 284 -219 l 1,39,-1
 272 -219 l 2,40,41
 183 -219 183 -219 138.5 -169.5 c 128,-1,42
 94 -120 94 -120 94 -39 c 2,43,-1
 94 21 l 1,14,-1
EndSplineSet
EndChar

StartChar: S
Encoding: 83 83 161
Width: 615
GlyphClass: 2
Flags: W
AnchorPoint: "Anchor-14" 316 0 basechar 0
AnchorPoint: "Anchor-13" 310 704 basechar 0
LayerCount: 2
UndoRedoHistory
Layer: 0
Undoes
UndoOperation
Index: 0
Type: 1
WasModified: 0
WasOrder2: 1
Layer: 2
Width: 492
VWidth: 800
LBearingChange: 0
UnicodeEnc: 0
InstructionsLength: 0
EndUndoOperation
EndUndoes
Redoes
EndRedoes
EndUndoRedoHistory
UndoRedoHistory
Layer: 1
Undoes
UndoOperation
Index: 0
Type: 1
WasModified: 1
WasOrder2: 1
Layer: 2
Width: 615
VWidth: 1000
LBearingChange: 0
UnicodeEnc: 0
InstructionsLength: 0
AnchorPoint: "Anchor-14" 316 0 basechar 0
AnchorPoint: "Anchor-13" 310 704 basechar 0
SplineSet
205.5 108 m 128,-1,1
 249 74 249 74 316 74 c 0,2,3
 377 74 377 74 416 102.5 c 128,-1,4
 455 131 455 131 455 184 c 0,5,6
 455 233 455 233 423.5 257 c 0,7,8
 392 282 392 282 338 298 c 2,9,-1
 261 320 l 2,10,11
 177 344 177 344 126.5 389 c 128,-1,12
 76 434 76 434 76 518 c 0,13,14
 76 612 76 612 142 665 c 128,-1,15
 208 718 208 718 314 718 c 0,16,17
 419 718 419 718 482.5 664 c 128,-1,18
 546 610 546 610 554 519 c 1,19,-1
 452 519 l 1,20,21
 446 570 446 570 408 600 c 128,-1,22
 370 630 370 630 310 630 c 256,23,24
 250 630 250 630 215.5 602.5 c 0,25,26
 181 576 181 576 181 528 c 0,27,28
 181 479 181 479 211.5 453.5 c 128,-1,29
 242 428 242 428 302 410 c 2,30,-1
 372 390 l 2,31,32
 470 361 470 361 515 315 c 128,-1,33
 560 269 560 269 560 191 c 0,34,35
 560 97 560 97 490.5 41.5 c 128,-1,36
 421 -14 421 -14 311 -14 c 0,37,38
 197 -14 197 -14 128 43 c 0,39,40
 58 100 58 100 52 196 c 1,41,-1
 156 196 l 1,42,0
 162 142 162 142 205.5 108 c 128,-1,1
EndSplineSet
EndUndoOperation
UndoOperation
Index: 1
Type: 1
WasModified: 1
WasOrder2: 1
Layer: 2
Width: 615
VWidth: 1000
LBearingChange: 0
UnicodeEnc: 0
InstructionsLength: 0
AnchorPoint: "Anchor-14" 316 0 basechar 0
AnchorPoint: "Anchor-13" 310 704 basechar 0
SplineSet
205.5 108 m 128,-1,1
 249 74 249 74 316 74 c 0,2,3
 377 74 377 74 416 102.5 c 128,-1,4
 455 131 455 131 455 184 c 0,5,6
 455 233 455 233 423.5 257 c 0,7,8
 392 282 392 282 338 298 c 2,9,-1
 261 320 l 2,10,11
 177 344 177 344 126.5 389 c 128,-1,12
 76 434 76 434 76 518 c 0,13,14
 76 612 76 612 142 665 c 128,-1,15
 208 718 208 718 314 718 c 0,16,17
 419 718 419 718 482.5 664 c 128,-1,18
 546 610 546 610 554 519 c 1,19,-1
 452 519 l 1,20,21
 446 570 446 570 408 600 c 128,-1,22
 370 630 370 630 310 630 c 256,23,24
 250 630 250 630 215.5 602.5 c 0,25,26
 181 576 181 576 181 528 c 0,27,28
 181 479 181 479 211.5 453.5 c 128,-1,29
 242 428 242 428 302 410 c 2,30,-1
 372 390 l 2,31,32
 470 361 470 361 515 315 c 128,-1,33
 560 269 560 269 560 191 c 0,34,35
 560 97 560 97 490.5 41.5 c 128,-1,36
 421 -14 421 -14 311 -14 c 0,37,38
 197 -14 197 -14 128 43 c 0,39,40
 58 100 58 100 52 196 c 1,41,-1
 156 196 l 1,42,0
 162 142 162 142 205.5 108 c 128,-1,1
EndSplineSet
EndUndoOperation
UndoOperation
Index: 2
Type: 3
WasModified: 0
WasOrder2: 1
Layer: 2
EndUndoOperation
EndUndoes
Redoes
EndRedoes
EndUndoRedoHistory
Fore
SplineSet
205.5 108 m 128,-1,1
 249 74 249 74 316 74 c 0,2,3
 377 74 377 74 416 102.5 c 128,-1,4
 455 131 455 131 455 184 c 0,5,6
 456 233 456 233 424 257 c 0,7,8
 392 282 392 282 338 298 c 2,9,-1
 261 320 l 2,10,11
 177 344 177 344 126.5 389 c 128,-1,12
 76 434 76 434 76 518 c 0,13,14
 76 612 76 612 142 665 c 128,-1,15
 208 718 208 718 314 718 c 0,16,17
 419 718 419 718 482.5 664 c 128,-1,18
 546 610 546 610 554 519 c 1,19,-1
 452 519 l 1,20,21
 446 570 446 570 408 600 c 128,-1,22
 370 630 370 630 310 630 c 256,23,24
 250 630 250 630 216 602 c 0,25,26
 182 576 182 576 181 528 c 0,27,28
 181 479 181 479 211.5 453.5 c 128,-1,29
 242 428 242 428 302 410 c 2,30,-1
 372 390 l 2,31,32
 470 361 470 361 515 315 c 128,-1,33
 560 269 560 269 560 191 c 0,34,35
 560 97 560 97 490.5 41.5 c 128,-1,36
 421 -14 421 -14 311 -14 c 0,37,38
 197 -14 197 -14 128 43 c 0,39,40
 58 100 58 100 52 196 c 1,41,-1
 156 196 l 1,42,0
 162 142 162 142 205.5 108 c 128,-1,1
EndSplineSet
EndChar

StartChar: uniA78B
Encoding: 42891 42891 163
Width: 478
GlyphClass: 1
Flags: W
LayerCount: 2
UndoRedoHistory
Layer: 0
Undoes
UndoOperation
Index: 0
Type: 1
WasModified: 0
WasOrder2: 1
Layer: 2
Width: 383
VWidth: 800
LBearingChange: 0
UnicodeEnc: 0
InstructionsLength: 0
EndUndoOperation
EndUndoes
Redoes
EndRedoes
EndUndoRedoHistory
UndoRedoHistory
Layer: 1
Undoes
UndoOperation
Index: 0
Type: 1
WasModified: 1
WasOrder2: 1
Layer: 2
Width: 478
VWidth: 1000
LBearingChange: 0
UnicodeEnc: 0
InstructionsLength: 0
SplineSet
189 542 m 1,0,-1
 189 700 l 1,1,-1
 291 700 l 1,2,-1
 291 542 l 1,3,-1
 275 360 l 1,4,-1
 205 360 l 1,5,-1
 189 542 l 1,0,-1
EndSplineSet
EndUndoOperation
UndoOperation
Index: 1
Type: 1
WasModified: 1
WasOrder2: 1
Layer: 2
Width: 478
VWidth: 1000
LBearingChange: 0
UnicodeEnc: 0
InstructionsLength: 0
SplineSet
189 542 m 1,0,-1
 189 700 l 1,1,-1
 291 700 l 1,2,-1
 291 542 l 1,3,-1
 275 360 l 1,4,-1
 205 360 l 1,5,-1
 189 542 l 1,0,-1
EndSplineSet
EndUndoOperation
UndoOperation
Index: 2
Type: 3
WasModified: 0
WasOrder2: 1
Layer: 2
EndUndoOperation
EndUndoes
Redoes
EndRedoes
EndUndoRedoHistory
Fore
SplineSet
189 542 m 1,0,-1
 189 700 l 1,1,-1
 291 700 l 1,2,-1
 291 542 l 1,3,-1
 275 360 l 1,4,-1
 205 360 l 1,5,-1
 189 542 l 1,0,-1
EndSplineSet
EndChar

StartChar: Scedilla
Encoding: 350 350 165
Width: 615
GlyphClass: 2
Flags: W
AnchorPoint: "Anchor-13" 311 704 basechar 0
LayerCount: 2
UndoRedoHistory
Layer: 0
Undoes
UndoOperation
Index: 0
Type: 1
WasModified: 0
WasOrder2: 1
Layer: 2
Width: 492
VWidth: 800
LBearingChange: 0
UnicodeEnc: 0
InstructionsLength: 0
EndUndoOperation
EndUndoes
Redoes
EndRedoes
EndUndoRedoHistory
UndoRedoHistory
Layer: 1
Undoes
UndoOperation
Index: 0
Type: 1
WasModified: 1
WasOrder2: 1
Layer: 2
Width: 615
VWidth: 1000
LBearingChange: 0
UnicodeEnc: 0
InstructionsLength: 0
AnchorPoint: "Anchor-13" 311 704 basechar 0
SplineSet
231 -256 m 1,1,-1
 231 -186 l 1,2,3
 266 -196 266 -196 298 -196 c 0,4,5
 357 -196 357 -196 356 -161 c 0,6,7
 356 -143 356 -143 340.5 -136 c 0,8,9
 324 -129 324 -129 282 -129 c 2,10,-1
 241 -129 l 1,11,-1
 241 -69 l 1,12,-1
 281 1 l 1,13,-1
 239 -10 l 1,14,15
 159 2 159 2 109 58 c 128,-1,16
 59 114 59 114 54 196 c 1,17,-1
 156 196 l 1,18,19
 164 141 164 141 206.5 108 c 128,-1,20
 249 75 249 75 316 75 c 0,21,22
 378 75 378 75 416.5 103 c 128,-1,23
 455 131 455 131 455 184 c 0,24,25
 455 233 455 233 424.5 257 c 0,26,27
 394 282 394 282 339 298 c 2,28,-1
 261 320 l 2,29,30
 177 344 177 344 126.5 389 c 128,-1,31
 76 434 76 434 76 518 c 0,32,33
 76 612 76 612 142.5 665 c 128,-1,34
 209 718 209 718 314 718 c 256,35,36
 419 718 419 718 482.5 664 c 128,-1,37
 546 610 546 610 554 519 c 1,38,-1
 452 519 l 1,39,40
 446 570 446 570 408 600 c 128,-1,41
 370 630 370 630 310 630 c 0,42,43
 251 630 251 630 216 602.5 c 0,44,45
 181 576 181 576 181 528 c 0,46,47
 181 479 181 479 212.5 453.5 c 128,-1,48
 244 428 244 428 304 410 c 2,49,-1
 372 390 l 2,50,51
 471 361 471 361 515.5 315 c 128,-1,52
 560 269 560 269 560 191 c 0,53,54
 560 110 560 110 509 57 c 128,-1,55
 458 4 458 4 379 -10 c 1,56,-1
 349 1 l 1,57,-1
 346 -19 l 1,58,59
 346 -18 346 -18 318 -72 c 1,60,-1
 352 -61 l 1,61,62
 394 -70 394 -70 417 -96 c 128,-1,63
 440 -122 440 -122 440 -161 c 0,64,65
 440 -210 440 -210 404 -239.5 c 128,-1,66
 368 -269 368 -269 308 -269 c 0,67,0
 270 -268 270 -268 231 -256 c 1,1,-1
EndSplineSet
EndUndoOperation
UndoOperation
Index: 1
Type: 1
WasModified: 1
WasOrder2: 1
Layer: 2
Width: 615
VWidth: 1000
LBearingChange: 0
UnicodeEnc: 0
InstructionsLength: 0
AnchorPoint: "Anchor-13" 311 704 basechar 0
SplineSet
231 -256 m 1,1,-1
 231 -186 l 1,2,3
 266 -196 266 -196 298 -196 c 0,4,5
 357 -196 357 -196 356 -161 c 0,6,7
 356 -143 356 -143 340.5 -136 c 0,8,9
 324 -129 324 -129 282 -129 c 2,10,-1
 241 -129 l 1,11,-1
 241 -69 l 1,12,-1
 281 1 l 1,13,-1
 239 -10 l 1,14,15
 159 2 159 2 109 58 c 128,-1,16
 59 114 59 114 54 196 c 1,17,-1
 156 196 l 1,18,19
 164 141 164 141 206.5 108 c 128,-1,20
 249 75 249 75 316 75 c 0,21,22
 378 75 378 75 416.5 103 c 128,-1,23
 455 131 455 131 455 184 c 0,24,25
 455 233 455 233 424.5 257 c 0,26,27
 394 282 394 282 339 298 c 2,28,-1
 261 320 l 2,29,30
 177 344 177 344 126.5 389 c 128,-1,31
 76 434 76 434 76 518 c 0,32,33
 76 612 76 612 142.5 665 c 128,-1,34
 209 718 209 718 314 718 c 256,35,36
 419 718 419 718 482.5 664 c 128,-1,37
 546 610 546 610 554 519 c 1,38,-1
 452 519 l 1,39,40
 446 570 446 570 408 600 c 128,-1,41
 370 630 370 630 310 630 c 0,42,43
 251 630 251 630 216 602.5 c 0,44,45
 181 576 181 576 181 528 c 0,46,47
 181 479 181 479 212.5 453.5 c 128,-1,48
 244 428 244 428 304 410 c 2,49,-1
 372 390 l 2,50,51
 471 361 471 361 515.5 315 c 128,-1,52
 560 269 560 269 560 191 c 0,53,54
 560 110 560 110 509 57 c 128,-1,55
 458 4 458 4 379 -10 c 1,56,-1
 349 1 l 1,57,-1
 346 -19 l 1,58,59
 346 -18 346 -18 318 -72 c 1,60,-1
 352 -61 l 1,61,62
 394 -70 394 -70 417 -96 c 128,-1,63
 440 -122 440 -122 440 -161 c 0,64,65
 440 -210 440 -210 404 -239.5 c 128,-1,66
 368 -269 368 -269 308 -269 c 0,67,0
 270 -268 270 -268 231 -256 c 1,1,-1
EndSplineSet
EndUndoOperation
UndoOperation
Index: 2
Type: 3
WasModified: 0
WasOrder2: 1
Layer: 2
EndUndoOperation
EndUndoes
Redoes
EndRedoes
EndUndoRedoHistory
Fore
SplineSet
231 -256 m 1,1,-1
 231 -186 l 1,2,3
 266 -196 266 -196 298 -196 c 0,4,5
 357 -196 357 -196 356 -161 c 0,6,7
 356 -143 356 -143 340 -136 c 0,8,9
 324 -129 324 -129 282 -129 c 2,10,-1
 241 -129 l 1,11,-1
 241 -69 l 1,12,-1
 281 1 l 1,13,-1
 239 -10 l 1,14,15
 159 2 159 2 109 58 c 128,-1,16
 59 114 59 114 54 196 c 1,17,-1
 156 196 l 1,18,19
 164 141 164 141 206.5 108 c 128,-1,20
 249 75 249 75 316 75 c 0,21,22
 378 75 378 75 416.5 103 c 128,-1,23
 455 131 455 131 455 184 c 0,24,25
 454 233 454 233 424 257 c 0,26,27
 394 282 394 282 339 298 c 2,28,-1
 261 320 l 2,29,30
 177 344 177 344 126.5 389 c 128,-1,31
 76 434 76 434 76 518 c 0,32,33
 76 612 76 612 142.5 665 c 128,-1,34
 209 718 209 718 314 718 c 256,35,36
 419 718 419 718 482.5 664 c 128,-1,37
 546 610 546 610 554 519 c 1,38,-1
 452 519 l 1,39,40
 446 570 446 570 408 600 c 128,-1,41
 370 630 370 630 310 630 c 0,42,43
 251 630 251 630 216 602 c 0,44,45
 181 576 181 576 181 528 c 0,46,47
 181 479 181 479 212.5 453.5 c 128,-1,48
 244 428 244 428 304 410 c 2,49,-1
 372 390 l 2,50,51
 471 361 471 361 515.5 315 c 128,-1,52
 560 269 560 269 560 191 c 0,53,54
 560 110 560 110 509 57 c 128,-1,55
 458 4 458 4 379 -10 c 1,56,-1
 349 1 l 1,57,-1
 346 -19 l 1,58,59
 346 -18 346 -18 318 -72 c 1,60,-1
 352 -61 l 1,61,62
 394 -70 394 -70 417 -96 c 128,-1,63
 440 -122 440 -122 440 -161 c 0,64,65
 440 -210 440 -210 404 -239.5 c 128,-1,66
 368 -269 368 -269 308 -269 c 0,67,0
 270 -268 270 -268 231 -256 c 1,1,-1
EndSplineSet
Substitution2: "'locl' Localized Forms in Latin lookup 8 subtable" Scommaaccent
Substitution2: "'aalt' Access All Alternates in Latin lookup 0 subtable" Scommaaccent
EndChar

StartChar: T
Encoding: 84 84 168
Width: 596
GlyphClass: 2
Flags: W
AnchorPoint: "Anchor-15" 296 354 basechar 0
AnchorPoint: "Anchor-14" 299 0 basechar 0
AnchorPoint: "Anchor-13" 296 716 basechar 0
LayerCount: 2
UndoRedoHistory
Layer: 0
Undoes
UndoOperation
Index: 0
Type: 1
WasModified: 0
WasOrder2: 1
Layer: 2
Width: 477
VWidth: 800
LBearingChange: 0
UnicodeEnc: 0
InstructionsLength: 0
EndUndoOperation
EndUndoes
Redoes
EndRedoes
EndUndoRedoHistory
UndoRedoHistory
Layer: 1
Undoes
UndoOperation
Index: 0
Type: 1
WasModified: 1
WasOrder2: 1
Layer: 2
Width: 596
VWidth: 1000
LBearingChange: 0
UnicodeEnc: 0
InstructionsLength: 0
AnchorPoint: "Anchor-15" 296 354 basechar 0
AnchorPoint: "Anchor-14" 299 0 basechar 0
AnchorPoint: "Anchor-13" 296 716 basechar 0
SplineSet
246 584 m 1,0,-1
 252 622 l 1,1,-1
 215 614 l 1,2,-1
 26 614 l 1,3,-1
 26 700 l 1,4,-1
 570 700 l 1,5,-1
 570 614 l 1,6,-1
 381 614 l 1,7,-1
 344 622 l 1,8,-1
 350 584 l 1,9,-1
 350 0 l 1,10,-1
 246 0 l 1,11,-1
 246 584 l 1,0,-1
EndSplineSet
EndUndoOperation
UndoOperation
Index: 1
Type: 1
WasModified: 1
WasOrder2: 1
Layer: 2
Width: 596
VWidth: 1000
LBearingChange: 0
UnicodeEnc: 0
InstructionsLength: 0
AnchorPoint: "Anchor-15" 296 354 basechar 0
AnchorPoint: "Anchor-14" 299 0 basechar 0
AnchorPoint: "Anchor-13" 296 716 basechar 0
SplineSet
246 584 m 1,0,-1
 252 622 l 1,1,-1
 215 614 l 1,2,-1
 26 614 l 1,3,-1
 26 700 l 1,4,-1
 570 700 l 1,5,-1
 570 614 l 1,6,-1
 381 614 l 1,7,-1
 344 622 l 1,8,-1
 350 584 l 1,9,-1
 350 0 l 1,10,-1
 246 0 l 1,11,-1
 246 584 l 1,0,-1
EndSplineSet
EndUndoOperation
UndoOperation
Index: 2
Type: 3
WasModified: 0
WasOrder2: 1
Layer: 2
EndUndoOperation
EndUndoes
Redoes
EndRedoes
EndUndoRedoHistory
Fore
SplineSet
246 584 m 1,0,-1
 252 622 l 1,1,-1
 215 614 l 1,2,-1
 26 614 l 1,3,-1
 26 700 l 1,4,-1
 570 700 l 1,5,-1
 570 614 l 1,6,-1
 381 614 l 1,7,-1
 344 622 l 1,8,-1
 350 584 l 1,9,-1
 350 0 l 1,10,-1
 246 0 l 1,11,-1
 246 584 l 1,0,-1
EndSplineSet
EndChar

StartChar: Tbar
Encoding: 358 358 169
Width: 596
GlyphClass: 1
Flags: W
LayerCount: 2
UndoRedoHistory
Layer: 0
Undoes
UndoOperation
Index: 0
Type: 1
WasModified: 0
WasOrder2: 1
Layer: 2
Width: 477
VWidth: 800
LBearingChange: 0
UnicodeEnc: 0
InstructionsLength: 0
EndUndoOperation
EndUndoes
Redoes
EndRedoes
EndUndoRedoHistory
UndoRedoHistory
Layer: 1
Undoes
UndoOperation
Index: 0
Type: 1
WasModified: 1
WasOrder2: 1
Layer: 2
Width: 596
VWidth: 1000
LBearingChange: 0
UnicodeEnc: 0
InstructionsLength: 0
SplineSet
246 218 m 1,0,-1
 255 250 l 1,1,2
 254 250 254 250 222 242 c 1,3,-1
 111 242 l 1,4,-1
 111 330 l 1,5,6
 110 330 110 330 222 330 c 1,7,-1
 255 322 l 1,8,-1
 246 355 l 1,9,10
 246 354 246 354 246 582 c 1,11,-1
 254 622 l 1,12,-1
 215 612 l 1,13,-1
 26 612 l 1,14,-1
 26 700 l 1,15,-1
 570 700 l 1,16,-1
 570 612 l 1,17,-1
 381 612 l 1,18,19
 380 612 380 612 342 622 c 1,20,-1
 350 582 l 1,21,-1
 350 355 l 1,22,23
 350 354 350 354 342 322 c 1,24,-1
 376 330 l 1,25,-1
 488 330 l 1,26,-1
 488 242 l 1,27,-1
 376 242 l 1,28,-1
 344 250 l 1,29,-1
 351 218 l 1,30,-1
 351 0 l 1,31,32
 352 0 352 0 248 0 c 1,33,-1
 246 218 l 1,0,-1
EndSplineSet
EndUndoOperation
UndoOperation
Index: 1
Type: 1
WasModified: 1
WasOrder2: 1
Layer: 2
Width: 596
VWidth: 1000
LBearingChange: 0
UnicodeEnc: 0
InstructionsLength: 0
SplineSet
246 218 m 1,0,-1
 255 250 l 1,1,2
 254 250 254 250 222 242 c 1,3,-1
 111 242 l 1,4,-1
 111 330 l 1,5,6
 110 330 110 330 222 330 c 1,7,-1
 255 322 l 1,8,-1
 246 355 l 1,9,10
 246 354 246 354 246 582 c 1,11,-1
 254 622 l 1,12,-1
 215 612 l 1,13,-1
 26 612 l 1,14,-1
 26 700 l 1,15,-1
 570 700 l 1,16,-1
 570 612 l 1,17,-1
 381 612 l 1,18,19
 380 612 380 612 342 622 c 1,20,-1
 350 582 l 1,21,-1
 350 355 l 1,22,23
 350 354 350 354 342 322 c 1,24,-1
 376 330 l 1,25,-1
 488 330 l 1,26,-1
 488 242 l 1,27,-1
 376 242 l 1,28,-1
 344 250 l 1,29,-1
 351 218 l 1,30,-1
 351 0 l 1,31,32
 352 0 352 0 248 0 c 1,33,-1
 246 218 l 1,0,-1
EndSplineSet
EndUndoOperation
UndoOperation
Index: 2
Type: 3
WasModified: 0
WasOrder2: 1
Layer: 2
EndUndoOperation
EndUndoes
Redoes
EndRedoes
EndUndoRedoHistory
Fore
SplineSet
246 218 m 1,0,-1
 255 250 l 1,1,2
 254 250 254 250 222 242 c 1,3,-1
 111 242 l 1,4,-1
 111 330 l 1,5,6
 110 330 110 330 222 330 c 1,7,-1
 255 322 l 1,8,-1
 246 355 l 1,9,10
 246 354 246 354 246 582 c 1,11,-1
 254 622 l 1,12,-1
 215 612 l 1,13,-1
 26 612 l 1,14,-1
 26 700 l 1,15,-1
 570 700 l 1,16,-1
 570 612 l 1,17,-1
 381 612 l 1,18,19
 380 612 380 612 342 622 c 1,20,-1
 350 582 l 1,21,-1
 350 355 l 1,22,23
 350 354 350 354 342 322 c 1,24,-1
 376 330 l 1,25,-1
 488 330 l 1,26,-1
 488 242 l 1,27,-1
 376 242 l 1,28,-1
 344 250 l 1,29,-1
 351 218 l 1,30,-1
 351 0 l 1,31,32
 352 0 352 0 248 0 c 1,33,-1
 246 218 l 1,0,-1
EndSplineSet
EndChar

StartChar: Tcommaaccent
Encoding: 354 354 171
Width: 596
GlyphClass: 2
Flags: W
AnchorPoint: "Anchor-15" 296 354 basechar 0
AnchorPoint: "Anchor-14" 299 0 basechar 0
AnchorPoint: "Anchor-13" 296 716 basechar 0
LayerCount: 2
UndoRedoHistory
Layer: 0
Undoes
UndoOperation
Index: 0
Type: 1
WasModified: 0
WasOrder2: 1
Layer: 2
Width: 477
VWidth: 800
LBearingChange: 0
UnicodeEnc: 0
InstructionsLength: 0
EndUndoOperation
EndUndoes
Redoes
EndRedoes
EndUndoRedoHistory
UndoRedoHistory
Layer: 1
Undoes
UndoOperation
Index: 0
Type: 1
WasModified: 1
WasOrder2: 1
Layer: 2
Width: 596
VWidth: 1000
LBearingChange: 0
UnicodeEnc: 0
InstructionsLength: 0
AnchorPoint: "Anchor-15" 296 354 basechar 0
AnchorPoint: "Anchor-14" 299 0 basechar 0
AnchorPoint: "Anchor-13" 296 716 basechar 0
SplineSet
208 -280 m 1,1,-1
 208 -208 l 1,2,3
 236 -217 236 -217 272 -216 c 0,4,5
 303 -216 303 -216 319 -205.5 c 128,-1,6
 335 -195 335 -195 335 -175 c 0,7,8
 335 -156 335 -156 317.5 -147 c 128,-1,9
 300 -138 300 -138 255 -138 c 2,10,11
 256 -138 256 -138 218 -138 c 1,12,-1
 218 -75 l 1,13,-1
 245 0 l 1,14,-1
 246 0 l 1,15,-1
 246 584 l 1,16,-1
 252 622 l 1,17,-1
 215 614 l 1,18,-1
 26 614 l 1,19,-1
 26 700 l 1,20,-1
 570 700 l 1,21,-1
 570 614 l 1,22,-1
 381 614 l 1,23,-1
 344 622 l 1,24,-1
 350 584 l 1,25,-1
 350 0 l 1,26,-1
 299 -78 l 1,27,28
 298 -78 298 -78 332 -68 c 1,29,30
 377 -77 377 -77 401 -104 c 0,31,32
 425 -130 425 -130 425 -172 c 0,33,34
 425 -227 425 -227 386.5 -259 c 128,-1,35
 348 -291 348 -291 282 -291 c 0,36,0
 246 -291 246 -291 208 -280 c 1,1,-1
EndSplineSet
EndUndoOperation
UndoOperation
Index: 1
Type: 1
WasModified: 1
WasOrder2: 1
Layer: 2
Width: 596
VWidth: 1000
LBearingChange: 0
UnicodeEnc: 0
InstructionsLength: 0
AnchorPoint: "Anchor-15" 296 354 basechar 0
AnchorPoint: "Anchor-14" 299 0 basechar 0
AnchorPoint: "Anchor-13" 296 716 basechar 0
SplineSet
208 -280 m 1,1,-1
 208 -208 l 1,2,3
 236 -217 236 -217 272 -216 c 0,4,5
 303 -216 303 -216 319 -205.5 c 128,-1,6
 335 -195 335 -195 335 -175 c 0,7,8
 335 -156 335 -156 317.5 -147 c 128,-1,9
 300 -138 300 -138 255 -138 c 2,10,11
 256 -138 256 -138 218 -138 c 1,12,-1
 218 -75 l 1,13,-1
 245 0 l 1,14,-1
 246 0 l 1,15,-1
 246 584 l 1,16,-1
 252 622 l 1,17,-1
 215 614 l 1,18,-1
 26 614 l 1,19,-1
 26 700 l 1,20,-1
 570 700 l 1,21,-1
 570 614 l 1,22,-1
 381 614 l 1,23,-1
 344 622 l 1,24,-1
 350 584 l 1,25,-1
 350 0 l 1,26,-1
 299 -78 l 1,27,28
 298 -78 298 -78 332 -68 c 1,29,30
 377 -77 377 -77 401 -104 c 0,31,32
 425 -130 425 -130 425 -172 c 0,33,34
 425 -227 425 -227 386.5 -259 c 128,-1,35
 348 -291 348 -291 282 -291 c 0,36,0
 246 -291 246 -291 208 -280 c 1,1,-1
EndSplineSet
EndUndoOperation
UndoOperation
Index: 2
Type: 3
WasModified: 0
WasOrder2: 1
Layer: 2
EndUndoOperation
EndUndoes
Redoes
EndRedoes
EndUndoRedoHistory
Fore
SplineSet
208 -280 m 1,1,-1
 208 -208 l 1,2,3
 236 -217 236 -217 272 -216 c 0,4,5
 303 -216 303 -216 319 -205.5 c 128,-1,6
 335 -195 335 -195 335 -175 c 0,7,8
 335 -156 335 -156 317.5 -147 c 128,-1,9
 300 -138 300 -138 255 -138 c 2,10,11
 256 -138 256 -138 218 -138 c 1,12,-1
 218 -75 l 1,13,-1
 245 0 l 1,14,-1
 246 0 l 1,15,-1
 246 584 l 1,16,-1
 252 622 l 1,17,-1
 215 614 l 1,18,-1
 26 614 l 1,19,-1
 26 700 l 1,20,-1
 570 700 l 1,21,-1
 570 614 l 1,22,-1
 381 614 l 1,23,-1
 344 622 l 1,24,-1
 350 584 l 1,25,-1
 350 0 l 1,26,-1
 299 -78 l 1,27,28
 298 -78 298 -78 332 -68 c 1,29,30
 377 -77 377 -77 401 -104 c 0,31,32
 425 -130 425 -130 425 -172 c 0,33,34
 425 -227 425 -227 386.5 -259 c 128,-1,35
 348 -291 348 -291 282 -291 c 0,36,0
 246 -291 246 -291 208 -280 c 1,1,-1
EndSplineSet
Substitution2: "'locl' Localized Forms in Latin lookup 8 subtable" uni021A
Substitution2: "'aalt' Access All Alternates in Latin lookup 0 subtable" uni021A
EndChar

StartChar: uni01AC
Encoding: 428 428 175
Width: 633
GlyphClass: 1
Flags: W
LayerCount: 2
UndoRedoHistory
Layer: 0
Undoes
UndoOperation
Index: 0
Type: 1
WasModified: 0
WasOrder2: 1
Layer: 2
Width: 507
VWidth: 800
LBearingChange: 0
UnicodeEnc: 0
InstructionsLength: 0
EndUndoOperation
EndUndoes
Redoes
EndRedoes
EndUndoRedoHistory
UndoRedoHistory
Layer: 1
Undoes
UndoOperation
Index: 0
Type: 1
WasModified: 1
WasOrder2: 1
Layer: 2
Width: 633
VWidth: 1000
LBearingChange: 0
UnicodeEnc: 0
InstructionsLength: 0
SplineSet
606 700 m 1,0,-1
 606 608 l 1,1,-1
 425 608 l 1,2,3
 426 608 426 608 388 620 c 1,4,-1
 400 582 l 1,5,-1
 400 0 l 1,6,-1
 298 0 l 1,7,-1
 298 582 l 1,8,-1
 310 620 l 1,9,-1
 272 608 l 1,10,-1
 195 608 l 2,11,12
 160 608 160 608 142 586.5 c 0,13,14
 124 564 124 564 124 512 c 2,15,-1
 124 488 l 1,16,-1
 26 488 l 1,17,-1
 26 511 l 2,18,19
 26 700 26 700 186 700 c 2,20,-1
 606 700 l 1,0,-1
EndSplineSet
EndUndoOperation
UndoOperation
Index: 1
Type: 1
WasModified: 1
WasOrder2: 1
Layer: 2
Width: 633
VWidth: 1000
LBearingChange: 0
UnicodeEnc: 0
InstructionsLength: 0
SplineSet
606 700 m 1,0,-1
 606 608 l 1,1,-1
 425 608 l 1,2,3
 426 608 426 608 388 620 c 1,4,-1
 400 582 l 1,5,-1
 400 0 l 1,6,-1
 298 0 l 1,7,-1
 298 582 l 1,8,-1
 310 620 l 1,9,-1
 272 608 l 1,10,-1
 195 608 l 2,11,12
 160 608 160 608 142 586.5 c 0,13,14
 124 564 124 564 124 512 c 2,15,-1
 124 488 l 1,16,-1
 26 488 l 1,17,-1
 26 511 l 2,18,19
 26 700 26 700 186 700 c 2,20,-1
 606 700 l 1,0,-1
EndSplineSet
EndUndoOperation
UndoOperation
Index: 2
Type: 3
WasModified: 0
WasOrder2: 1
Layer: 2
EndUndoOperation
EndUndoes
Redoes
EndRedoes
EndUndoRedoHistory
Fore
SplineSet
606 700 m 1,0,-1
 606 608 l 1,1,-1
 425 608 l 1,2,3
 426 608 426 608 388 620 c 1,4,-1
 400 582 l 1,5,-1
 400 0 l 1,6,-1
 298 0 l 1,7,-1
 298 582 l 1,8,-1
 310 620 l 1,9,-1
 272 608 l 1,10,-1
 195 608 l 2,11,12
 160 608 160 608 142 586 c 0,13,14
 124 564 124 564 124 512 c 2,15,-1
 124 488 l 1,16,-1
 26 488 l 1,17,-1
 26 511 l 2,18,19
 26 700 26 700 186 700 c 2,20,-1
 606 700 l 1,0,-1
EndSplineSet
EndChar

StartChar: uni01AE
Encoding: 430 430 177
Width: 596
GlyphClass: 2
Flags: W
AnchorPoint: "Anchor-15" 296 354 basechar 0
AnchorPoint: "Anchor-14" 299 0 basechar 0
AnchorPoint: "Anchor-13" 296 716 basechar 0
LayerCount: 2
UndoRedoHistory
Layer: 0
Undoes
UndoOperation
Index: 0
Type: 1
WasModified: 0
WasOrder2: 1
Layer: 2
Width: 477
VWidth: 800
LBearingChange: 0
UnicodeEnc: 0
InstructionsLength: 0
EndUndoOperation
EndUndoes
Redoes
EndRedoes
EndUndoRedoHistory
UndoRedoHistory
Layer: 1
Undoes
UndoOperation
Index: 0
Type: 1
WasModified: 1
WasOrder2: 1
Layer: 2
Width: 596
VWidth: 1000
LBearingChange: 0
UnicodeEnc: 0
InstructionsLength: 0
AnchorPoint: "Anchor-15" 296 354 basechar 0
AnchorPoint: "Anchor-14" 299 0 basechar 0
AnchorPoint: "Anchor-13" 296 716 basechar 0
SplineSet
290 -170.5 m 128,-1,1
 245 -121 245 -121 245 -40 c 2,2,-1
 245 20 l 1,3,-1
 246 20 l 1,4,-1
 246 584 l 1,5,-1
 252 622 l 1,6,-1
 215 614 l 1,7,-1
 26 614 l 1,8,-1
 26 700 l 1,9,-1
 570 700 l 1,10,-1
 570 614 l 1,11,-1
 381 614 l 1,12,-1
 344 622 l 1,13,-1
 350 584 l 1,14,-1
 350 0 l 1,15,-1
 349 0 l 1,16,-1
 349 -40 l 2,17,18
 349 -128 349 -128 430 -128 c 2,19,-1
 435 -128 l 1,20,-1
 435 -220 l 1,21,-1
 424 -220 l 2,22,0
 335 -220 335 -220 290 -170.5 c 128,-1,1
EndSplineSet
EndUndoOperation
UndoOperation
Index: 1
Type: 1
WasModified: 1
WasOrder2: 1
Layer: 2
Width: 596
VWidth: 1000
LBearingChange: 0
UnicodeEnc: 0
InstructionsLength: 0
AnchorPoint: "Anchor-15" 296 354 basechar 0
AnchorPoint: "Anchor-14" 299 0 basechar 0
AnchorPoint: "Anchor-13" 296 716 basechar 0
SplineSet
290 -170.5 m 128,-1,1
 245 -121 245 -121 245 -40 c 2,2,-1
 245 20 l 1,3,-1
 246 20 l 1,4,-1
 246 584 l 1,5,-1
 252 622 l 1,6,-1
 215 614 l 1,7,-1
 26 614 l 1,8,-1
 26 700 l 1,9,-1
 570 700 l 1,10,-1
 570 614 l 1,11,-1
 381 614 l 1,12,-1
 344 622 l 1,13,-1
 350 584 l 1,14,-1
 350 0 l 1,15,-1
 349 0 l 1,16,-1
 349 -40 l 2,17,18
 349 -128 349 -128 430 -128 c 2,19,-1
 435 -128 l 1,20,-1
 435 -220 l 1,21,-1
 424 -220 l 2,22,0
 335 -220 335 -220 290 -170.5 c 128,-1,1
EndSplineSet
EndUndoOperation
UndoOperation
Index: 2
Type: 3
WasModified: 0
WasOrder2: 1
Layer: 2
EndUndoOperation
EndUndoes
Redoes
EndRedoes
EndUndoRedoHistory
Fore
SplineSet
290 -170.5 m 128,-1,1
 245 -121 245 -121 245 -40 c 2,2,-1
 245 20 l 1,3,-1
 246 20 l 1,4,-1
 246 584 l 1,5,-1
 252 622 l 1,6,-1
 215 614 l 1,7,-1
 26 614 l 1,8,-1
 26 700 l 1,9,-1
 570 700 l 1,10,-1
 570 614 l 1,11,-1
 381 614 l 1,12,-1
 344 622 l 1,13,-1
 350 584 l 1,14,-1
 350 0 l 1,15,-1
 349 0 l 1,16,-1
 349 -40 l 2,17,18
 349 -128 349 -128 430 -128 c 2,19,-1
 435 -128 l 1,20,-1
 435 -220 l 1,21,-1
 424 -220 l 2,22,0
 335 -220 335 -220 290 -170.5 c 128,-1,1
EndSplineSet
EndChar

StartChar: U
Encoding: 85 85 178
Width: 681
GlyphClass: 2
Flags: W
AnchorPoint: "Anchor-14" 336 -4 basechar 0
AnchorPoint: "Anchor-13" 336 700 basechar 0
AnchorPoint: "Anchor-12" 509 12 basechar 0
LayerCount: 2
UndoRedoHistory
Layer: 0
Undoes
UndoOperation
Index: 0
Type: 1
WasModified: 0
WasOrder2: 1
Layer: 2
Width: 545
VWidth: 800
LBearingChange: 0
UnicodeEnc: 0
InstructionsLength: 0
EndUndoOperation
EndUndoes
Redoes
EndRedoes
EndUndoRedoHistory
UndoRedoHistory
Layer: 1
Undoes
UndoOperation
Index: 0
Type: 1
WasModified: 1
WasOrder2: 1
Layer: 2
Width: 681
VWidth: 1000
LBearingChange: 0
UnicodeEnc: 0
InstructionsLength: 0
AnchorPoint: "Anchor-14" 336 -4 basechar 0
AnchorPoint: "Anchor-13" 336 700 basechar 0
AnchorPoint: "Anchor-12" 509 12 basechar 0
SplineSet
188 700 m 1,0,-1
 188 241 l 2,1,2
 188 161 188 161 228 118.5 c 128,-1,3
 268 76 268 76 340 76 c 256,4,5
 412 76 412 76 453 118.5 c 128,-1,6
 494 161 494 161 494 241 c 2,7,-1
 494 700 l 1,8,-1
 598 700 l 1,9,-1
 598 240 l 2,10,11
 598 121 598 121 529.5 53.5 c 128,-1,12
 461 -14 461 -14 340 -14 c 256,13,14
 219 -14 219 -14 151.5 53.5 c 128,-1,15
 84 121 84 121 84 240 c 2,16,-1
 84 700 l 1,17,-1
 188 700 l 1,0,-1
EndSplineSet
EndUndoOperation
UndoOperation
Index: 1
Type: 1
WasModified: 1
WasOrder2: 1
Layer: 2
Width: 681
VWidth: 1000
LBearingChange: 0
UnicodeEnc: 0
InstructionsLength: 0
AnchorPoint: "Anchor-14" 336 -4 basechar 0
AnchorPoint: "Anchor-13" 336 700 basechar 0
AnchorPoint: "Anchor-12" 509 12 basechar 0
SplineSet
188 700 m 1,0,-1
 188 241 l 2,1,2
 188 161 188 161 228 118.5 c 128,-1,3
 268 76 268 76 340 76 c 256,4,5
 412 76 412 76 453 118.5 c 128,-1,6
 494 161 494 161 494 241 c 2,7,-1
 494 700 l 1,8,-1
 598 700 l 1,9,-1
 598 240 l 2,10,11
 598 121 598 121 529.5 53.5 c 128,-1,12
 461 -14 461 -14 340 -14 c 256,13,14
 219 -14 219 -14 151.5 53.5 c 128,-1,15
 84 121 84 121 84 240 c 2,16,-1
 84 700 l 1,17,-1
 188 700 l 1,0,-1
EndSplineSet
EndUndoOperation
UndoOperation
Index: 2
Type: 3
WasModified: 0
WasOrder2: 1
Layer: 2
EndUndoOperation
EndUndoes
Redoes
EndRedoes
EndUndoRedoHistory
Fore
SplineSet
188 700 m 1,0,-1
 188 241 l 2,1,2
 188 161 188 161 228 118.5 c 128,-1,3
 268 76 268 76 340 76 c 256,4,5
 412 76 412 76 453 118.5 c 128,-1,6
 494 161 494 161 494 241 c 2,7,-1
 494 700 l 1,8,-1
 598 700 l 1,9,-1
 598 240 l 2,10,11
 598 121 598 121 529.5 53.5 c 128,-1,12
 461 -14 461 -14 340 -14 c 256,13,14
 219 -14 219 -14 151.5 53.5 c 128,-1,15
 84 121 84 121 84 240 c 2,16,-1
 84 700 l 1,17,-1
 188 700 l 1,0,-1
EndSplineSet
EndChar

StartChar: uni0244
Encoding: 580 580 180
Width: 626
GlyphClass: 1
Flags: W
LayerCount: 2
UndoRedoHistory
Layer: 0
Undoes
UndoOperation
Index: 0
Type: 1
WasModified: 0
WasOrder2: 1
Layer: 2
Width: 501
VWidth: 800
LBearingChange: 0
UnicodeEnc: 0
InstructionsLength: 0
EndUndoOperation
EndUndoes
Redoes
EndRedoes
EndUndoRedoHistory
UndoRedoHistory
Layer: 1
Undoes
UndoOperation
Index: 0
Type: 1
WasModified: 1
WasOrder2: 1
Layer: 2
Width: 626
VWidth: 1000
LBearingChange: 0
UnicodeEnc: 0
InstructionsLength: 0
SplineSet
128.5 56.5 m 128,-1,1
 61 125 61 125 61 244 c 2,2,-1
 61 456 l 1,3,-1
 69 494 l 1,4,-1
 34 485 l 1,5,-1
 1 485 l 1,6,-1
 1 575 l 1,7,-1
 34 575 l 1,8,-1
 69 566 l 1,9,-1
 61 604 l 1,10,-1
 61 700 l 1,11,-1
 164 700 l 1,12,-1
 164 604 l 1,13,-1
 155 566 l 1,14,-1
 194 575 l 1,15,-1
 432 575 l 1,16,-1
 471 566 l 1,17,18
 470 566 470 566 462 604 c 1,19,-1
 464 700 l 1,20,-1
 566 700 l 1,21,-1
 565 604 l 1,22,23
 566 604 566 604 558 566 c 1,24,-1
 592 575 l 1,25,-1
 625 575 l 1,26,-1
 625 485 l 1,27,28
 624 485 624 485 592 485 c 1,29,-1
 558 494 l 1,30,-1
 565 456 l 1,31,-1
 565 244 l 2,32,33
 565 125 565 125 498 56.5 c 128,-1,34
 431 -12 431 -12 314 -12 c 256,35,0
 196 -12 196 -12 128.5 56.5 c 128,-1,1
164 456 m 1,36,-1
 164 248 l 2,37,38
 164 170 164 170 204 126 c 128,-1,39
 244 82 244 82 314 82 c 256,40,41
 384 82 384 82 423 126 c 128,-1,42
 462 170 462 170 462 248 c 2,43,-1
 462 456 l 1,44,-1
 470 494 l 1,45,-1
 432 485 l 1,46,-1
 194 485 l 1,47,-1
 155 494 l 1,48,-1
 164 456 l 1,36,-1
EndSplineSet
EndUndoOperation
UndoOperation
Index: 1
Type: 1
WasModified: 1
WasOrder2: 1
Layer: 2
Width: 626
VWidth: 1000
LBearingChange: 0
UnicodeEnc: 0
InstructionsLength: 0
SplineSet
128.5 56.5 m 128,-1,1
 61 125 61 125 61 244 c 2,2,-1
 61 456 l 1,3,-1
 69 494 l 1,4,-1
 34 485 l 1,5,-1
 1 485 l 1,6,-1
 1 575 l 1,7,-1
 34 575 l 1,8,-1
 69 566 l 1,9,-1
 61 604 l 1,10,-1
 61 700 l 1,11,-1
 164 700 l 1,12,-1
 164 604 l 1,13,-1
 155 566 l 1,14,-1
 194 575 l 1,15,-1
 432 575 l 1,16,-1
 471 566 l 1,17,18
 470 566 470 566 462 604 c 1,19,-1
 464 700 l 1,20,-1
 566 700 l 1,21,-1
 565 604 l 1,22,23
 566 604 566 604 558 566 c 1,24,-1
 592 575 l 1,25,-1
 625 575 l 1,26,-1
 625 485 l 1,27,28
 624 485 624 485 592 485 c 1,29,-1
 558 494 l 1,30,-1
 565 456 l 1,31,-1
 565 244 l 2,32,33
 565 125 565 125 498 56.5 c 128,-1,34
 431 -12 431 -12 314 -12 c 256,35,0
 196 -12 196 -12 128.5 56.5 c 128,-1,1
164 456 m 1,36,-1
 164 248 l 2,37,38
 164 170 164 170 204 126 c 128,-1,39
 244 82 244 82 314 82 c 256,40,41
 384 82 384 82 423 126 c 128,-1,42
 462 170 462 170 462 248 c 2,43,-1
 462 456 l 1,44,-1
 470 494 l 1,45,-1
 432 485 l 1,46,-1
 194 485 l 1,47,-1
 155 494 l 1,48,-1
 164 456 l 1,36,-1
EndSplineSet
EndUndoOperation
UndoOperation
Index: 2
Type: 3
WasModified: 0
WasOrder2: 1
Layer: 2
EndUndoOperation
EndUndoes
Redoes
EndRedoes
EndUndoRedoHistory
Fore
SplineSet
128.5 56.5 m 128,-1,1
 61 125 61 125 61 244 c 2,2,-1
 61 456 l 1,3,-1
 69 494 l 1,4,-1
 34 485 l 1,5,-1
 1 485 l 1,6,-1
 1 575 l 1,7,-1
 34 575 l 1,8,-1
 69 566 l 1,9,-1
 61 604 l 1,10,-1
 61 700 l 1,11,-1
 164 700 l 1,12,-1
 164 604 l 1,13,-1
 155 566 l 1,14,-1
 194 575 l 1,15,-1
 432 575 l 1,16,-1
 471 566 l 1,17,18
 470 566 470 566 462 604 c 1,19,-1
 464 700 l 1,20,-1
 566 700 l 1,21,-1
 565 604 l 1,22,23
 566 604 566 604 558 566 c 1,24,-1
 592 575 l 1,25,-1
 625 575 l 1,26,-1
 625 485 l 1,27,28
 624 485 624 485 592 485 c 1,29,-1
 558 494 l 1,30,-1
 565 456 l 1,31,-1
 565 244 l 2,32,33
 565 125 565 125 498 56.5 c 128,-1,34
 431 -12 431 -12 314 -12 c 256,35,0
 196 -12 196 -12 128.5 56.5 c 128,-1,1
164 456 m 1,36,-1
 164 248 l 2,37,38
 164 170 164 170 204 126 c 128,-1,39
 244 82 244 82 314 82 c 256,40,41
 384 82 384 82 423 126 c 128,-1,42
 462 170 462 170 462 248 c 2,43,-1
 462 456 l 1,44,-1
 470 494 l 1,45,-1
 432 485 l 1,46,-1
 194 485 l 1,47,-1
 155 494 l 1,48,-1
 164 456 l 1,36,-1
EndSplineSet
EndChar

StartChar: Uhorn
Encoding: 431 431 191
Width: 626
GlyphClass: 2
Flags: W
AnchorPoint: "Anchor-14" 314 0 basechar 0
LayerCount: 2
UndoRedoHistory
Layer: 0
Undoes
UndoOperation
Index: 0
Type: 1
WasModified: 0
WasOrder2: 1
Layer: 2
Width: 501
VWidth: 800
LBearingChange: 0
UnicodeEnc: 0
InstructionsLength: 0
EndUndoOperation
EndUndoes
Redoes
EndRedoes
EndUndoRedoHistory
UndoRedoHistory
Layer: 1
Undoes
UndoOperation
Index: 0
Type: 1
WasModified: 1
WasOrder2: 1
Layer: 2
Width: 626
VWidth: 1000
LBearingChange: 0
UnicodeEnc: 0
InstructionsLength: 0
AnchorPoint: "Anchor-14" 314 0 basechar 0
SplineSet
61 700 m 1,0,-1
 165 700 l 1,1,-1
 165 240 l 2,2,3
 165 166 165 166 205 123.5 c 128,-1,4
 245 81 245 81 314 81 c 0,5,6
 382 81 382 81 421.5 123.5 c 128,-1,7
 461 166 461 166 461 240 c 2,8,-1
 461 700 l 1,9,-1
 526 700 l 2,10,11
 591 700 591 700 591 766 c 2,12,-1
 591 805 l 1,13,-1
 689 805 l 1,14,-1
 689 774 l 2,15,16
 689 652 689 652 600 622 c 1,17,-1
 548 629 l 1,18,-1
 565 576 l 1,19,-1
 565 238 l 2,20,21
 565 122 565 122 497.5 54 c 128,-1,22
 430 -14 430 -14 314 -14 c 0,23,24
 196 -14 196 -14 128.5 53.5 c 0,25,26
 61 122 61 122 61 238 c 2,27,-1
 61 700 l 1,0,-1
EndSplineSet
EndUndoOperation
UndoOperation
Index: 1
Type: 1
WasModified: 1
WasOrder2: 1
Layer: 2
Width: 626
VWidth: 1000
LBearingChange: 0
UnicodeEnc: 0
InstructionsLength: 0
AnchorPoint: "Anchor-14" 314 0 basechar 0
SplineSet
61 700 m 1,0,-1
 165 700 l 1,1,-1
 165 240 l 2,2,3
 165 166 165 166 205 123.5 c 128,-1,4
 245 81 245 81 314 81 c 0,5,6
 382 81 382 81 421.5 123.5 c 128,-1,7
 461 166 461 166 461 240 c 2,8,-1
 461 700 l 1,9,-1
 526 700 l 2,10,11
 591 700 591 700 591 766 c 2,12,-1
 591 805 l 1,13,-1
 689 805 l 1,14,-1
 689 774 l 2,15,16
 689 652 689 652 600 622 c 1,17,-1
 548 629 l 1,18,-1
 565 576 l 1,19,-1
 565 238 l 2,20,21
 565 122 565 122 497.5 54 c 128,-1,22
 430 -14 430 -14 314 -14 c 0,23,24
 196 -14 196 -14 128.5 53.5 c 0,25,26
 61 122 61 122 61 238 c 2,27,-1
 61 700 l 1,0,-1
EndSplineSet
EndUndoOperation
UndoOperation
Index: 2
Type: 3
WasModified: 0
WasOrder2: 1
Layer: 2
EndUndoOperation
EndUndoes
Redoes
EndRedoes
EndUndoRedoHistory
Fore
SplineSet
61 700 m 1,0,-1
 165 700 l 1,1,-1
 165 240 l 2,2,3
 165 166 165 166 205 123.5 c 128,-1,4
 245 81 245 81 314 81 c 0,5,6
 382 81 382 81 421.5 123.5 c 128,-1,7
 461 166 461 166 461 240 c 2,8,-1
 461 700 l 1,9,-1
 526 700 l 2,10,11
 591 700 591 700 591 766 c 2,12,-1
 591 805 l 1,13,-1
 689 805 l 1,14,-1
 689 774 l 2,15,16
 689 652 689 652 600 622 c 1,17,-1
 548 629 l 1,18,-1
 565 576 l 1,19,-1
 565 238 l 2,20,21
 565 122 565 122 497.5 54 c 128,-1,22
 430 -14 430 -14 314 -14 c 0,23,24
 196 -14 196 -14 128 54 c 0,25,26
 60 122 60 122 61 238 c 2,27,-1
 61 700 l 1,0,-1
EndSplineSet
EndChar

